<svg class="svgicon svgicon-ball" xmlns="http://www.w3.org/2000/svg" width="21" height="21" viewBox="0 0 21 21"><path d="M7.3,9.4l1.3,3.7h4l1.2-3.7l-3.2-2.3L7.3,9.4z M10.5,0C4.7,0,0,4.7,0,10.5S4.7,21,10.5,21S21,16.3,21,10.5S16.3,0,10.5,0z M17.9,14.8l-4.3-0.1l-1.3,4.1C11.7,19,11.1,19,10.5,19s-1.2,0-1.8-0.2l-1.3-4.1l-4.3,0.1c-0.6-1-1-2.2-1.1-3.5l3.5-2.5l-1.4-4c0.8-0.9,1.8-1.7,3-2.2l3.4,2.6l3.4-2.6c1.1,0.5,2.1,1.2,3,2.2l-1.4,4l3.5,2.5C18.8,12.6,18.5,13.8,17.9,14.8z"/><path fill="#B7263D" d="M16.5,21c2.6,0,4.5-1.9,4.5-4.5S19.1,12,16.5,12S12,13.9,12,16.5S13.9,21,16.5,21z M15.2,15.2c0.2-0.2,0.4-0.2,0.6,0l0.9,0.9l0.9-0.9c0.1-0.2,0.4-0.2,0.6,0c0.1,0.2,0.1,0.4,0,0.6l-1.1,0.8l0.9,0.9c0.2,0.1,0.2,0.4,0,0.6s-0.4,0.2-0.6,0l-0.9-0.9L15.6,18c-0.2,0.2-0.4,0.2-0.6,0s-0.2-0.4,0-0.6l0.9-0.9L15,15.6C14.8,15.4,14.8,15.3,15.2,15.2z"/></svg>