<svg class="svgicon svgicon-pen-success" xmlns="http://www.w3.org/2000/svg" width="21" height="21" viewBox="0 0 21 21"><path d="M7.3,9.4l1.3,3.7h4l1.2-3.7l-3.2-2.3L7.3,9.4z M10.5,0C4.7,0,0,4.7,0,10.5S4.7,21,10.5,21S21,16.3,21,10.5S16.3,0,10.5,0z M17.9,14.8l-4.3-0.1l-1.3,4.1C11.7,19,11.1,19,10.5,19s-1.2,0-1.8-0.2l-1.3-4.1l-4.3,0.1c-0.6-1-1-2.2-1.1-3.5l3.5-2.5l-1.4-4c0.8-0.9,1.8-1.7,3-2.2l3.4,2.6l3.4-2.6c1.1,0.5,2.1,1.2,3,2.2l-1.4,4l3.5,2.5C18.8,12.6,18.5,13.8,17.9,14.8z"/><path fill="#31863E" d="M15,21c3.5,0,6-2.5,6-6s-2.5-6-6-6s-6,2.5-6,6S11.5,21,15,21z M17.5,13.8l-2.9,2.9c-0.1,0.3-0.5,0.3-0.8,0l-1.6-1.6c-0.3-0.3-0.3-0.5,0-0.8c0.3-0.3,0.5-0.3,0.8,0l1.2,1.2l2.5-2.5c0.3-0.3,0.7-0.3,0.8,0C17.8,13.4,17.8,13.5,17.5,13.8L17.5,13.8z"/></svg>