<svg class="svgicon svgicon-card" xmlns="http://www.w3.org/2000/svg" width="22" height="20" viewBox="0 0 22 20"><path d="M20.6964 2.20936L19.2849 1.6202V11.1205L21.8445 4.95529C22.2764 3.88217 21.7813 2.65124 20.6964 2.20936M0.156264 6.10205L5.38083 18.6744C5.53467 19.0569 5.7971 19.3862 6.13582 19.6217C6.47455 19.8572 6.87481 19.9887 7.28737 20C7.56124 20 7.84564 19.9474 8.11951 19.8317L15.8826 16.6228C16.6726 16.2967 17.1572 15.5181 17.1782 14.7396C17.1888 14.4661 17.1361 14.161 17.0413 13.8874L11.7746 1.3151C11.6257 0.930057 11.3642 0.598696 11.0242 0.364142C10.6842 0.129587 10.2813 0.00270146 9.86806 0C9.59419 0 9.32032 0.0631248 9.05699 0.157812L1.3044 3.36665C0.789071 3.57743 0.378636 3.98398 0.163334 4.49693C-0.0519675 5.00988 -0.0545108 5.58723 0.156264 6.10205M17.1677 2.10416C17.1677 1.5461 16.9458 1.0109 16.5507 0.616293C16.1556 0.221687 15.6198 0 15.061 0H13.5337L17.1677 8.77433"/></svg>
