<svg class="svgicon svgicon-dropdown" xmlns="http://www.w3.org/2000/svg" width="18" height="12" viewBox="0 0 18 12"><path d="M1.5537 1.60407H16.444L8.99884 10.396L1.5537 1.60407ZM0.384766 2.66115L7.82991 11.4514C7.97562 11.6237 8.15531 11.7618 8.35692 11.8564C8.55854 11.951 8.77741 12 8.99884 12C9.22027 12 9.43914 11.951 9.64076 11.8564C9.84237 11.7618 10.0221 11.6237 10.1678 11.4514L17.6129 2.66115C18.4916 1.62332 17.7775 5.89825e-07 16.444 5.89825e-07H1.5537C1.25526 -0.000263804 0.963082 0.0883646 0.712141 0.255273C0.461201 0.422181 0.262139 0.660294 0.138795 0.941096C0.0154504 1.2219 -0.0269484 1.53349 0.0166759 1.83855C0.0603002 2.14361 0.188098 2.42921 0.384766 2.66115V2.66115Z"/></svg>