<svg class="svgicon svgicon-edit" xmlns="http://www.w3.org/2000/svg" width="16" height="16" viewBox="0 0 16 16"><path d="M9.51966 0.46967C9.81255 0.176777 10.2874 0.176777 10.5803 0.46967L15.5303 5.41967C15.8232 5.71256 15.8232 6.18744 15.5303 6.48033L7.0954 14.9152C6.7673 15.2434 6.3222 15.4279 5.85815 15.428H1.32199C0.907777 15.428 0.571991 15.0922 0.571991 14.678V10.142C0.57209 9.67795 0.756499 9.23278 1.08466 8.90467L9.51966 0.46967ZM8.28265 3.828L12.172 7.71734L13.9393 5.95L10.05 2.06066L8.28265 3.828ZM11.1113 8.778L7.22199 4.88866L2.14532 9.96533C2.09847 10.0122 2.07205 10.0758 2.07199 10.142V13.928H5.85783C5.92407 13.9279 5.98775 13.9016 6.03458 13.8548L11.1113 8.778Z"/></svg>