<svg class="svgicon svgicon-field-wet" xmlns="http://www.w3.org/2000/svg" width="20" height="24" viewBox="0 0 20 24"><path d="M9.93 20.4C10.17 20.38 10.3752 20.2852 10.5456 20.1156C10.7152 19.9452 10.8 19.74 10.8 19.5C10.8 19.22 10.71 18.9952 10.53 18.8256C10.35 18.6552 10.12 18.58 9.84 18.6C9.02 18.66 8.15 18.4352 7.23 17.9256C6.31 17.4152 5.73 16.49 5.49 15.15C5.45 14.93 5.3448 14.75 5.1744 14.61C5.0048 14.47 4.81 14.4 4.59 14.4C4.31 14.4 4.08 14.5048 3.9 14.7144C3.72 14.9248 3.66 15.17 3.72 15.45C4.06 17.27 4.86 18.57 6.12 19.35C7.38 20.13 8.65 20.48 9.93 20.4ZM9.6 24C6.86 24 4.5752 23.06 2.7456 21.18C0.9152 19.3 0 16.96 0 14.16C0 12.16 0.7952 9.9852 2.3856 7.6356C3.9752 5.2852 6.38 2.74 9.6 0C12.82 2.74 15.2252 5.2852 16.8156 7.6356C18.4052 9.9852 19.2 12.16 19.2 14.16C19.2 16.96 18.2848 19.3 16.4544 21.18C14.6248 23.06 12.34 24 9.6 24ZM9.6 21.6C11.68 21.6 13.4 20.8952 14.76 19.4856C16.12 18.0752 16.8 16.3 16.8 14.16C16.8 12.7 16.1952 11.05 14.9856 9.21C13.7752 7.37 11.98 5.36 9.6 3.18C7.22 5.36 5.4252 7.37 4.2156 9.21C3.0052 11.05 2.4 12.7 2.4 14.16C2.4 16.3 3.08 18.0752 4.44 19.4856C5.8 20.8952 7.52 21.6 9.6 21.6Z"/></svg>
