<svg class="svgicon svgicon-field-dry" xmlns="http://www.w3.org/2000/svg" width="22" height="24" viewBox="0 0 22 24"><path d="M8.20513 22.2125C5.89988 21.9194 3.95604 20.9035 2.37363 19.1648C0.791209 17.4261 0 15.3748 0 13.011C0 11.7216 0.239511 10.5248 0.718535 9.42066C1.19678 8.31726 1.87546 7.34554 2.75458 6.50549L9.37729 0L16 6.50549C16.7033 7.20879 17.2847 8 17.7442 8.87912C18.2029 9.75824 18.5104 10.7057 18.6667 11.7216H16.293C16.1563 11.0574 15.9265 10.4272 15.6038 9.83092C15.2819 9.23546 14.8669 8.69353 14.359 8.20513L9.37729 3.28205L4.3956 8.20513C3.71184 8.84982 3.19922 9.57734 2.85773 10.3877C2.51546 11.1988 2.34432 12.0733 2.34432 13.011C2.34432 14.7106 2.90618 16.2051 4.02989 17.4945C5.15282 18.7839 6.54457 19.5653 8.20513 19.8388V22.2125ZM10.9011 16.6154L10.1978 15.0037C10.7057 14.7302 11.2379 14.5055 11.7943 14.3297C12.3515 14.1538 12.9133 14.0659 13.4799 14.0659C13.9292 14.0659 14.3734 14.1195 14.8126 14.2265C15.2525 14.3344 15.6777 14.4664 16.0879 14.6227C16.4396 14.779 16.7963 14.9157 17.1581 15.033C17.5191 15.1502 17.895 15.2088 18.2857 15.2088C18.735 15.2088 19.1746 15.1306 19.6044 14.9744C20.0342 14.8181 20.4542 14.6325 20.8645 14.4176L21.5678 16.0293C21.0598 16.3028 20.5277 16.5275 19.9713 16.7033C19.4141 16.8791 18.8523 16.967 18.2857 16.967C17.8364 16.967 17.3921 16.9131 16.953 16.8053C16.513 16.6982 16.0879 16.5665 15.6777 16.4103C15.326 16.254 14.9693 16.1172 14.6075 16C14.2464 15.8828 13.8706 15.8242 13.4799 15.8242C13.0305 15.8242 12.591 15.9023 12.1612 16.0586C11.7314 16.2149 11.3114 16.4005 10.9011 16.6154V16.6154ZM10.9011 20.1319L10.1978 18.5201C10.7057 18.2466 11.2379 18.022 11.7943 17.8462C12.3515 17.6703 12.9133 17.5824 13.4799 17.5824C13.9292 17.5824 14.3734 17.6359 14.8126 17.743C15.2525 17.8508 15.6777 17.9829 16.0879 18.1392C16.4396 18.2955 16.7963 18.4322 17.1581 18.5495C17.5191 18.6667 17.895 18.7253 18.2857 18.7253C18.735 18.7253 19.1746 18.6471 19.6044 18.4908C20.0342 18.3346 20.4542 18.149 20.8645 17.9341L21.5678 19.5458C21.0598 19.8193 20.5277 20.044 19.9713 20.2198C19.4141 20.3956 18.8523 20.4835 18.2857 20.4835C17.8364 20.4835 17.3921 20.4296 16.953 20.3218C16.513 20.2147 16.0879 20.083 15.6777 19.9267C15.326 19.7705 14.9693 19.6337 14.6075 19.5165C14.2464 19.3993 13.8706 19.3407 13.4799 19.3407C13.0305 19.3407 12.591 19.4188 12.1612 19.5751C11.7314 19.7314 11.3114 19.917 10.9011 20.1319V20.1319ZM10.9011 23.6483L10.1978 22.0366C10.7057 21.7631 11.2379 21.5385 11.7943 21.3626C12.3515 21.1868 12.9133 21.0989 13.4799 21.0989C13.9292 21.0989 14.3734 21.1524 14.8126 21.2595C15.2525 21.3673 15.6777 21.4994 16.0879 21.6557C16.4396 21.812 16.7963 21.9487 17.1581 22.0659C17.5191 22.1831 17.895 22.2418 18.2857 22.2418C18.735 22.2418 19.1746 22.1636 19.6044 22.0073C20.0342 21.851 20.4542 21.6654 20.8645 21.4505L21.5678 23.0623C21.0598 23.3358 20.5277 23.5604 19.9713 23.7363C19.4141 23.9121 18.8523 24 18.2857 24C17.8364 24 17.3921 23.9461 16.953 23.8382C16.513 23.7312 16.0879 23.5995 15.6777 23.4432C15.326 23.2869 14.9693 23.1502 14.6075 23.033C14.2464 22.9157 13.8706 22.8571 13.4799 22.8571C13.0305 22.8571 12.591 22.9353 12.1612 23.0916C11.7314 23.2479 11.3114 23.4335 10.9011 23.6483V23.6483Z"/></svg>
