<svg width="36" height="36" viewBox="0 0 36 36" fill="none" xmlns="http://www.w3.org/2000/svg">
<path d="M35.6499 14.4747H34.2V14.4H18V21.6H28.1727C26.6886 25.7913 22.7007 28.8 18 28.8C12.0357 28.8 7.2 23.9643 7.2 18C7.2 12.0357 12.0357 7.2 18 7.2C20.7531 7.2 23.2578 8.2386 25.1649 9.9351L30.2562 4.8438C27.0414 1.8477 22.7412 0 18 0C8.0595 0 0 8.0595 0 18C0 27.9405 8.0595 36 18 36C27.9405 36 36 27.9405 36 18C36 16.7931 35.8758 15.615 35.6499 14.4747Z" fill="#FFC107"/>
<path d="M2.07541 9.6219L7.98931 13.959C9.58951 9.9972 13.4649 7.2 18 7.2C20.7531 7.2 23.2578 8.2386 25.1649 9.9351L30.2562 4.8438C27.0414 1.8477 22.7412 0 18 0C11.0862 0 5.09041 3.9033 2.07541 9.6219Z" fill="#FF3D00"/>
<path d="M18 36C22.6494 36 26.874 34.2207 30.0681 31.3272L24.4971 26.613C22.6292 28.0336 20.3467 28.8019 18 28.8C13.3182 28.8 9.34289 25.8147 7.84529 21.6486L1.97549 26.1711C4.95449 32.0004 11.0043 36 18 36Z" fill="#4CAF50"/>
<path d="M35.6499 14.4747H34.2V14.4H18V21.6H28.1727C27.4628 23.5948 26.184 25.3379 24.4944 26.6139L24.4971 26.6121L30.0681 31.3263C29.6739 31.6845 36 27 36 18C36 16.7931 35.8758 15.615 35.6499 14.4747Z" fill="#1976D2"/>
</svg>
