<svg class="svgicon svgicon-logout" xmlns="http://www.w3.org/2000/svg" width="16" height="20" viewBox="0 0 16 20"><path d="M10 2C8.94943 2 7.90914 2.20693 6.93853 2.60896C5.96793 3.011 5.08601 3.60028 4.34315 4.34315C3.60028 5.08601 3.011 5.96793 2.60896 6.93853C2.20693 7.90914 2 8.94942 2 10C2 11.0506 2.20693 12.0909 2.60896 13.0615C3.011 14.0321 3.60028 14.914 4.34315 15.6569C5.08601 16.3997 5.96793 16.989 6.93853 17.391C7.90914 17.7931 8.94942 18 10 18C10.5523 18 11 18.4477 11 19C11 19.5523 10.5523 20 10 20C8.68678 20 7.38642 19.7413 6.17317 19.2388C4.95991 18.7362 3.85752 17.9997 2.92893 17.0711C2.00035 16.1425 1.26375 15.0401 0.761204 13.8268C0.258657 12.6136 0 11.3132 0 10C0 8.68678 0.258657 7.38642 0.761204 6.17317C1.26375 4.95991 2.00035 3.85752 2.92893 2.92893C3.85752 2.00035 4.95991 1.26375 6.17317 0.761205C7.38642 0.258658 8.68678 0 10 0C10.5523 0 11 0.447715 11 1C11 1.55228 10.5523 2 10 2ZM10.2929 6.70711C9.90237 6.31658 9.90237 5.68342 10.2929 5.29289C10.6834 4.90237 11.3166 4.90237 11.7071 5.29289L15.7064 9.29218C15.7088 9.29459 15.7112 9.29702 15.7136 9.29945C15.8063 9.3938 15.8764 9.50195 15.9241 9.61722C15.9727 9.73425 15.9996 9.8625 16 9.997L16 10L16 10.003C15.9996 10.1375 15.9727 10.2657 15.9241 10.3828C15.8746 10.5021 15.8027 10.6098 15.7136 10.7005C15.7112 10.703 15.7088 10.7054 15.7064 10.7078L11.7071 14.7071C11.3166 15.0976 10.6834 15.0976 10.2929 14.7071C9.90237 14.3166 9.90237 13.6834 10.2929 13.2929L12.5858 11H5C4.44772 11 4 10.5523 4 10C4 9.44771 4.44772 9 5 9H12.5858L10.2929 6.70711Z"/></svg>