<svg class="svgicon svgicon-competition" xmlns="http://www.w3.org/2000/svg" width="18" height="18" viewBox="0 0 18 18"><path d="M16.5 2.25H15V1.5C14.9996 1.1023 14.8414 0.720997 14.5602 0.439779C14.279 0.15856 13.8977 0.000397108 13.5 0H4.5C4.1023 0.000397108 3.721 0.15856 3.43978 0.439779C3.15856 0.720997 3.0004 1.1023 3 1.5V2.25H1.5C1.1023 2.2504 0.720997 2.40856 0.439779 2.68978C0.15856 2.971 0.000397108 3.3523 0 3.75V6C0.000992322 6.79534 0.317381 7.55783 0.879776 8.12022C1.44217 8.68262 2.20466 8.99901 3 9H3.2415C3.55403 10.148 4.19408 11.1802 5.08349 11.9705C5.9729 12.7609 7.07318 13.2751 8.25 13.4505V16.5H4.5V18H13.5V16.5H9.75V13.4482C10.9421 13.3009 12.0621 12.7976 12.9638 12.0041C13.8656 11.2106 14.5072 10.1637 14.805 9H15C15.7953 8.99901 16.5578 8.68262 17.1202 8.12022C17.6826 7.55783 17.999 6.79534 18 6V3.75C17.9996 3.3523 17.8414 2.971 17.5602 2.68978C17.279 2.40856 16.8977 2.2504 16.5 2.25V2.25ZM3 7.5C2.6023 7.4996 2.221 7.34144 1.93978 7.06022C1.65856 6.779 1.5004 6.3977 1.5 6V3.75H3V7.5ZM13.5 7.5C13.5 8.10268 13.3789 8.69922 13.144 9.25422C12.909 9.80922 12.565 10.3114 12.1322 10.7309C11.6995 11.1504 11.1869 11.4787 10.6249 11.6963C10.0629 11.9139 9.46289 12.0164 8.8605 11.9977C7.66634 11.9234 6.54679 11.3917 5.73466 10.513C4.92253 9.63441 4.48032 8.47656 4.5 7.28025V1.5H13.5V7.5ZM16.5 6C16.4996 6.3977 16.3414 6.779 16.0602 7.06022C15.779 7.34144 15.3977 7.4996 15 7.5V3.75H16.5V6Z"/></svg>
