<svg class="svgicon svgicon-video-player" xmlns="http://www.w3.org/2000/svg" width="20" height="17" viewBox="0 0 20 17"><path d="M17.745 0C18.3417 0 18.914 0.237053 19.336 0.65901C19.7579 1.08097 19.995 1.65326 19.995 2.25V13.755C19.995 14.3517 19.7579 14.924 19.336 15.346C18.914 15.7679 18.3417 16.005 17.745 16.005H2.25C1.95453 16.005 1.66194 15.9468 1.38896 15.8337C1.11598 15.7207 0.867942 15.5549 0.65901 15.346C0.450078 15.1371 0.284344 14.889 0.171271 14.616C0.058198 14.3431 0 14.0505 0 13.755V2.25C0 1.65326 0.237053 1.08097 0.65901 0.65901C1.08097 0.237053 1.65326 0 2.25 0H17.745V0ZM17.745 1.5H2.25C2.05109 1.5 1.86032 1.57902 1.71967 1.71967C1.57902 1.86032 1.5 2.05109 1.5 2.25V13.755C1.5 14.169 1.836 14.505 2.25 14.505L4.999 14.504L5 11.75C5.00002 11.3108 5.16517 10.8877 5.46268 10.5646C5.76019 10.2415 6.1683 10.0421 6.606 10.006L6.75 10H13.245C13.6843 10 14.1076 10.1653 14.4307 10.463C14.7538 10.7608 14.9531 11.1691 14.989 11.607L14.995 11.75L14.994 14.504H17.745C17.9439 14.504 18.1347 14.425 18.2753 14.2843C18.416 14.1437 18.495 13.9529 18.495 13.754V2.25C18.495 2.05109 18.416 1.86032 18.2753 1.71967C18.1347 1.57902 17.9439 1.5 17.745 1.5ZM13.245 11.5H6.75C6.69368 11.5001 6.63904 11.5192 6.59493 11.5542C6.55083 11.5893 6.51984 11.6382 6.507 11.693L6.5 11.75L6.499 14.504H13.494V11.75C13.494 11.6938 13.475 11.6393 13.4402 11.5952C13.4053 11.5511 13.3567 11.52 13.302 11.507L13.245 11.5V11.5ZM10 3C10.7956 3 11.5587 3.31607 12.1213 3.87868C12.6839 4.44129 13 5.20435 13 6C13 6.79565 12.6839 7.55871 12.1213 8.12132C11.5587 8.68393 10.7956 9 10 9C9.20435 9 8.44129 8.68393 7.87868 8.12132C7.31607 7.55871 7 6.79565 7 6C7 5.20435 7.31607 4.44129 7.87868 3.87868C8.44129 3.31607 9.20435 3 10 3V3ZM10 4.5C9.60218 4.5 9.22064 4.65804 8.93934 4.93934C8.65804 5.22064 8.5 5.60218 8.5 6C8.5 6.39782 8.65804 6.77936 8.93934 7.06066C9.22064 7.34196 9.60218 7.5 10 7.5C10.3978 7.5 10.7794 7.34196 11.0607 7.06066C11.342 6.77936 11.5 6.39782 11.5 6C11.5 5.60218 11.342 5.22064 11.0607 4.93934C10.7794 4.65804 10.3978 4.5 10 4.5Z"/></svg>