<svg class="svgicon svgicon-video" xmlns="http://www.w3.org/2000/svg" width="15" height="16" viewBox="0 0 15 16"><path d="M0 1.93259C0.000109177 1.59405 0.089118 1.26148 0.258122 0.968135C0.427125 0.674795 0.670198 0.430979 0.96302 0.261079C1.25584 0.0911799 1.58815 0.00115491 1.92669 1.10384e-05C2.26523 -0.00113284 2.59813 0.0866445 2.89209 0.254561L13.5093 6.321C13.805 6.49015 14.0508 6.73444 14.2217 7.02911C14.3926 7.32378 14.4826 7.65838 14.4826 7.99903C14.4826 8.33968 14.3926 8.67429 14.2217 8.96896C14.0508 9.26363 13.805 9.50791 13.5093 9.67707L2.89209 15.7454C2.59813 15.9134 2.26523 16.0011 1.92669 16C1.58815 15.9988 1.25584 15.9088 0.96302 15.7389C0.670198 15.569 0.427125 15.3252 0.258122 15.0319C0.089118 14.7385 0.000109177 14.4059 0 14.0674V1.93259ZM12.5505 7.99903L1.93322 1.93259V14.0674L12.5505 7.99903Z"/></svg>