<svg class="svgicon svgicon-report" xmlns="http://www.w3.org/2000/svg" width="23" height="24" viewBox="0 0 23 24"><path d="M1.00329 3.28992C1.64627 2.64694 2.51834 2.28571 3.42766 2.28571H5.71337C6.34455 2.28571 6.85623 2.79739 6.85623 3.42857C6.85623 4.05975 6.34455 4.57143 5.71337 4.57143H3.42766C3.12455 4.57143 2.83386 4.69184 2.61953 4.90616C2.40521 5.12049 2.2848 5.41118 2.2848 5.71429V19.4286C2.2848 19.7317 2.40521 20.0224 2.61953 20.2367C2.83386 20.451 3.12455 20.5714 3.42766 20.5714H9.93851C10.5697 20.5714 11.0814 21.0831 11.0814 21.7143C11.0814 22.3455 10.5697 22.8571 9.93851 22.8571H3.42766C2.51834 22.8571 1.64627 22.4959 1.00329 21.8529C0.360308 21.21 -0.000915527 20.3379 -0.000915527 19.4286V5.71429C-0.000915527 4.80497 0.360308 3.9329 1.00329 3.28992ZM11.4277 3.42857C11.4277 2.79739 11.9393 2.28571 12.5705 2.28571H14.8562C15.7655 2.28571 16.6376 2.64694 17.2806 3.28992C17.9236 3.9329 18.2848 4.80497 18.2848 5.71429V10.2857C18.2848 10.9169 17.7731 11.4286 17.1419 11.4286C16.5108 11.4286 15.9991 10.9169 15.9991 10.2857V5.71429C15.9991 5.41118 15.8787 5.12049 15.6643 4.90616C15.45 4.69184 15.1593 4.57143 14.8562 4.57143H12.5705C11.9393 4.57143 11.4277 4.05975 11.4277 3.42857ZM17.1419 12.5714C17.7731 12.5714 18.2848 13.0831 18.2848 13.7143V17.1429H21.7134C22.3446 17.1429 22.8562 17.6545 22.8562 18.2857C22.8562 18.9169 22.3446 19.4286 21.7134 19.4286H17.1419C16.5108 19.4286 15.9991 18.9169 15.9991 18.2857V13.7143C15.9991 13.0831 16.5108 12.5714 17.1419 12.5714Z"/><path d="M7.99908 2.28571C7.3679 2.28571 6.85623 2.79739 6.85623 3.42857C6.85623 4.05975 7.3679 4.57143 7.99908 4.57143H10.2848C10.916 4.57143 11.4277 4.05975 11.4277 3.42857C11.4277 2.79739 10.916 2.28571 10.2848 2.28571H7.99908ZM4.57051 3.42857C4.57051 1.53502 6.10554 0 7.99908 0H10.2848C12.1783 0 13.7134 1.53502 13.7134 3.42857C13.7134 5.32212 12.1783 6.85714 10.2848 6.85714H7.99908C6.10554 6.85714 4.57051 5.32212 4.57051 3.42857Z"/><path d="M17.1419 14.8571C15.2484 14.8571 13.7134 16.3922 13.7134 18.2857C13.7134 20.1793 15.2484 21.7143 17.1419 21.7143C19.0355 21.7143 20.5705 20.1793 20.5705 18.2857C20.5705 16.3922 19.0355 14.8571 17.1419 14.8571ZM11.4277 18.2857C11.4277 15.1298 13.986 12.5714 17.1419 12.5714C20.2979 12.5714 22.8562 15.1298 22.8562 18.2857C22.8562 21.4416 20.2979 24 17.1419 24C13.986 24 11.4277 21.4416 11.4277 18.2857Z"/><path d="M4.57051 10.2857C4.57051 9.65453 5.08219 9.14286 5.71337 9.14286H10.2848C10.916 9.14286 11.4277 9.65453 11.4277 10.2857C11.4277 10.9169 10.916 11.4286 10.2848 11.4286H5.71337C5.08219 11.4286 4.57051 10.9169 4.57051 10.2857ZM4.57051 14.8571C4.57051 14.226 5.08219 13.7143 5.71337 13.7143H9.14194C9.77312 13.7143 10.2848 14.226 10.2848 14.8571C10.2848 15.4883 9.77312 16 9.14194 16H5.71337C5.08219 16 4.57051 15.4883 4.57051 14.8571Z"/></svg> 