<svg class="svgicon svgicon-run-ball" xmlns="http://www.w3.org/2000/svg" width="25" height="24" viewBox="0 0 25 24"><path d="M22 24C23.6575 24 25 22.6575 25 21C25 19.3425 23.6575 18 22 18C20.3425 18 19 19.3425 19 21C19 22.6575 20.3425 24 22 24Z"/><path d="M16.186 4.46512C16.7782 4.46512 17.346 4.2299 17.7647 3.81122C18.1834 3.39253 18.4186 2.82467 18.4186 2.23256C18.4186 1.64045 18.1834 1.07259 17.7647 0.653901C17.346 0.235215 16.7782 0 16.186 0C15.5939 0 15.0261 0.235215 14.6074 0.653901C14.1887 1.07259 13.9535 1.64045 13.9535 2.23256C13.9535 2.82467 14.1887 3.39253 14.6074 3.81122C15.0261 4.2299 15.5939 4.46512 16.186 4.46512ZM12.1674 19.9814L13.2837 15.0698L15.6279 17.3023V24H17.8605V15.6279L15.5163 13.3953L16.186 10.0465C16.9508 10.923 17.8945 11.6256 18.9535 12.107C20.0125 12.5884 21.1623 12.8374 22.3256 12.8372V10.6047C20.3609 10.6381 18.5302 9.61116 17.5256 7.92558L16.4093 6.13953C16.0074 5.46977 15.293 5.02326 14.5116 5.02326C14.1767 5.02326 13.9535 5.13488 13.6186 5.13488L7.81395 7.5907V12.8372H10.0465V9.04186L12.0558 8.26046L10.2698 17.3023L4.8 16.186L4.35349 18.4186L12.1674 19.9814ZM2.23256 8.37209C1.9365 8.37209 1.65257 8.25449 1.44323 8.04514C1.23389 7.8358 1.11628 7.55187 1.11628 7.25581C1.11628 6.95976 1.23389 6.67583 1.44323 6.46649C1.65257 6.25714 1.9365 6.13953 2.23256 6.13953H5.5814V8.37209H2.23256ZM3.34884 3.90698C3.05278 3.90698 2.76885 3.78937 2.55951 3.58003C2.35017 3.37068 2.23256 3.08675 2.23256 2.7907C2.23256 2.49464 2.35017 2.21071 2.55951 2.00137C2.76885 1.79203 3.05278 1.67442 3.34884 1.67442H8.93023V3.90698H3.34884ZM1.11628 12.8372C0.820223 12.8372 0.536293 12.7196 0.32695 12.5103C0.117608 12.3009 0 12.017 0 11.7209C0 11.4249 0.117608 11.1409 0.32695 10.9316C0.536293 10.7223 0.820223 10.6047 1.11628 10.6047H5.5814V12.8372H1.11628Z"/></svg>
