<svg class="svgicon svgicon-send" xmlns="http://www.w3.org/2000/svg" width="19" height="18" viewBox="0 0 19 18"><path d="M17.6134 8.32921L1.11341 0.0792089C0.984092 0.0145339 0.838831 -0.0113799 0.695123 0.00458767C0.551414 0.0205553 0.415385 0.0777235 0.303414 0.169209C0.196482 0.258828 0.116669 0.376499 0.0729463 0.508992C0.0292236 0.641485 0.0233252 0.783547 0.0559143 0.919209L2.27591 8.99671L0.0259143 17.0517C-0.00466584 17.165 -0.00823548 17.2839 0.0154925 17.3988C0.0392205 17.5137 0.0895842 17.6215 0.162534 17.7134C0.235483 17.8053 0.328982 17.8788 0.435514 17.928C0.542046 17.9772 0.658638 18.0008 0.775914 17.9967C0.893321 17.996 1.00892 17.9677 1.11341 17.9142L17.6134 9.66421C17.7363 9.60127 17.8394 9.50565 17.9114 9.38788C17.9833 9.2701 18.0214 9.13474 18.0214 8.99671C18.0214 8.85867 17.9833 8.72332 17.9114 8.60554C17.8394 8.48777 17.7363 8.39215 17.6134 8.32921V8.32921ZM1.93841 15.8292L3.59591 9.74671H10.5259V8.24671H3.59591L1.93841 2.16421L15.5959 8.99671L1.93841 15.8292Z"/></svg>