<svg class="svgicon svgicon-stand-ball" xmlns="http://www.w3.org/2000/svg" width="20" height="24" viewBox="0 0 20 24"><path d="M17 24C18.6575 24 20 22.6575 20 21C20 19.3425 18.6575 18 17 18C15.3425 18 14 19.3425 14 21C14 22.6575 15.3425 24 17 24Z"/><path d="M9.14286 0C8.53665 0 7.95527 0.240816 7.52661 0.66947C7.09796 1.09812 6.85714 1.67951 6.85714 2.28571C6.85714 3.55429 7.87429 4.57143 9.14286 4.57143C10.4114 4.57143 11.4286 3.55429 11.4286 2.28571C11.4286 1.67951 11.1878 1.09812 10.7591 0.66947C10.3304 0.240816 9.74907 0 9.14286 0ZM6.85714 5.71429C6.54857 5.71429 6.28571 5.84 6.06857 6.03429H6.05714L0 12.1029L1.62286 13.7143L5.71429 9.61143V24H8V16H10.2857V24H12.5714V9.61143L16.6629 13.7143L18.2857 12.1029L12.2286 6.03429C12 5.84 11.7371 5.71429 11.4286 5.71429"/></svg>
