<svg class="svgicon svgicon-star-filled" xmlns="http://www.w3.org/2000/svg" width="34" height="32" viewBox="0 0 34 32"><path d="M32.2537 14.3477C32.6254 14.0708 32.9011 13.6845 33.0422 13.2431C33.1832 12.8016 33.1826 12.327 33.0403 11.886C32.8981 11.4449 32.6214 11.0594 32.249 10.7835C31.8765 10.5076 31.4271 10.3552 30.9637 10.3477L21.9637 10.0077C21.9195 10.0046 21.8771 9.98881 21.8416 9.9622C21.8061 9.93558 21.7791 9.89928 21.7637 9.85765L18.6537 1.45765C18.4975 1.03029 18.2137 0.661269 17.8408 0.400548C17.4678 0.139826 17.0238 0 16.5687 0C16.1137 0 15.6697 0.139826 15.2967 0.400548C14.9238 0.661269 14.64 1.03029 14.4837 1.45765L11.3837 9.88765C11.3684 9.92928 11.3414 9.96558 11.3059 9.9922C11.2704 10.0188 11.228 10.0346 11.1837 10.0377L2.18375 10.3777C1.72035 10.3852 1.27095 10.5376 0.898541 10.8135C0.526136 11.0894 0.249407 11.4749 0.107157 11.916C-0.035093 12.357 -0.0357313 12.8316 0.105332 13.2731C0.246395 13.7145 0.522086 14.1008 0.893747 14.3777L7.95375 19.9277C7.98908 19.9555 8.01549 19.993 8.02971 20.0357C8.04393 20.0783 8.04533 20.1242 8.03375 20.1677L5.60375 28.7777C5.47783 29.2161 5.49002 29.6827 5.63869 30.1139C5.78735 30.5452 6.06525 30.9202 6.4346 31.1879C6.80394 31.4556 7.24679 31.6031 7.7029 31.6102C8.15901 31.6173 8.60624 31.4837 8.98375 31.2277L16.4437 26.2277C16.4805 26.2023 16.5241 26.1887 16.5687 26.1887C16.6134 26.1887 16.657 26.2023 16.6937 26.2277L24.1537 31.2277C24.5261 31.4925 24.9718 31.6348 25.4287 31.6348C25.8857 31.6348 26.3313 31.4925 26.7037 31.2277C27.0732 30.9625 27.3514 30.5893 27.5 30.1595C27.6486 29.7297 27.6604 29.2644 27.5337 28.8277L25.0837 20.1877C25.0708 20.1443 25.0715 20.098 25.0858 20.055C25.1001 20.0121 25.1273 19.9746 25.1637 19.9477L32.2537 14.3477Z"/></svg>