<svg class="svgicon svgicon-star-outline" xmlns="http://www.w3.org/2000/svg" width="34" height="32" viewBox="0 0 34 32"><path d="M25.3737 31.5977C24.9318 31.5972 24.5 31.4649 24.1337 31.2177L16.6737 26.2177C16.637 26.1923 16.5934 26.1787 16.5487 26.1787C16.5041 26.1787 16.4605 26.1923 16.4237 26.2177L8.96375 31.2177C8.58914 31.4678 8.14731 31.598 7.69692 31.5911C7.24653 31.5842 6.8089 31.4405 6.44215 31.179C6.07539 30.9175 5.79686 30.5506 5.64354 30.127C5.49022 29.7035 5.46936 29.2433 5.58375 28.8077L8.03375 20.1677C8.04533 20.1242 8.04393 20.0783 8.02971 20.0357C8.01549 19.993 7.98908 19.9555 7.95375 19.9277L0.893747 14.3777C0.522086 14.1008 0.246395 13.7145 0.105332 13.2731C-0.0357313 12.8316 -0.035093 12.357 0.107157 11.916C0.249407 11.4749 0.526136 11.0894 0.898541 10.8135C1.27095 10.5376 1.72035 10.3852 2.18375 10.3777L11.1837 10.0377C11.228 10.0346 11.2704 10.0188 11.3059 9.9922C11.3414 9.96558 11.3684 9.92928 11.3837 9.88765L14.4837 1.45765C14.64 1.03029 14.9238 0.661269 15.2967 0.400548C15.6697 0.139826 16.1137 0 16.5687 0C17.0238 0 17.4678 0.139826 17.8408 0.400548C18.2137 0.661269 18.4975 1.03029 18.6537 1.45765L21.7537 9.88765C21.7691 9.92928 21.7961 9.96558 21.8316 9.9922C21.8671 10.0188 21.9095 10.0346 21.9537 10.0377L30.9537 10.3777C31.4171 10.3852 31.8665 10.5376 32.239 10.8135C32.6114 11.0894 32.8881 11.4749 33.0303 11.916C33.1726 12.357 33.1732 12.8316 33.0322 13.2731C32.8911 13.7145 32.6154 14.1008 32.2437 14.3777L25.1837 19.9277C25.1473 19.9546 25.1201 19.9921 25.1058 20.035C25.0915 20.078 25.0908 20.1243 25.1037 20.1677L27.5537 28.8077C27.6397 29.1391 27.6483 29.4858 27.5787 29.821C27.5091 30.1563 27.3632 30.471 27.1524 30.7408C26.9416 31.0106 26.6715 31.2282 26.3631 31.3768C26.0546 31.5254 25.7161 31.601 25.3737 31.5977V31.5977ZM16.5537 24.1777C16.9966 24.1912 17.4251 24.3375 17.7837 24.5977L25.2437 29.5977C25.2816 29.6264 25.3276 29.6421 25.3751 29.6425C25.4226 29.6429 25.4689 29.6279 25.5072 29.5997C25.5455 29.5716 25.5736 29.5319 25.5874 29.4864C25.6012 29.441 25.5999 29.3923 25.5837 29.3477L23.1337 20.7077C23.0132 20.2838 23.0221 19.8336 23.1593 19.4149C23.2965 18.9961 23.5557 18.628 23.9037 18.3577L30.9637 12.8077C31.0023 12.7806 31.0311 12.7419 31.046 12.6973C31.0609 12.6526 31.0611 12.6044 31.0465 12.5596C31.032 12.5149 31.0035 12.476 30.9652 12.4486C30.9269 12.4212 30.8808 12.4069 30.8337 12.4077L21.8337 12.0677C21.3931 12.0505 20.9675 11.9024 20.6113 11.6424C20.2551 11.3824 19.9844 11.0221 19.8337 10.6077L16.7337 2.17765C16.7198 2.13289 16.6919 2.09377 16.6541 2.06599C16.6163 2.03821 16.5706 2.02323 16.5237 2.02323C16.4769 2.02323 16.4312 2.03821 16.3934 2.06599C16.3556 2.09377 16.3277 2.13289 16.3137 2.17765L13.2437 10.5977C13.0931 11.0121 12.8224 11.3724 12.4662 11.6324C12.11 11.8924 11.6844 12.0405 11.2437 12.0577L2.24375 12.3977C2.19669 12.3969 2.15063 12.4112 2.11233 12.4386C2.07403 12.466 2.04552 12.5049 2.03097 12.5496C2.01642 12.5944 2.01661 12.6426 2.03151 12.6873C2.04641 12.7319 2.07523 12.7706 2.11375 12.7977L9.18375 18.3577C9.53069 18.6288 9.78915 18.9971 9.92626 19.4155C10.0634 19.834 10.0729 20.2837 9.95375 20.7077L7.51375 29.3477C7.49919 29.3909 7.49912 29.4377 7.51355 29.4811C7.52799 29.5244 7.55614 29.5618 7.59375 29.5877C7.62997 29.6186 7.67608 29.6357 7.72375 29.6357C7.77142 29.6357 7.81752 29.6186 7.85375 29.5877L15.3137 24.5877C15.6783 24.3458 16.1062 24.2171 16.5437 24.2177L16.5537 24.1777Z"/></svg>
