<svg class="svgicon svgicon-run-walk" xmlns="http://www.w3.org/2000/svg" width="21" height="24" viewBox="0 0 21 24"><path d="M18 24C19.6575 24 21 22.6575 21 21C21 19.3425 19.6575 18 18 18C16.3425 18 15 19.3425 15 21C15 22.6575 16.3425 24 18 24Z"/><path d="M11.8437 4.46512C13.0605 4.46512 14.0763 3.43814 14.0763 2.23256C14.0763 1.64045 13.8411 1.07259 13.4224 0.653901C13.0037 0.235215 12.4358 0 11.8437 0C10.6047 0 9.61116 0.982326 9.61116 2.23256C9.61116 3.43814 10.6047 4.46512 11.8437 4.46512ZM7.81395 19.9591L8.93023 15.0698L11.2856 17.3023V24H13.5181V15.6279L11.1628 13.3953L11.8437 10.0465C12.6081 10.9235 13.5517 11.6264 14.6108 12.1078C15.6699 12.5892 16.8199 12.8379 17.9833 12.8372V10.6047C15.8512 10.6047 14.0763 9.48837 13.1721 7.90326L12.0558 6.13953C11.6093 5.44744 10.9395 5.02326 10.1693 5.02326C9.82326 5.02326 9.61116 5.11256 9.26512 5.11256L3.47163 7.56837V12.8372H5.70419V9.01954L7.70233 8.23814L5.91628 17.3023L0.446511 16.186L0 18.4186L7.81395 19.9591Z"/></svg>
