<svg class="svgicon svgicon-weather-heavyrain" xmlns="http://www.w3.org/2000/svg" width="22" height="20" viewBox="0 0 22 20"><path d="M8.00001 10C8.53001 10.14 8.85001 10.69 8.71001 11.22L7.41001 16.05C7.27001 16.59 6.72001 16.9 6.19001 16.76C6.06285 16.7281 5.94349 16.6708 5.83918 16.5913C5.73488 16.5119 5.64782 16.4121 5.58328 16.298C5.51874 16.1839 5.47808 16.0579 5.46377 15.9276C5.44945 15.7973 5.46179 15.6654 5.50001 15.54L6.78001 10.71C6.92001 10.17 7.47001 9.86 8.00001 10M12 10C12.53 10.14 12.85 10.69 12.71 11.22L10.64 18.95C10.5 19.5 9.95001 19.8 9.41001 19.66C8.88001 19.5 8.56001 18.97 8.70001 18.43L10.78 10.71C10.92 10.17 11.47 9.86 12 10ZM16 10C16.53 10.14 16.85 10.69 16.71 11.22L15.41 16.05C15.27 16.59 14.72 16.9 14.19 16.76C14.0628 16.7281 13.9435 16.6708 13.8392 16.5913C13.7349 16.5119 13.6478 16.4121 13.5833 16.298C13.5187 16.1839 13.4781 16.0579 13.4638 15.9276C13.4495 15.7973 13.4618 15.6654 13.5 15.54L14.78 10.71C14.92 10.17 15.47 9.86 16 10M16 8V7C16 5.67392 15.4732 4.40215 14.5355 3.46447C13.5979 2.52678 12.3261 2 11 2C8.50001 2 6.45001 3.82 6.06001 6.19C5.73001 6.07 5.37001 6 5.00001 6C4.20436 6 3.4413 6.31607 2.87869 6.87868C2.31608 7.44129 2.00001 8.20435 2.00001 9C2.00001 10.11 2.60001 11.08 3.50001 11.6V11.59C4.00001 11.87 4.14001 12.5 3.87001 12.96C3.59001 13.43 3.00001 13.6 2.50001 13.32V13.33C1.73857 12.8927 1.10627 12.2619 0.667225 11.5015C0.228181 10.7411 -0.00200184 9.87807 1.31159e-05 9C1.31159e-05 7.67392 0.526797 6.40215 1.46448 5.46447C2.40216 4.52678 3.67393 4 5.00001 4C6.00001 1.65 8.30001 0 11 0C14.43 0 17.24 2.66 17.5 6.03L18 6C19.0609 6 20.0783 6.42143 20.8284 7.17157C21.5786 7.92172 22 8.93913 22 10C22 11.5 21.2 12.77 20 13.46C19.5 13.73 18.91 13.57 18.63 13.09C18.36 12.61 18.5 12 19 11.72V11.73C19.6 11.39 20 10.74 20 10C20 9.46957 19.7893 8.96086 19.4142 8.58579C19.0392 8.21071 18.5304 8 18 8H16V8Z"/></svg>
