<svg class="svgicon svgicon-weather-hot" xmlns="http://www.w3.org/2000/svg" width="18" height="20" viewBox="0 0 18 20"><path d="M8.66 5C9.98608 5 11.2579 5.52678 12.1955 6.46447C13.1332 7.40215 13.66 8.67392 13.66 10C13.66 11.3261 13.1332 12.5979 12.1955 13.5355C11.2579 14.4732 9.98608 15 8.66 15C7.33392 15 6.06215 14.4732 5.12447 13.5355C4.18678 12.5979 3.66 11.3261 3.66 10C3.66 8.67392 4.18678 7.40215 5.12447 6.46447C6.06215 5.52678 7.33392 5 8.66 5M8.66 7C7.86435 7 7.10129 7.31607 6.53868 7.87868C5.97607 8.44129 5.66 9.20435 5.66 10C5.66 10.7956 5.97607 11.5587 6.53868 12.1213C7.10129 12.6839 7.86435 13 8.66 13C9.45565 13 10.2187 12.6839 10.7813 12.1213C11.3439 11.5587 11.66 10.7956 11.66 10C11.66 9.20435 11.3439 8.44129 10.7813 7.87868C10.2187 7.31607 9.45565 7 8.66 7ZM8.66 0L11.05 3.42C10.31 3.15 9.5 3 8.66 3C7.82 3 7.01 3.15 6.27 3.42L8.66 0ZM0 5L4.16 4.65C3.53935 5.17424 3.0119 5.79974 2.6 6.5C2.16 7.24 1.91 8 1.77 8.79L0 5ZM0.02 15L1.78 11.23C2.07396 12.8425 2.91445 14.3045 4.16 15.37L0.02 15ZM17.31 5L15.54 8.79C15.2568 7.17076 14.4146 5.70217 13.16 4.64L17.31 5M17.3 15L13.16 15.36C13.75 14.85 14.28 14.22 14.7 13.5C15.12 12.77 15.39 12 15.53 11.21L17.3 15M8.66 20L6.25 16.56C6.99 16.83 7.8 17 8.66 17C9.48 17 10.29 16.83 11.03 16.56L8.66 20Z"/></svg>
