<svg class="svgicon svgicon-weather-bright" xmlns="http://www.w3.org/2000/svg" width="21" height="21" viewBox="0 0 21 21"><path d="M11.68 3.65C14.04 4.68 15.29 7.21 14.86 9.64C15.5123 10.2031 16.0357 10.9 16.3946 11.6834C16.7535 12.4668 16.9395 13.3183 16.94 14.18V14.35C17.2613 14.237 17.5994 14.1795 17.94 14.18C18.7357 14.18 19.4987 14.4961 20.0613 15.0587C20.6239 15.6213 20.94 16.3844 20.94 17.18C20.94 17.9756 20.6239 18.7387 20.0613 19.3013C19.4987 19.8639 18.7357 20.18 17.94 20.18H4.94C3.87913 20.18 2.86172 19.7586 2.11157 19.0084C1.36143 18.2583 0.94 17.2409 0.94 16.18C0.94 15.1191 1.36143 14.1017 2.11157 13.3516C2.86172 12.6014 3.87913 12.18 4.94 12.18H5.21C3.94 10.63 3.54 8.42 4.44 6.44C5.03085 5.11059 6.12521 4.07005 7.4827 3.54693C8.8402 3.02381 10.3498 3.06088 11.68 3.65M10.87 5.48C9.1 4.68 7.03 5.49 6.25 7.25C5.79 8.27 5.87 9.4 6.35 10.31C6.91322 9.64144 7.616 9.10431 8.40895 8.73634C9.20191 8.36836 10.0658 8.17847 10.94 8.18C11.64 8.18 12.32 8.3 12.94 8.52C12.9104 7.87129 12.7011 7.24355 12.3356 6.70678C11.9701 6.17001 11.4627 5.7453 10.87 5.48M12.49 1.82C11.94 1.58 11.39 1.41 10.82 1.3L13.31 0L14.21 2.89C13.6865 2.45886 13.1081 2.09906 12.49 1.82M5.03 2.62C4.54 2.97 4.11 3.37 3.74 3.81L3.85 1L6.81 1.68C6.19 1.89 5.59 2.21 5.03 2.62ZM16.94 7.89C16.85 7.3 16.72 6.73 16.53 6.18L18.91 7.68L16.86 9.91C16.97 9.26 16.99 8.58 16.94 7.89M1.98 9.48C2.05 10.08 2.18 10.65 2.37 11.18L0 9.68L2.04 7.46C1.94 8.11 1.91 8.79 1.98 9.48M17.94 16.18H14.94V14.18C14.94 13.1191 14.5186 12.1017 13.7684 11.3516C13.0183 10.6014 12.0009 10.18 10.94 10.18C9.87913 10.18 8.86172 10.6014 8.11157 11.3516C7.36143 12.1017 6.94 13.1191 6.94 14.18H4.94C4.40957 14.18 3.90086 14.3907 3.52579 14.7658C3.15071 15.1409 2.94 15.6496 2.94 16.18C2.94 16.7104 3.15071 17.2191 3.52579 17.5942C3.90086 17.9693 4.40957 18.18 4.94 18.18H17.94C18.2052 18.18 18.4596 18.0746 18.6471 17.8871C18.8346 17.6996 18.94 17.4452 18.94 17.18C18.94 16.9148 18.8346 16.6604 18.6471 16.4729C18.4596 16.2854 18.2052 16.18 17.94 16.18Z"/></svg>
