<svg class="svgicon svgicon-weather-rain" xmlns="http://www.w3.org/2000/svg" width="22" height="20" viewBox="0 0 22 20"><path d="M5 12C5.26522 12 5.51957 12.1054 5.70711 12.2929C5.89464 12.4804 6 12.7348 6 13C6 13.55 5.55 14 5 14C2.24 14 0 11.76 0 9C0 6.24 2.24 4 5 4C6 1.65 8.3 0 11 0C14.43 0 17.24 2.66 17.5 6.03L18 6C19.0609 6 20.0783 6.42143 20.8284 7.17157C21.5786 7.92172 22 8.93913 22 10C22 12.2 20.21 14 18 14H17C16.45 14 16 13.55 16 13C16 12.44 16.45 12 17 12H18C18.5304 12 19.0391 11.7893 19.4142 11.4142C19.7893 11.0391 20 10.5304 20 10C20 9.46957 19.7893 8.96086 19.4142 8.58579C19.0391 8.21071 18.5304 8 18 8H16V7C16 4.24 13.76 2 11 2C8.5 2 6.45 3.81 6.06 6.18C5.73 6.06 5.37 6 5 6C4.20435 6 3.44129 6.31607 2.87868 6.87868C2.31607 7.44129 2 8.20435 2 9C2 9.79565 2.31607 10.5587 2.87868 11.1213C3.44129 11.6839 4.20435 12 5 12M11 12.12C11.18 12.36 11.37 12.63 11.56 12.91C12 13.53 13 15 13 15.97C13 16.5004 12.7893 17.0091 12.4142 17.3842C12.0391 17.7593 11.5304 17.97 11 17.97C10.4696 17.97 9.96086 17.7593 9.58579 17.3842C9.21071 17.0091 9 16.5004 9 15.97C9 15 10 13.53 10.44 12.91C10.63 12.63 10.82 12.37 11 12.12M11 9L10.5 9.56C10.5 9.56 9.65 10.52 8.79 11.78C7.93 13.03 7 14.53 7 15.97C7 17.0309 7.42143 18.0483 8.17157 18.7984C8.92172 19.5486 9.93913 19.97 11 19.97C12.0609 19.97 13.0783 19.5486 13.8284 18.7984C14.5786 18.0483 15 17.0309 15 15.97C15 14.53 14.07 13.03 13.21 11.78C12.35 10.52 11.5 9.56 11.5 9.56"/></svg>
