<?xml version="1.0" encoding="utf-8"?>
<!-- Generator: Adobe Illustrator 25.0.0, SVG Export Plug-In . SVG Version: 6.00 Build 0)  -->
<svg version="1.1" id="Layer_1" xmlns="http://www.w3.org/2000/svg" xmlns:xlink="http://www.w3.org/1999/xlink" x="0px" y="0px"
	 viewBox="0 0 174.9 360" style="enable-background:new 0 0 174.9 360;" xml:space="preserve">
<style type="text/css">
	.st0{fill:#FFFFFF;}
</style>
<path class="st0" d="M52.1,226.3c-1.2-0.2-2.3,0.3-3.1,1.2c-2,2.3-3,5.4-2.7,8.4c0,0.7,0.2,1.4,0.4,2.1c0.4,1.1,1.2,1.9,2.3,2.3
	c1.2,0,2.3-0.5,3-1.5c2.2-2.9,3-6.7,2-10.3C53.9,227.4,53.1,226.6,52.1,226.3 M123.5,257.5c0.5-2,0.2-4.1-0.7-6
	c-0.8-1.5-2.2-2.6-3.9-3l-1.8-0.4c-1.6-0.3-4-0.8-7.6-1.7c-4.8-1.2-9,1-11.3,6c2.4,0.7,4.7,1.3,7,1.9c0.2-1,0.4-2,0.4-3
	c0-0.7,0.7-1.3,1.4-1.3c0.8,0,1.4,0.6,1.4,1.4v0.1c-0.1,1.2-0.3,2.3-0.5,3.5c0.4,0.1,0.9,0.2,1.3,0.3c0.5,0.1,0.9,0.2,1.3,0.3
	c0.4-2,0.6-3.6,0.7-3.6c0.1-0.7,0.7-1.2,1.4-1.2c0.8,0,1.4,0.6,1.4,1.4v0.2c0,0.1-0.3,1.8-0.7,3.8c0.9,0.2,1.8,0.3,2.6,0.5
	c0.2-1,0.3-2,0.4-3c0-0.7,0.6-1.3,1.4-1.3s1.4,0.6,1.4,1.4v0.1c-0.1,1.1-0.2,2.2-0.4,3.3C120.6,257.3,122.2,257.4,123.5,257.5
	 M97.8,260.8c0.9,1.9,2.4,3.4,4.4,4.2c3.5,1,7.1,1.7,10.7,2.1c4.4,0.5,7.8-2,9.8-6.9c-1.5-0.1-3.1-0.3-4.7-0.5c-0.3,1-0.7,2-1.2,2.9
	c-0.2,0.4-0.7,0.7-1.2,0.7c-0.8,0-1.4-0.6-1.4-1.4c0-0.2,0.1-0.5,0.2-0.7c0.3-0.6,0.6-1.3,0.8-1.9c-0.9-0.1-1.7-0.3-2.6-0.5
	c-0.2,1-0.6,2.1-1,3.1c-0.2,0.5-0.7,0.8-1.3,0.8c-0.8,0-1.4-0.6-1.4-1.4c0-0.2,0-0.4,0.1-0.6c0.3-0.8,0.6-1.7,0.8-2.5
	c-0.4-0.1-0.9-0.2-1.3-0.3c-0.5-0.1-0.9-0.2-1.4-0.3c-0.3,0.8-0.6,1.7-0.9,2.5c-0.2,0.5-0.7,0.8-1.3,0.8c-0.8,0-1.4-0.6-1.4-1.4
	c0-0.2,0-0.4,0.1-0.5c0.3-0.7,0.5-1.4,0.8-2.1c-2.3-0.6-4.7-1.3-7.2-2C96.8,256.9,97,259,97.8,260.8 M128.7,225.5
	c-2.1-5.5-9.1-9.4-18.4-11.5c-17.1-3.9-39.6,2.5-53.8,14.5c0.5,2.4,0.4,4.9-0.4,7.2c12.6,6.5,25.8,11.8,39.4,15.8
	c3.3-7.6,9.7-9.1,14.7-7.9c3.6,0.9,5.8,1.4,7.5,1.7l1.8,0.4c2.4,0.6,4.5,2.1,5.7,4.3s1.6,4.8,1.1,7.4c1,0.1,1.9-0.2,2.8-0.6
	C132.7,246.7,132.5,235.6,128.7,225.5 M112.6,269.9c-3.8-0.4-7.6-1.2-11.3-2.2c-2.7-1-4.8-3-6-5.6c-0.6-1.4-1-2.8-1-4.3
	c0-1.2,0.1-2.3,0.4-3.5c-13.6-4.1-26.9-9.4-39.6-15.9c-0.4,0.7-0.8,1.3-1.3,1.9c-0.7,0.9-1.6,1.5-2.6,2c1,8.8,4,17.2,8.8,24.6
	c6.4,9.8,15,16.6,24.4,18.7c3.3,0.8,7.7,1.7,11.5,0.8c14.2-3.2,26.1-12.9,31.9-26.3c-0.7,0.1-1.5,0.2-2.2,0.2
	C122.3,269.9,115.4,270.2,112.6,269.9 M45.7,229.3c0.4-1,1-2,1.8-2.9c0.5-0.6,1.1-1.2,1.8-1.6c1.5-7.6,5.1-14.6,10.4-20.3
	c-7.8,5.5-13.7,13.4-16.8,22.4C43.7,227.9,44.7,228.6,45.7,229.3 M44.8,232c-1-0.7-1.9-1.4-2.8-2.2c-1.2,4.5-1.7,9.2-1.5,13.8
	c0,1,0.1,1.9,0.2,2.9c0.8-3.1,2.2-6.1,4-8.8C44.3,235.8,44.4,233.9,44.8,232 M48.5,242.4c-1-0.3-1.9-0.9-2.5-1.8
	c-3.4,5.2-4.8,9.9-3.6,14.1c5.3,17.8,21,30.7,39.5,32.4C64,281.8,50.8,263.2,48.5,242.4 M70.4,26.4c0-2.3-0.2-4.6-0.8-6.9
	s4.1-0.2,4.1-5.2c0-4.1-2.7-6.9-3.5-6.9c-0.6,0-0.7,0.6-2,0.6c-3.1,0-3.4-4-3.4-4h1.4c9,0,17.3,2.7,17.3,22.4
	c-0.1,6.5-0.5,13-1.3,19.5c-0.7,5.3-1,10.7-1,16s-15.6-1.8-15.6-13.6C65.7,40.7,70.4,38.8,70.4,26.4 M95.3,156.6
	c0,15.4-6.6,28-10.4,31.8c-11.8,11.8-21.5,3.2-21.6,15c-5.3,4.8-9.2,12.2-11.1,20.6h0.3c1.1,0.2,2.1,0.9,2.8,1.8
	c15-12.2,38-18.6,55.6-14.6c5.1,1,9.9,3.2,13.9,6.5c-5.4-8.8-13.7-15.5-23.5-19c-2.3-0.8-6.4-1.8-6.4-9.3c0-14,15.4-3.1,25.5-18.4
	c0.5-0.8-0.2-1.4-0.8-0.8c-3.1,3.1-10.6,5.2-14.6,5.2c-1.9,0.1-3.8-0.2-5.5-0.9c2.5-4.8,5.3-9.4,8.4-13.9
	c-9.4-9.4,6.4-61.1,48.3-61.1c0.1-9.5-0.8-19-2.8-28.3c-1,0.2-8.9,2.1-9.2,0.4c-0.3-1.5,5.8-4.7,7.9-5.7c-0.9-3.7-2.3-7.2-4.1-10.5
	c-35.9,11.3-28.7,41-37.4,41c-5.7,0-10.2-4.4-11.8-6C77.5,69,87.5,54.8,87.5,26.4C87.5,7.2,80.1,0,66.3,0S47.6,6,47.6,6
	s18.9,0.6,18.9,20.4c0,20.7-23.3,26.5-23.3,52.7C43.1,122.9,95.3,122.1,95.3,156.6 M16.3,281.7c3.5,2.3,7.2,4.4,7.2,4.4l-1.3,3.4
	c-0.5-2-2.5-3.1-5.1-4.8L8.5,297c-1.4,1.8-2.5,3.9-3.2,6c-0.8,2.2-1.4-0.9-2.7-1.8c-1.3-1-2.6-1.9-2.6-1.9c1.3-0.3,3.5-3.6,4.8-5.3
	l8.3-11.9c-3.1-2.4-4.3-2.9-6.5-3l3-2.2C9.5,276.8,12.4,279.1,16.3,281.7 M31.6,291.8c-3.8-1.8-6.8,2.5-9,7.2s-3.7,9.8,0.1,11.6
	c3.8,1.8,6.8-2.5,9-7.2C33.9,298.6,35.4,293.6,31.6,291.8 M21.8,312.3c-5.9-2.8-6.7-9.4-3.8-15.5s8.5-9.6,14.4-6.8s6.7,9.3,3.8,15.5
	C33.3,311.6,27.7,315.1,21.8,312.3 M48.3,296.3c4,1.1,7.3,1.9,7.3,1.9l-0.3,3.6c-1.1-1.5-1.6-1.9-5-2.8l-4.1,14
	c-0.3,1.3-2,6.1-1.5,7c0,0-1.2-0.2-3-0.8c-2.1-0.6-3.1-1-3.1-1c1.1-0.7,2.4-4.8,2.9-6.5l4.2-14c-3.5-1.2-4.4-1.3-6.1-0.5l2.1-3.1
	C41.6,294.1,43.9,295.1,48.3,296.3 M64.8,300c4,0.6,7.7,0.9,7.7,0.9l0.1,3.6c-1.5-1.3-2-1.7-5.9-2.2l-2.3,14.3
	c-0.2,1.3-1,6.3-0.3,7.1c0,0-1.4-0.1-3.3-0.4c-1.9-0.3-3.1-0.5-3.1-0.5c0.9-0.7,1.7-5.4,1.8-6.8l2.3-14.5c-3.4-0.7-4.1-0.4-5.7,0.5
	l1.5-3.4C57.8,298.7,60.9,299.4,64.8,300 M79.5,313.7l-0.3,9.6c5,0.1,8.5-0.3,10-2.4l-0.8,4.4c0,0-2.8,0.1-6.9,0
	c-4.5-0.1-8-0.4-8-0.4c0.7-0.7,0.9-5.4,0.9-6.8l0.4-9.4c0-2.5,0.2-6.6-0.6-7.4c3.7,0.3,3.2,0.2,6.5,0.4c4.4,0.2,6.9,0,6.9,0l0.6,3.6
	c-1.7-1.4-4.3-1.6-8.5-1.6l-0.2,8.1H86c0.6,0,0.6,0.3,0.6,1c0,0.6,0,1-0.6,1L79.5,313.7L79.5,313.7z M107.7,316.6
	c0.4,3.5,0.7,6,1.5,6.5c-0.4,0.5-1,0.9-1.7,0.9c-1,0.1-1.9-0.4-2.5-1.2l-11.4-13.1L94,318c0.1,1.3,0.3,6.3,1.1,7l-3.8,0.2
	c0.7-0.8,0.5-5.6,0.3-6.9l-0.5-9.4c-0.1-1.3-0.4-6.5-1.2-7.2l3.5-0.1l11.7,13.9l-1-8c-0.1-1.3-0.9-6.1-1.6-6.8c0,0,0.4,0,1.8-0.2
	s1.9-0.3,1.9-0.3c-0.7,0.8,0.1,5.7,0.2,7L107.7,316.6L107.7,316.6z M129.2,311.6c0.4,1.6,1.2,5.8,2.4,6.6c0,0-1.8,0.5-2.9,0.9
	c-1,0.3-3.2,0.9-3.2,0.9c0.5-0.9-0.6-5.9-0.9-7.2l-1.1-4.4l-7.3,1.8l0.8,4.4c0.2,1.4,1,6.3,2,6.9c0,0-1,0.2-3.1,0.6
	c-1.8,0.4-3,0.6-3,0.6c0.5-0.9-0.2-5.4-0.4-6.8l-1.8-9.4c-0.3-1.8-1.1-6.2-2.1-6.7c0,0,0.9-0.2,3-0.6s3.1-0.7,3.1-0.7
	c-0.5,1.1,0.4,5.3,0.6,6.8l0.6,3l7.2-1.7l-0.8-3c-0.4-1.6-1.3-5.5-2.3-6.2c0,0,1-0.3,3-0.8s2.9-0.9,2.9-0.9
	c-0.4,1.1,0.7,4.8,1.2,6.8L129.2,311.6L129.2,311.6z M141.2,304.5l-6.3-8.7l0.4,11L141.2,304.5L141.2,304.5z M142.5,306l-7.1,2.8
	l0.2,3.9c0,1.1,0.2,2.2,0.5,3.2c0.1,0.3,0.3,0.5,0.6,0.7s-0.7,0.3-2,0.7c-1.2,0.4-1.9,0.6-1.9,0.6c0.4-0.9,0.6-2,0.5-3l-0.6-18.5
	c0-0.6-0.2-1.2-0.4-1.8c-0.2-0.4-0.4-0.7-0.8-0.9c0.9-0.6,1.9-1.1,2.8-1.5c1.6-0.7,2.3-0.7,3.5,0.7l10.4,12.9
	c1.9,2.5,3.6,4.1,4.7,4.5c0,0-1.1,0.5-3.1,1.4s-3.3,1.4-3.3,1.4c0.1-0.5,0.1-1-0.1-1.5c-0.6-1-1.2-2-2-2.9L142.5,306L142.5,306z
	 M172.2,299.3c-1.4,1-2.5,1.7-2.5,1.7c-0.1-1.4-2.8-4.9-3.6-5.9l-6.1-8l4.9,15.7c-0.2,0.4-0.5,0.7-0.9,1c-0.8,0.7-2,0.6-2.8-0.1
	l-11.6-9.7l4.1,7.5c1,1.9,2.9,5.9,4.2,6.2l-1.8,0.9l-1.6,0.8c0.2-1.1-1.7-4.4-2.8-6.5l-4.5-8.5c-1.4-2.6-2.9-5.2-4.2-5.7
	c1-0.5,1.3-0.6,2.8-1.3c1.2-0.6,2.3-1.2,2.3-1.2l13.1,11.2l-5.2-15.8c0,0,0.7-0.5,2-1.3c1.3-0.9,2.5-1.7,2.5-1.7
	c0.1,1.4,2.8,5,3.8,6.3l5.6,7.3c1.2,1.5,3.4,4.8,5,5.2C174.9,297.3,173.6,298.4,172.2,299.3 M38,328c1.2,0.4,2.8,1,2.8,1
	c-1.3,1-2.5,4.8-3.3,6.8l-3,8.4c-0.8,2.3-2.2,5.6-1.7,6.8c0,0-1.7-0.6-3-1.1c-1.2-0.4-1.8-0.6-3-1.2c1.5-0.4,2.9-5.4,3.4-6.6
	l1.4-3.9l-7.3-3l-2.1,4.5c-0.7,1.6-2.3,5.1-1.9,6.2c0,0-1.3-0.5-3.2-1.4c-2.2-1-2.7-1.3-2.7-1.3c1.6-0.8,2.5-3.3,3.7-5.8l3.8-8.5
	c1.3-2.9,2.5-5.4,2.4-7c0,0,0.7,0.4,2.6,1.3c1.5,0.7,2.3,1,3.1,1.3c-1.2,0.5-2.8,4.7-3.7,6.7l-1.1,2.4l7.1,2.9l1.1-2.7
	c0.5-1.4,2.3-5.5,1.9-6.9C35,326.9,36.4,327.4,38,328 M51.9,334c-4.1-1.1-6.2,3.6-7.5,8.5s-1.8,10.1,2.3,11.1
	c4.1,1.1,6.2-3.6,7.5-8.6C55.5,340.1,56,335,51.9,334 M46.3,355.4c-6.4-1.7-8.4-7.8-6.7-14.2c1.7-6.4,6.5-10.8,12.8-9.1
	c6.3,1.7,8.4,7.8,6.7,14.2C57.4,352.8,52.6,357.1,46.3,355.4 M63.5,357.7c0.3-0.4,0.5-0.8,0.7-1.3c0.4-1.8,0.7-3.7,0.9-5.5l1.8-13.8
	c-3.8-0.5-4.8-0.2-6.4,0.8l1.6-3.5c1.2,0.3,3.8,0.5,7,0.9c2.1,0.3,8.5,0.8,8.5,0.8l0.2,3.5c-1.4-1.6-2.9-1.8-6-2L70,351.4
	c-0.2,1.3-0.9,5.7-0.2,7.1c-0.8-0.1-2-0.2-3.1-0.3C65.6,358.1,64.1,357.8,63.5,357.7 M93.7,352.9c0,4.1-3.3,7.1-8.5,7.1
	c-2.5,0.1-5-0.8-6.9-2.4l0.8-3.9c0.9,2.4,3.1,4.1,5.7,4.4h0.5c2.1,0,3.9-1.7,3.9-3.8c0-1.8-0.9-2.8-5-4.9c-3.9-2-5.3-4-5.3-7
	c0-4.1,3.5-6.1,7.7-6.2c2.3,0,4.5,0.6,6.5,1.7l-0.9,3.6c-1.9-2.5-3.5-3.4-5.6-3.4h-0.4c-1.6,0-3,1.4-3,3v0.2c0,2.2,2.5,3.4,5.8,5.3
	C92.8,348.5,93.7,350.6,93.7,352.9 M112.6,340.2l0.3,1.5c0,0.5,0.1,1,0,1.5c-0.1,1.5-0.8,2.9-1.8,4c-1.7,1.7-4.1,2.7-6.5,2.6
	c-1.1,0.1-1.3-0.3-1.4-1v-0.2c0,0,0-0.3,0.2-0.3h0.3c1.2-0.1,2.3-0.6,3-1.5c0.9-1.3,1.3-3,1.1-4.6c0-1.6-0.7-3.1-1.9-4.1
	c-1-0.8-2.3-1.1-3.6-1c-1.3,0.1-0.5,0-1.1,0.1c-0.2,0-0.3,0.2-0.3,0.3l1.4,14.3c0.1,1.3,0.5,5.7,1.5,6.6c0,0-1.2,0.1-3.4,0.3
	c-1.7,0.1-3,0.2-3,0.2c0.4-1.5,0.5-3.1,0.3-4.6L96.6,343c-0.1-1.3-0.3-5.7-1.4-6.8c0,0,2.8-0.4,8.1-0.9c2.4-0.4,4.8,0.1,6.9,1.4
	C111.3,337.7,112.2,338.9,112.6,340.2 M133.9,344.8c0.2,0.8,0.3,1.6,0.3,2.4c0,3.9-2.8,7.3-6.7,8.1c-3.6,0.9-8.8-0.4-10.3-6.8
	l-1.8-7.5c-0.5-2.1-1.2-5.8-2.4-6.8c0,0,1.4-0.2,3.5-0.6s3.1-0.6,3.1-0.6c-0.6,0.9,0,4.3,0.6,6.9l2.3,9.5c0.2,1.4,0.9,2.7,2,3.6
	c0.8,0.5,1.8,0.7,2.7,0.5c1-0.2,1.9-0.8,2.4-1.6c0.5-1.3,0.6-2.8,0.1-4.1l-2.5-9.5c-0.7-2.6-1.5-5.9-2.3-6.4c0,0,1-0.3,3-0.8
	c1.5-0.4,2.4-0.7,3-0.9c-0.6,1.4,0.8,5.8,1.1,7.1L133.9,344.8L133.9,344.8z M157,342.9c0.5,0.2,1,0.3,1.5,0.1
	c-0.1,0.5-0.4,1-0.8,1.4c-1.1,1.4-3,2-4.7,1.5c-3.7-1.8-7-4.3-9.8-7.3v-0.1c0-0.1,0-0.1,0.1-0.2l0.2-0.1c1.7-0.8,2.9-2.6,2.9-4.5
	c0-0.8-0.2-1.6-0.6-2.3c-0.5-1.4-1.6-2.5-2.9-3c-1-0.3-2.2-0.3-3.1,0.2c-0.4,0.1-0.8,0.3-1.1,0.6c-0.3,0.2-0.2,0.1,0,0.7l4.5,12.9
	c0.7,1.9,1.9,5.6,3,6.2c0,0-1.2,0.5-3.1,1.2c-1.9,0.7-3,1-3,1c0.4-1.4-1-5.4-1.4-6.5l-2.9-8.7c-0.7-2.1-2.1-5.9-3.2-6.5
	c2.4-0.7,4.7-1.6,6.9-2.6c2.3-1.1,4.8-1.4,7.3-0.9c1.2,0.3,2.3,1.1,3,2.2c0.3,0.4,0.5,0.8,0.7,1.3c0.2,0.4,0.3,0.8,0.4,1.3
	c0.3,1.4,0,2.8-0.7,4.1c-0.5,0.9-1.3,1.8-2.2,2.4C150.7,339.6,153.8,341.5,157,342.9"/>
</svg>
