<svg version="1.1" id="Layer_1" xmlns="http://www.w3.org/2000/svg" x="0" y="0" viewBox="0 0 270 233.9" style="enable-background:new 0 0 270 233.9" xml:space="preserve"><style>.st0{fill:#231f20}.st2{fill:#fff}</style><path class="st0" d="M67.5 233.9 0 117 67.5 0h135L270 117l-67.5 117h-135z"/><path d="M80.5 211.4 25.9 117l54.5-94.4h109.1L244 117l-54.5 94.4h-109z" style="fill:#fdb913"/><path class="st2" d="M81.6 209.5h106.8l53.4-92.5-53.4-92.5H81.6L28.2 117l53.4 92.5zm109 3.9H79.4L23.7 117l.6-1 55.1-95.4h111.3l.6 1 55.1 95.4-55.8 96.4z"/><path class="st0" d="M119.3 72.9h31.2l16.7-41.8 45.1 91.7-48.8 28.8-15.7 51.3h-25.7l-15.6-51.4-48.8-28.7 45-91.7 16.6 41.8z"/><path class="st2" d="m125.8 129.3-23-24.7v24.7h23zm41.4-24.7v24.7h-23l23-24.7z"/></svg>