<svg version="1.1" id="Layer_1" xmlns="http://www.w3.org/2000/svg" x="0" y="0" viewBox="0 0 308.3 308.2" style="enable-background:new 0 0 308.3 308.2" xml:space="preserve"><style>.st1{fill-rule:evenodd;clip-rule:evenodd;fill:#0053a0}</style><path d="M304.1 154.1c0 82.8-67.2 150-150 150s-150-67.2-150-150 67.2-150 150-150 150 67.2 150 150z" style="fill:#fff;stroke:#0053a0;stroke-width:7.74"/><path class="st1" d="M15.4 155.9c-1-76.6 60.4-139.5 136.9-140.5 76.6-1 139.5 60.4 140.5 136.9 1 76.6-60.4 139.5-136.9 140.5-76.7 1-139.6-60.3-140.5-136.9zM152.3 13.7c-77.5 1-139.6 64.7-138.7 142.2s64.7 139.6 142.2 138.7c77.5-1 139.6-64.7 138.7-142.2-1-77.6-64.7-139.7-142.2-138.7z"/><path class="st1" d="M149 61.9c-17 0-36.8 6.7-50.1 17.7v.2c7.6 3 12.8 7 20.9 11.6.3.2.4.1.5-.2 3.9-20 28.3-14.4 30.6-29-.1-.1-.1-.3-.3-.3H149zm10.1.1c-.2 0-.2.1-.2.3-1 2.6 2 5.2 3.7 7 .2.2.4.3.7.4 10.9 4.4 22.9 7.7 25.6 20.2.1.2.1.3.3.1 5.8-3.8 11.6-7.8 17.4-11.5.3-.1.2-.3 0-.4-13.3-9.3-29.9-15.5-47.5-16.1zM91.2 86c-10.6 9.4-19.7 21.7-24.5 35.5-.1.1 0 .2.2.2 10.4.9 13.8-12.6 21.7-17.6.1-.1.2-.1.2-.2-.4-6.2-.7-11.4 2.4-17.9zm128.2 2.9c.6 4.8.1 9.3-1.1 13.8-.1.2 0 .4.2.5 7.7 4.1 11.8 16.1 20.7 16.6.1 0 .3.1.2-.1-3.2-10.7-12-23.4-20-30.8zm22.8 37.8c-10.9 10.9 6.8 29.2-17.2 39.4-2.1.6-4.1 1.4-6.1 1.4-5.3 0-12.9-4-12.9 4 0 .1.1.2.3.3 7.4 3.2 17.4 10 17.6 20.6.4 12.6-12.9 21.1-10.8 33.1 28.4-24.5 40.1-60.7 29.1-98.8zm-177.5 1.8c-.1 0-.2.1-.2.3-10.8 29.4-.2 75.1 32.8 99.2 0-.6.4-1.9.7-2.8.1-.3.1-.8 0-1.2-1.2-5.3-4.4-10.7-7.4-15.9-10.4-17.3-4.6-29.1 12.2-36.8.2-.1.3-.2.1-.4-.3-.6-.5-1.1-.8-1.7-.1-.2 0-.5-.4-.4-3.8.5-8 .8-11.8.6-5.8-1.3-11.3-3.6-15.4-9.7-7.4-10.4 2.7-24.3-9.5-31.2h-.3zM220.2 171c.3 0 .6 0 .8.1 3.7.7 9.4 2.9 12.7 7 .2.3.1.5-.2.5-5.4-.2-11.4-.8-15.6-4-.6-.5-1.1-.9-.7-2.1.3-.7 1.3-1.2 2.1-1.4.3-.1.6-.1.9-.1zm-133 2.2h.9c.2 0 .5 0 .7.2 1 1.2.8 3-1.1 4.3-4.1 2.6-8.8 2.8-13.2 2.9-.2 0-.5-.2-.2-.5 4-3.6 8.4-6.9 12.9-6.9zm73.7 49.5h-.2c-3.3 1.6-8.6 2.4-11.5.7-.4-.2-.6 0-.7.2-5.3 9-17.9 8.8-26.9 6.5-6.7-1.5-13.2-3.4-18.5 1.9 28 20.2 71.1 20.8 103.5-1.4-6.1-2.9-11.7-.8-18.4.7-7.6 1.8-18.3 3.4-26.9-8.5-.1.1-.2-.1-.4-.1zm-5.6 2h.3c1 .1 1.5.6 2.1 1.3.3.4.4.8.3 1.3-.2 4.1-.9 8.3-2.3 12 0 .2-.2.2-.2 0-1.6-5.1-4.4-10.3-.9-14.3.3-.2.5-.3.7-.3zM164.3 23.3c.8 1.1 1.7 2.3 1.4 3.6-1.1 6-2.2 12-3.4 18.1-.2 1.3-1.2 1.9-2.2 2.8 6.6 1.2 18.9 3.5 25.6 4.8-.2-2.6 1.8-4.1 2.6-6.5-2.2 1.5-5 2.1-7.6 1.5-2.7-.5-9.4-1.9-12.1-2.4.4-2.1.7-4.2 1.2-6.3 2.6.5 6.9 1.5 9.5 1.8 2.2.5 3.9-2.6 5.2-4.1-.9.2-2.5.3-3.3.1-2.8-.5-7.7-1.6-10.5-2.1.2-2 .7-4 1.1-5.9 4.7 1.2 14.6 1.7 18.1 5.7.1-2.2-1.1-4.9.1-6.4-6.7-1.4-19.2-3.5-25.7-4.7zm-3.2.1c-6.3 0-18.4.7-24.7.8 1.3 2.2-.7 4.2-.7 6.4 2.1-1.9 7.5-2.5 10.2-2.4 0 6.1.6 12.2.7 18.2 0 1.1-.9 1.9-1.6 2.3 2.7 0 7.1-.4 9.6-.4-1.3-1.2-1.9-1.3-1.9-2.9-.4-5.6-.7-12.1-.8-17.7 2.8-.2 8.1.3 10.4 1.7.1-2.5-2.3-4.9-1.2-6zM133.6 25c-4 .9-13 1.5-16.5 4.1-4.1 2.9-5.1 9.3.3 12.1 3.4 1.4 9.8-.1 13.2.1 2.3.1 3.3 3.3 1.8 4.8-3.3 2.9-12.1 2.9-16 1.7.9 2.2 2 4.1 3 6.3 1.3-.8 3.7-1 5.2-1.3 3.2-.5 10.7-2.5 12.8-5.1 2.5-3 2.7-7.3.2-10-2.2-2.4-9.1-2-12-1.8-1.7 0-3 .6-4.6-.2-1.3-.9-1.3-3.2.2-4 2.9-1.5 9.5-1.8 12.5-.5-.3-2-.1-4.1-.1-6.2zm64.8 5.4c.5 1.3.9 2.6.2 3.9-2.4 5.1-5.1 10.3-7.6 15.4-.7 1.5-1.6 2.5-3.3 3.1 2.2 1.1 6.1 3.1 8.4 4.2-.9-3.5 1.4-6.6 2.7-9.4 1.3.7 4.8 2.3 5.6 3.7 1.1 1.9 1.4 3.9 1.7 5.9.1 1.8.3 3.2-1.6 3.8 2.6 1.1 6.7 3.3 9.2 4.4-1.9-4-.7-9.4-3.3-13.3 1.7.1 4.5.4 6.3-.7 3.2-1.9 4-4.9 2.9-8.8-.6-2.1-2.7-3.3-4.4-4.1-4.2-2-12.6-6-16.8-8.1zm-94.5 2.7c-5.8 3.2-16.9 8.8-22.6 12.1 1.5.4 2.5.9 3.2 2.2 2.9 5.1 5.7 10.2 8.5 15.4.7 1.3.5 2.8-.1 4.2 5.9-3.3 17-9.1 23-12.3-1.9-1.1-.7-4.6-1.4-6.9-.6 2-2.7 3.9-4.4 5.1-2.8 1.9-9.2 5.2-12.1 6.8-1-1.8-2-3.7-3-5.6 2.2-1.4 7.4-3.7 9.6-5.2 1.3-1.6.5-3.9.8-5.8-.6.7-1.3 1.3-2.1 1.7-2.4 1.3-7.7 4.3-10.1 5.6-.9-1.8-2-3.4-2.8-5.3 4.5-2 12.5-7.4 17.6-7.2-1.3-1.8-3.4-2.6-4.1-4.8zm99.8 4.7c2.2 1.1 5.4 2.5 7.4 3.6 5.3 2.8 1.5 8.5-2.3 6.4-2.2-.7-6-2.9-8.2-3.8 1-2.2 2.1-4.1 3.1-6.2zM76.1 49.1c-.6.9-1.4 1.7-2.4 2.2-3.2 1.5-8.9 6.6-10.2 9.9-1.9 3.7-1.9 7.1.4 11.4 2.6 5.1 6.2 7.5 11.7 7.5 5.5-.3 10.5-5.2 12.7-8.1 1.2-1.4 2.5-3 4.3-3.8-1.5-1.7-3.2-3.3-4.7-5-.6 2-1.6 3.8-2.9 5.5-2 2.2-5.1 5.8-8.6 5.6-3.5-.2-4.6-1.8-6.2-3.5-1.6-1.7-2.6-3.7-2.4-6.7.3-3.1 6.3-8.7 10.7-8.9-.9-2-1.4-4.2-2.4-6.1zM54.8 69.7c-1.6 2.1-4.4 5.6-6.1 7.6 1.6-.2 3-.1 4.2.8 4.6 3.6 9.2 7.2 13.7 10.8 1.2.9 1.7 2.2 1.9 3.7 1.7-2 4.4-5.5 6.1-7.5-1.4.2-2.8.3-3.9-.6-4.7-3.6-9.2-7.2-13.9-10.9-1.3-.9-2-2.2-2-3.9zM43.9 83.5c-2.9 6-8.9 17.1-11.8 23.1 1.6-.6 2.8-.5 4.2.2 5.2 2.6 10.4 5.1 15.5 7.7 1.3.6 2.4 1.9 2.9 3.2 2.9-6.1 8.2-16.8 11.5-22.9-.7 0-1.4-.6-1.9-1.1-1.4-1.3-2.1-2.8-3.4-4.1.4 2.4 0 5.3-1 7.6-1.2 2.6-4.5 8.9-5.7 11.5-2-.7-3.6-1.9-5.5-2.7 1-2.3 3.9-7.6 4.9-9.9 0-1.4-1.6-3.6-2.7-5.3 0 .9-.4 1.8-.8 2.6-1.2 2.5-4.1 8.2-5.3 10.7-1.8-.9-4.1-1.8-5.9-2.7 1.2-2.5 4.4-8.9 5.7-11.4 1-2 2.6-3.6 4.6-4.6-2.1-.7-3.5-.5-5.3-1.9zm3.8 33.2c.8 1.3 1 3.6 1.1 5.2.2 3-1.6 8.8-2 11.7-5.6-1.1-11.2-2.4-16.8-3.7-1.5-.3-2.2-1.5-3.1-2.8-.6 2.5-1.6 7.3-2.1 9.8 1.1-.8 2-1.5 3.3-1.2 6 1.2 11.9 2.6 17.8 3.9 1.4.3 2.7 1.3 3.4 2.6 1.3-5.8 3.6-16.3 4.9-22.1-.6.1-1.2.2-1.8-.2-1.7-.8-3-2.3-4.7-3.2zM47.7 166.1c-.8 1.2-2 2.2-3.5 2.5-5.4 1.5-11.3 2.7-17.5 4.2-1.2.4-2-.1-3.2-1 .6 2.5 1.4 6.6 2 9.2 2.2-3.1 6.3-3 9.6-4.1.8 2.6 1.7 8.1 2.6 10.6 1.4 1.4 3.6 1.6 5.4 2.2-.5-.7-1.3-2.2-1.5-3-.6-2.8-1.8-8-2.5-10.8 2.1-.5 4.1-1.1 6.2-1.4 1.1 4.4 3.7 12.5 1.7 16.7 2.1-.7 3.9-3 5.8-2.5-1.1-5.8-3.9-16.7-5.1-22.6zm.3 26.7c-.7 0-1.4 0-2.1.1-4.7 1-9.1 3.3-11.1 8.3-2.6 6.9 2.6 17.4 9.6 20 4.5 1.6 9 .4 12.3-2.1 3.1-2.1 5.2-5.7 5.1-10.5-.2-5.4-3.2-10.7-7.6-13.8-2-1.3-4.1-1.9-6.2-2zm-.2 6c2.6 0 5.2.6 7 3.3 2.2 2.8 2.9 6.7 1.3 9-2.2 2.9-5.9 4.7-9.7 4.6-4.1-.1-8.3-5.4-7.1-10.5 1.3-4.2 6-6.2 8.5-6.4zm16.4 20.1c-1 0-2 .2-3 .6-4.7 1.7-8.2 4.8-9.5 10-1.9 7.1 5.9 16.5 13.2 17.8 4.7.8 8.9-.9 11.8-4 2.7-2.6 4.4-6.6 3.4-11.3-1.1-5.3-5.4-9.8-10.2-12-2.2-.8-4-1.2-5.7-1.1zm2.3 5.7c2.1 0 3.9.8 5.3 2.3 2.6 2.4 3.8 5.3 2.6 8.4-1.6 3.6-4.7 6-8.5 6.5-4.1.6-9.4-4.9-8.8-9.3.7-4.1 3.3-5.8 5.5-6.9 1.4-.7 2.7-1 3.9-1zm18.3 10.6c0 2.3-2.4 1.7-4.3 4.6 2.9-.3 7.6 2.3 9.9 3.9-3.3 5-6.8 10-10.1 14.9-.6 1-1.7 1.2-2.9 1.3 2.1 1.5 5.9 4 8 5.4-.4-1.7-.3-3.1.6-4.4 3-4.4 6-8.8 8.9-13.2.2-.2.3-.6.6-.5 2.4 1.3 6.2 4.6 7.1 7.3 1-2 .8-5.1 2.7-5.9-5.1-3.4-15.3-9.9-20.5-13.4zm21.8 14.6c.8 1.4.6 2.9.1 4.4-1.7 5.6-3.8 10.7-5.5 16.3-.4 1.4-1.2 2.2-3 2.6 5.4 1.7 11.6 4 17.2 5.7 5.9 1.9 11.1.5 11.8-5.7.4-3.5-3.4-5.2-4.9-6 3.9.5 6.5-1.6 6.7-5.2.3-2.6-2-5.4-7.4-7.2-3.7-1.1-11.1-3.8-15-4.9zm81.2 4.5c-2.5.6-6.6 2.4-9.1 3.2 1.4.6 2.3 1 2.8 2.4 1.7 5.3 3.9 10.2 5.7 15.5.5 1.7 1.1 3.5.2 5.2 5.6-1.7 15.4-5.3 21-7.1-.3-.5-.8-.8-.8-1.4-.1-2 .4-3.6.2-5.6-1.3 2.7-4.1 4.1-7 5.2-1.6.5-6.2 2.6-7.8 2.7-1.8-5.4-3.9-11-5.7-16.4-.6-1.5-.3-2.4.5-3.7zm-75.9 1.7c2.1.7 7.9 2.1 9.9 2.9 2.8 1.2 1 6.2-1.9 5.5-2-.3-7.8-1.9-9.7-2.7.6-1.8 1.1-3.8 1.7-5.7zm27.3 2.9c.2.4.1 1.3-.2 1.7l-10.5 17.7c-.9 1.5-1.8 2.2-3.1 3.2 2.4.4 6.5 1.6 8.9 2-.8-1.7-.7-3.8.5-5.4 3.7.3 10.6.8 14.3 1.3.7 1.7 1.7 3.8 0 5.4 2.4 0 6.7-.1 9.1.1-1.1-1.3-2.1-2.5-2.6-4.2-1.1-3.3-5.3-15.5-6.6-19.3-.2-.7.1-1.5.1-1.6l-9.9-.9zm27.7.2c-2.7.4-7.2 1-9.8 1.3 1.2.9 2.1 1.4 2.3 2.8.6 5.5 1.7 10.8 2.5 16.4.1 1.7.2 4-1 5.4 5.9-.6 16.7-2.3 22.5-3-.2-.5-.6-1-.5-1.6.3-2 1-3.7 1.2-5.7-1.9 2.2-4.7 3.4-7.8 3.9-1.7.3-6.8 1.1-8.4 1.1-.7-5.6-1.6-11.5-2.3-17.2-.2-1.4.3-2.3 1.3-3.4zm-23.4 4.1 4.3 11.6c-2.7-.2-7.8-.5-10.4-.8l6.1-10.8zm-34.2 2.3c2.5 1 6.5 2.3 8.7 3.2 4.8 1.7 3.5 8.1-2.3 6.1-2.6-.8-6.1-1.9-8.5-2.8.6-2.2 1.5-4.4 2.1-6.5zM237.4 57.2c-3.8-.2-6.3.9-8.9 3.1-3 2.7-5 5.8-4.9 10.5.1 3.7 4.1 9.5 9 12.5 1.4 1 3.5 2.3 3.7 3.9 1.6-1.6 3.3-3.3 4.9-4.8-3.9-1.2-10.6-5-11.5-9.4-.6-3.5.2-4.6 1.7-6.6 2.8-3.4 5.6-4.6 9.8-3.4 3.8 1.5 7.1 6.2 7.4 9.7 2-1 3.8-1.8 5.8-2.8-1.6-1-2.3-2.2-3.3-3.6-2.3-3.4-6.7-8.2-12-9-.6 0-1.2-.1-1.7-.1zm20.8 18c-.1 2.5-1.4 3.2-3.2 4.6-4.3 2.9-8.4 5.9-12.7 8.8-1.2.8-2.8 1.8-4.5.9 1.4 2.2 4.2 5.8 5.6 8 .1-2.2 1.3-3.2 2.7-4.1 4.6-3.1 9-6.4 13.7-9.5 1.3-.9 2.1-1.3 3.9-.7-1.4-2.2-4.1-5.9-5.5-8zm8.2 11.6c-1.3 1.9-4.1.8-6.2 1.5 2.5 1.4 5.2 5.8 6.2 8.5-5.5 2.6-10.1 4.9-15.6 7.5-1 .5-2.7.2-3.8-.2 1.1 2.3 3 6.4 4.2 8.7.6-1.8 2.4-3.3 4-4 4.9-2.2 9-4.4 14-6.5 1.3 2.5 3.4 7.2 2.7 10 1.9-1.1 2.8-3.7 5-3.4-2.5-5.8-7.8-16.4-10.5-22.1zm12 24.7c-.5 2.4-2.7 3.8-4 5.6-2.7 3.2-5.9 6.7-9.1 9.9-.8.7-2.6.9-3.8 1.2-2.4.3-3.4.6-5.3-.9.6 2.5 1.5 7.1 2 9.6 1-1.5 2.1-2.4 4-2.9 1.8-.3 3.3-1 4.6-.4 5.8 3.1 16.6 7.6 18 9l-2-9.5c-.6.9-1.4 1.4-2.2 1.1-3.5-1.3-7.6-3.3-10.5-4.4 2.2-2.5 4.7-4.9 6.9-7.3 1-1.2 2.3-1.7 3.5-.5l-2.1-10.5zM264.7 167.4c-1.1 0-2.3.4-3.7 1.3-1.9 1.7-2.6 4.3-3.2 6.6-.9 3.9-3 12-3.7 15.9 1.3-1 2.4-1.2 3.9-.8 5.8 1.2 11.5 2.5 17.2 3.8 1.4.3 2.4 1.4 3.2 2.6.8-5.5 4.2-16.6 4.1-22.1-.1-4.6-4.3-7.5-8.4-6.5-2.3.6-3.6 3.3-4.1 5.2.1-2.9-2-6.1-5.3-6zm.1 6.6c1.7 0 3.3 1.6 2.8 3.5-.4 2-1.3 6.3-1.8 8.3-2-.4-4-.8-5.9-1.3.6-2.1 1.1-5.1 1.6-7.2.6-2.3 1.9-3.3 3.3-3.3zm10.5.4c1.8.1 3.4 1.8 3 4-.5 2.6-1.5 7.4-2 9.9-2.1-.4-4.3-.9-6.5-1.4.5-2.6 1.4-6.3 2.1-8.9.6-2.7 2-3.6 3.4-3.6zm-21.6 18c-1.6 2.9-3.1 5.7-4.8 8.6 1.3-.6 2.6-.7 3.6-.1 3.8 2 7 3.9 10.7 5.9 1.4.8 3 2.4 3.2 4.4-.1 2.7-2 6.1-4.5 7.2-1.8.9-3.9 0-5.3-.8-3.4-2.1-6.1-3.5-9.5-5.6-1.2-.7-2.2-1.2-2.3-3.4-1.6 2.8-3.1 5.8-4.8 8.7 2.3-1 3.8-.3 5.5.7 3 1.7 5.6 3.2 8.6 5 2.3 1.3 4.6 2.2 7.7 1.5 2.7-.6 5-3.2 6.7-5.9 1.7-2.8 3.3-6.1 3.1-9.3-.2-3.2-2.1-5.4-4.3-6.9-3.6-2.2-6.4-3.7-10-5.8-1.5-.9-3.5-2.2-3.6-4.2zm2 33.3c-.1 2.7-1.6 5.9-3.5 8.1-1 1.3-4.1 4.9-5.4 6.2-4.3-3.7-8.2-7-12.6-10.6-1.1-.9-2-2.3-2.1-3.7-1.8 1.8-4.2 4.6-5.9 6.6 1.5-.2 2.9.5 4 1.5 4.2 3.6 8.4 7.3 12.7 10.9 1.3 1.2 2 2.3 2 4.2 3.9-4.4 11.1-12.7 14.9-17.2-.5-.2-1.2-.3-1.5-.9-1.1-2.2-1.4-3.5-2.6-5.1zm-29.9 7.1c-1.2 1.6-3.6 2.5-5.4 3.3-3.8 1.8-9.1 6.1-10.2 11.1-.9 4.3.1 7.8 2.5 11s5.4 5.1 9.5 5.2c4.6 0 9.6-3 13.2-6.7 1.2-1.2 2.7-2.9 4.4-3-1.5-1.7-2.7-3.7-4.3-5.4-1 3.2-6 8.4-9.4 9.3-3 .7-5-.1-7.1-2-2.4-2.5-3.9-5.6-2.9-9.2 1.5-4.6 7.7-8 11.5-7.4-.6-2-1.1-4.2-1.8-6.2z"/><path class="st1" d="M154.8 62.7c-.5 1.4-.8 3.3-1.2 4.9-.1.4-.2.6-.5.9-11 11-24.5 7.8-29.6 24-.6 1.4.2 2.8 2.6 4.2.2.1.5.1.5-.2C126 79 149.8 80.1 155 67.9c.1-.1.2-.1.3 0 4.4 8.1 11.6 9.2 18.2 13 4.9 2.8 8.5 5.4 9.5 13.5 0 .4.1.3.3.1.7-.8 2.6-1.2 2.5-2.5-1.6-11.9-14.7-14.5-25.3-19.4-.4-.3-.9-.7-1.3-1-2.3-2.5-3.9-5.5-4.4-8.9zm-.2 15c-.1 0-.2 0-.3.1l-.3.3c-.1.1 0 .5 0 .7 0 .2.2.2.3.3.2.2.3.3.6.5s.6 0 .7-.3c.1-.4.1-.8 0-1.2 0-.1-.1-.2-.2-.3-.1-.1-.2-.2-.4-.2-.2.1-.3.1-.4.1zm3.6 3.3c-.1 0-.1 0 0 0-.2.1-.2.2-.2.3 0 .5-.2 1.2.2 1.4.2.1.5.1.7-.1.1-.1.2-.2.2-.4 0-.1-.2-.2-.2-.3-.1-.2 0-.5-.1-.7-.1-.1-.1-.2-.2-.2h-.4zm-6.6.1c-.3.1-.7.3-.8.7-.1.2-.1.4 0 .6.2.2.4.5.7.7.2.1.6.1.7-.4.1-.4.1-1.1-.1-1.2-.3-.3-.2-.5-.5-.4zm3.4 5.8c-1.4 4.2-1.8 6.4-2.8 9.7h4.2c-1-3.8-1.1-5.3-1.4-9.7zM90.3 107.7c-.1 0-.1 0-.2.1-9.8 6.9-12.4 19.1-25 17.1 8.9 4.2 8.7 14.4 9.6 23.9.8 8 6.9 18.8 23.4 16.6.2 0 .3-.2.2-.3-1.1-1.5-4.6-1-5.5-1.2-13.1-2.5-15.3-14.5-18-28.1-.6-3.9-3.2-6.4-4.7-9.4-.1-.3-.2-.4.2-.5 8.3-1.6 14.6-8.8 21.3-16.5.1-.1.2-.3 0-.4-.4-.4-.7-.8-1.1-1.2-.1 0-.2-.1-.2-.1zM89 123.6c-.1 0-.2 0-.3.1l-.3.3c-.1.1 0 .5 0 .7 0 .2.2.2.3.3.2.2.3.3.6.5s.6 0 .7-.3c.1-.4.1-.8 0-1.2 0-.1-.1-.2-.2-.3-.1-.1-.2-.2-.4-.2-.2.1-.3 0-.4.1zm3.8 3.4s-.1 0-.1.1c-.1 0-.1.1-.1.2 0 .5-.3 1.2.2 1.4.2.1.5.1.6 0 .1-.1.3-.2.3-.4 0-.1-.1-.2-.2-.3-.1-.2 0-.5-.1-.7-.1-.1-.1-.2-.2-.2-.2-.1-.3-.1-.4-.1zm-6.7.5c-.3.1-.7.4-.8.8-.1.2-.1.4 0 .6.2.2.4.5.7.7.2.1.6.1.7-.4.1-.4.1-1.1-.1-1.2-.2-.3-.2-.6-.5-.5zm3.9 5.7c-.5 4.3-2.1 9.1-3.6 12.3 1.8-.2 3.2.8 3.3 2.2.4-1.6 1.6-2.8 3.1-2.3-1-3.8-2.1-8-2.8-12.2zM103.9 174.8c-.1 0-.1 0-.2.1-15.1 5.8-18.2 19.4-9.7 31.4 6.4 10.7 9.2 15.1 6.1 23.7 11.8-14.1 32.8 8.7 44.8-8.9.2-.2-.1-.4-.3-.6-.6-.4-1.2-.7-1.8-.9-.4-.2-.7-.1-1 .3-4.9 5.2-20.9 4-32.9 4.1-.4 0-1.5.2-1.8.4-1.2.6-2.3 1.1-3.6 1-.3 0-.8-.2-.7-.9.6-8.8-4.6-14.4-7.9-21.6-1-2.5-8.7-16.3 9.7-24.7.1-.2.3-.3.2-.5-.1-.9-.2-1.7-.5-2.6 0-.3-.2-.4-.4-.3zm13.7 16.7c-.1 0-.2 0-.3.1l-.3.3c-.1.1 0 .5 0 .7 0 .2.2.2.3.3.2.2.3.3.6.5s.6 0 .7-.3c.1-.4.1-.8 0-1.2 0-.1-.1-.2-.2-.3-.1-.1-.2-.2-.4-.2-.2.1-.3.1-.4.1zm3.8 3.2h-.1c-.1.1-.1.1-.1.2 0 .5-.3 1.2.2 1.4.2.1.5.1.6-.1.1-.1.3-.2.3-.4 0-.1-.2-.1-.2-.3-.1-.2 0-.5-.1-.7-.1-.1-.1-.2-.2-.2-.2.1-.3.1-.4.1zm-6.8.4c-.3.1-.7.4-.8.8-.1.2-.1.4 0 .6.2.2.4.5.7.7.2.1.6.1.7-.4.1-.4.1-1.1-.1-1.2-.2-.3-.2-.5-.5-.5zm3.5 5.5c-.5 4.3-2.1 9.1-3.6 12.3 1.8-.2 3.2.8 3.3 2.2.4-1.6 1.6-2.7 3.1-2.3-1-3.8-2.1-8-2.8-12.2zM204.1 174.7c-.1 0-.2.1-.2.2-.3.7-.7 1.4-1 2.1-.3.8-.3 1.5.9 1.9 21.7 8.9 11 25.6 5.4 35.5-.6 1-2 4-2.1 5.3-.2 1.4 0 2.6 0 4.1 0 .3-.5.4-.7.4-13.9-2.7-25.9 9.6-37.3-3.6-1-1.1-2.3-1.2-2.8-.9-.5.4-.9.8-1.2 1.3-.2.3-.2.5 0 .9 11.8 16.6 29.3-3 44.3 5.3-3.5-8.4 3.4-16.6 7.3-24 8.7-14.9-1.5-24-12.6-28.5zm-11.5 16.5c-.1 0-.2 0-.3.1l-.3.3c-.1.1 0 .5 0 .7 0 .2.2.2.3.3.2.2.3.3.6.5s.6 0 .7-.3c.1-.4.1-.8 0-1.2 0-.1-.1-.2-.2-.3-.1-.1-.2-.2-.4-.2-.2.1-.3.1-.4.1zm3.6 3.3h-.1c-.1 0-.1.1-.1.2 0 .5-.3 1.2.2 1.4.2.1.5.1.7 0 .1-.1.3-.2.3-.4 0-.1-.1-.2-.2-.3-.1-.2 0-.5-.1-.7-.1-.1-.1-.2-.2-.2h-.5zm-6.7.5c-.3.1-.6.4-.7.8-.1.2-.1.4 0 .6.2.2.4.5.7.7.2.1.6.1.7-.4.1-.4.1-1.1-.1-1.2-.4-.3-.3-.6-.6-.5zm3.7 5.5c-.5 4.3-2.1 9.1-3.6 12.3 1.8-.2 3.2.8 3.3 2.2.4-1.6 1.6-2.8 3.1-2.3-1-3.8-2.1-8-2.8-12.2zM217.2 107.5l-.1.1c-.2.2-.3 1.2-.3 1.9 0 .1 0 .3.1.4 3.1 1.9 12.4 12.4 20.5 14.3.4.1.4.4.2.6-9.6 11.3 1.9 29-17.2 35.8-3.5 1-7.1.5-7.7 2.9 0 .1.1.2.2.2 11.4.7 18.6-3.1 20.7-11.3 2.8-9.1-2.4-22 7.3-29.1.2-.2.1-.5-.1-.5-9.9 1-16.2-9.5-23.5-15.2 0-.1 0-.1-.1-.1zm3.2 15.3c-.1 0-.2.1-.3.1l-.3.3c-.1.1 0 .5 0 .7 0 .2.2.2.3.3.2.2.3.3.6.5s.6 0 .7-.2c.1-.4.1-.8 0-1.2 0-.1-.1-.2-.2-.3-.1-.1-.2-.2-.4-.2s-.3-.1-.4 0zm3.3 3.7h-.1c-.1.1-.1.1-.1.2 0 .5-.3 1.2.2 1.4.2.1.5.1.6-.1.1-.1.3-.2.3-.4 0-.1-.1-.1-.2-.3-.1-.2 0-.5-.1-.7-.1-.1-.1-.2-.2-.2-.2.1-.3 0-.4.1zm-6.9 0c-.3.1-.6.4-.7.8-.1.2-.1.4 0 .6.2.2.4.5.7.7.2.1.6.1.7-.4.1-.4.1-1.1-.1-1.2-.3-.3-.3-.6-.6-.5zm3.7 5.5c-.5 4.3-2.1 9.1-3.6 12.3 1.8-.2 3.2.8 3.3 2.2.4-1.6 1.6-2.8 3.1-2.3-.9-3.9-2.1-8-2.8-12.2z"/><path class="st1" d="M210.7 81.1h-.1c-8.8 2.5-20.6 12.6-30.3 21.4-.3.3-.7.4-1 .3-6.5-2.1-14-2.4-20.3-2.6-9-.8-19.7.3-29.4 3.4-.4.1-.7-.2-1-.6-7.6-8.5-18.4-15.4-30-20.3-.3-.2-.6-.3-1 0-6 5.5-4.6 21.7.5 30.6.6 1.3.7 3.5.7 4.3.4 4.7 1.3 8.8 2.5 13.3.3 2.7 1.4 5.5 2.9 7.9.3.4.2.7 0 1-2 2-3.9 3.9-5.9 6-.1.1-.4.2-.7.3-1.7.2-2.2.7-3 2.7-.1.3-.1.5 0 .7.3.5 2.2 3.9 3.8 5.7 1.6 1.5 1 3-.3 4.4 2.5 1.9 6.9 5.4 7.2 5.9.3 1.4 2.8 1.9 1.3 4 .4.1.6.2.9.5.2.2.3.5.3.7.2 2.2.6 4.2 1.9 6.4 5 8.5 10.6 7.2 17.3 14.4 4 4.3 7.9 4.5 10.7 12.2-.2 2.9-.4 4.7.8 7.2 1.4 3.1 4.9 3.2 9.4 5.2.6.2.9.4 1.4.9 1.2 1.1 2.5 1.9 4 2.6 1.2.5 2.7.5 3.8 0 2.2-1.2 2.6-.3 6.6-3.2 3.8-1.1 9.9-5.7 9.3-13.6 0-.2.1-.4.1-.6.1-.4.5-.7.8-1.1 1.5-1.8 3.3-3.4 4.3-5.6.2-.5.4-1 .9-1.4 15-12.3 9.7-6.9 15.1-11 11.1-8.5 3.8-18.4 16.9-23.9-1.8-3.7-1.2-4.1 4.6-12-3-1.6-5.2-3.4-7.3-4.9-6.6-5.2-.6-9.6-.1-12.1.4-1.4.9-3.3 1.1-5.1.7-4.2.3-9.3 2.5-11.5 1.6-1.5 2.1-10 2.3-10.7 1.8-5.5 1.1-6.3 1.4-9.7.1-.5.2-.8 0-1.3-1.2-3.4-2.7-6.6-4.4-9.8-.2-.3-.3-.5-.5-.6.1-.4 0-.4 0-.4zm-5.2 13c-.7 6.9-3.2 11.5-2.4 17.3-2.9 3.6-2 10.3-4.7 14.4-.2.2-.4.4-.7.3-3.6-.6-6.1-5.1-9.2-7.7-.3-.2-.5-.5-.4-.7 1.2-2.8 4.1-5.5 1.9-8.3.2-8.1 9.8-9.4 15.5-15.3zm-103.4 1.3c5.6 3.2 9.2 8.5 12 8.5.4.7 1 1.4 1.6 1.9 4.1 4.7.9 6.5 4.5 12.5.4.8.6 1.7 0 2.2-2.4 2.1-4.6 4.3-6.6 6.6-2.7 3.2-4 2.1-4.8 0-.5-1.5-1-3.2-.3-5 .4-1 .2-1.8-.6-2.7-1-1.4-1.8-2.8-2.5-4.2-.3-.5-.4-1-.6-1.7-.9-5.9-.7-14.8-2.7-18.1zm70.1 59.1c.4 0 .8.2.8.6 0 .4-.3.8-.7.8-.4 0-.8-.3-.8-.7-.1-.3.3-.7.7-.7zm-38.5.1c.4 0 .8.2.8.7 0 .4-.3.8-.7.8-.4 0-.8-.2-.8-.6-.1-.5.3-.9.7-.9zm62 16.7c.6 0 .8.6.7 1.2-.6 8.2-4.5 5.9-13.2 13.7-2.3 1.8-1.5 3.6-4.6 6.2-2.6 2.4-5 4.9-7.2 8-.4.5-.6 0-.6-.3-.1-.6-.5-1.4-1-2-1.4-1.6.9-1.4-1.7-5.3-1.1-1.6-2.3.5-3.1-2.1-.5-1.6 0-.8-.6-4.7l1.5-1.3c.7 2 1.7 3.7 2.8 5.2.2.2-.1 1.9.5 3.4.1-2.4 2.3-3.8-.8-8.1-.4-.6-.6-1.1-.7-1.8v-.2c5.8-3.7 12.2-6.8 18.3-9.3-.3.3-.6.7-.9 1.1-.1.2.1.2.2.2.4-.1.5-.1.8 0 .2.1.2.3.2.5 0 .7-.5.8-.4 1.5 1-1.3 2-2.5 3-3.7.2-.3.6-.7 1-.6l1.1.1c.4 0 .7-.1 1.2-.2 1-.4 1.7-.9 2.7-1.5.3.1.6 0 .8 0zm-81.9 1.3h.1c2.9 1.5 6.8 2.4 8.8 3.2 1.1.5 2.2 1.2 3 1.4.3 0 .3-.2.2-.4-.2-.3-.4-.7-.6-1 5 2.3 9.6 5 14.4 8.2v.1c-.1.4-.3.8-.4 1.1-.1.2-.2.4-.2.6-.1.1-.1.3-.2.4-.1.2-.2.5-.3.7-.1.3-.3.6-.4.8 0 .1-.1.2-.1.3-.1.2-.2.3-.2.5 0 .1-.1.2-.1.3v.2c0 .2 0 .3-.1.5v.5c0 .2 0 .4.1.6.1.5.2.7.4.7h.2c.1 0 .3.1.4-.1.1-.2.1-.3.2-.5s.1-.3.2-.5c.2-.3.4-.6.6-1 0-.1.1-.1.1-.2.4-.6.8-1.1 1.2-1.6 0-.1.1-.1.1-.1.2-.2.3-.5.5-.7.1-.1.1-.2.2-.3.1-.2.3-.5.4-.7l3.1 2.3c-.5 1.3-1.2 3-1.4 4.2-.4 2.7-2 2.1-3.3 1.1.1 2.8.3 4-1.3 6.5-.2.4-.4.2-.5 0-3.8-7.3-7.5-5.6-12.3-13.4-.4-1.1-1.2-2.2-2.8-2.8-5.9-2.3-10.2-3.9-10-10.8-.2 0-.1-.1 0-.1zm52.3 24.5c.2 0 .5.2.6.5 1.2 2.7 2.7 7.4 2.2 9-1.8 6.7-6.5 7.9-10.9 7.3-3.3-.4-3.3-1.2-3.4-3.4 0-.2.3-.3.6-.4 4-1.3 6.4-3.4 6.5-7.6 0-.6.1-1.2-.2-1.7 1.1-.7 2.2-1.5 3.2-2.4l.1-.1c.3-.5.7-.9 1.1-1.1 0-.1.1-.1.2-.1zm-22.2.5c.1 0 .2 0 .4.2.1.1.2.5.6.5.5.7 1.3 1.3 2 1.8-.2.2-.3.5-.4.7-.2.6-.2 1.7 0 2.7.1.6.3 1.1.6 1.6 1.4 2.2 2.5 3.3 4.1 4.4.7.4 1.4.8 2.3.7.2 0 .4.1.3.3-.3 3.3-1.8 3.5-5.6 3.1-8.4-1.7-9.2-7.2-4.6-15.4 0-.4.1-.5.3-.6zm10.9 17.9c1.2 0 2.4 0 3.6.2.2 0 .2.2.1.3-.2.5-.7 1-.9 1.3-.2.1-.4.2-.6.2-.9.2-2.3.3-2.6.3-.2 0-.4-.1-.7-.3-.8-.4-1.5-1-2.3-1.4-.2-.1-.2-.3 0-.4 1.1-.1 2.2-.1 3.4-.2z"/><path d="M209.7 87.2h-.1c-9.6 3.5-21.4 10.4-27.6 19.6-2.5 2-5 4-7.7 5.7 5.5-7.3-5.5-7.8-18.7-9.2-9.1-.8-19.9 2.1-23.5 4-.3.2-.5.5-.3.9 1 1.4 1.3 3.1 1.9 4.6.1.2-.1.2-.2.1-11.5-10.3-28.7-24.2-34.4-25.6-.3 0-.5 0-.7.3-.4.9-.5 1.1-.8 1.9-.2.7-.6 1.2-.8 1.4-3.3 3.2 2.5 9.2 3.3 20.3.6 4.7 1.7 6.7 2.8 9.9.2.4.3.8.3 1.2 1.5 5.1 2.5 10.4 4.4 15.1 2.4 7.6-6.9 6.4-7.2 12.7-.2 4.3 4.8 6.7 4 9.8-.1.2-.4.4-.2.7 3.9 4 5.4 3.1 7 6.4 3.6 6.4 7.6-.6 14.2 8.7 5 2.3 9.6 5 14.4 8.2.3-1.1.7-2.4 1-4.2.6-3.5.5-7-1.7-11.8-.4-.7-.2-1.9.6-2.5.4-.3.5-.4.6.2.6 6.4 5.9 10.8 2.6 16.9-.1.2-.3.4-.2.8.1.8-.1 1.6-.4 2.3l3.1 2.3c.2-.5.4-.9.5-1.2 1.4-7.2 2.5-18.7 3.5-20.2.1-.1.2-.4 0-.5-1.2-1.2-2.6-3.3-1.9-3.9.7-.5 4.5 1.1 4.5 3.9-.2 2.5-2.6 25.7-5.7 29-.1.2-.1.3 0 .4 1.3 1.9 1 2.3.6 2.6-.4.2-1.3.1-1.7.2h-.2c.5.7 1.3 1.3 2 1.8.4-.4 1.1-.7 2.2-.9 4.3-.7 8.4-.6 11.6.9.4.2.7.5.8.7 1.1-.7 2.2-1.5 3.2-2.4-.3.2-.9 0-1-.5-1.7-9.4-3.6-10.9-4.7-18-.4-2.4-.6-4.9-.2-7.2.1-.7.2-1.4 0-2.2-.6-2.3-.6-4.7-.1-7 .4-.8 1.3-1.8 1.9-2.7.5-.7.9-1.5 1.2-2.4.3-.9 3.3-5.4 5.8-6.1.2-.1.2-.2.3-.4 0-.2-.4-.2-.4-.6.1-1.8 11.2-.8 17.1-.3 2.2-.2 4.5-.5 6.6-.9.4-.1.4.1.2.3-1.8 1.9-4.3 3-6.6 3.3-.4.1-.5.3-.6.6-1.3 6.5-10.8 9.7-14.9 8.9-.3 0-.3.1-.3.3.3 3.4-1.1 3.7-2.4 13.5-.1.5-.1 1 0 1.6.2 1.6.7 3.1 1 4.8 5.8-3.7 12.2-6.8 18.3-9.3 1.2-1.4 2.5-2.7 3.7-4.1.4-.5 1-.8 1.7-1 4.9-2 9.8-5.2 13.5-9.2.1-.1.3-.3.3-.6-1.1-5.3 2.3-6.8 4.5-10.7.3-.5 0-.6-.4-.8-2.4-1.5-4.6-3.6-6.3-5.6-.4-.6-.6-1.3-.7-2-1.7-8.2 1.9-8.8 2.5-13.5 0-2.4.6-5.1 1.3-7.6.9-2.8 1.3-5.2 2.3-6.8.5-14.2 4.9-11 3.7-18.6-.3-1.5-1.1-4.3-2.1-6.2 0 0-.1-.1-.3-.1zM207 90h.2c.5 0 .9.4 1 .9.1.9.3 1.8.5 2.6-3.3 7.9-1.4 18.7-5.7 25.3-.2 5.8-.9 9.5-4.4 11.8-.1.1-.3.1-.5 0-5.5-2.7-10.4-8.3-15.2-12.7 7.5-4.9.7-10 6-15.5 6.2-6.5 11.6-7.2 17.3-12.1.3-.2.6-.3.8-.3zm-107 .4c.7 0 1.5.4 2 .9 5.5 2.4 5 4.6 9.3 6.8.9.5 2.5 1.3 3.7 1.6.6 1.9 1.5 1.9 3.5 5.3.5.8 2.3 2.2 2.4 3.4.1.7.1 1.4.1 2.1-.1 2-.9 3.8.2 4.7.9.5.3.9 1.9 1.7.8.4 1.2.8.8 1.6-1.3 2.2-2.9 4.1-4.3 6.1-.4.5-.9.9-1.5 1.2-3.1 1.9-5.7 4.5-8.5 7-.2.1-.3 0-.4 0-2.7-1.5-3.4-4.2-3.7-7.8-.9-9.7-2.9-1.3-6.1-30.1-.4-1.3-.9-3.6-.5-4.1.3-.3.7-.4 1.1-.4zm63 18.7c-2.5 4.6-3.7 4.2-5.2 6-.1.1-.2.3-.3.4-.1.2-.2.3-.3.5-.1.2-.2.3-.2.5s-.1.3-.1.5c.1 1.5-.2 2.1.2 2.6v.2c0 .1 0 .2-.1.3-.3-.2-.7-.5-1.1-.8-.3-.3-.5-.5-.6-.7v-.5c0-.3-.1-.3-.2-.7 0-.2-.1-.5-.1-1v-1c0-.2 0-.4.1-.5l.1-.1.1-.1c2.1-2.4 5.1-3.9 7.7-5.6zm-17.9.6c2.3 1.6 5 3.7 7.5 5.9.1.1.1.1.1.2.1.2.3.5.2.8-.2 1-.6 1.9-1 2.9 0 0 0 .1-.1.1l-.1.1h-.2c-.5-.6-1-1.2-1.4-1.8-.1-.2-.3-.4-.3-.6v-1.1c0-.3-.1-.5-.2-.7-.2-.4-.7-.6-1.3-.8-.6-.2-1-.4-1.5-.7-.6-.4-1-1-1.3-1.7-.2-.8-.4-1.6-.4-2.6zm31.1 22.6c.6 0 1.3 0 1.9.2.6.1 1.3.4 1.9.7.2.1.2.3 0 .4-.9.2-1.9.6-2.8.9-.5.2-.9.4-1.4.6-2.4 1.1-4.8 2.4-7.2 3.6-.3.1-.4.1-.5-.1 0-.1-.1-.1-.1-.2-.1-.3 0-.5 0-.8 0-.2.1-.5.1-.8 0-.4.3-.4.4-.6.5-.2.8-.3 1.2-.5.9-.4 1.3-.7 1.7-1 .2-.2.4-.4.7-.6.3-.2.7-.4 1.3-.7.4-.2.7-.3 1.1-.5.4-.2.7-.3 1.1-.4 0-.2.3-.2.6-.2zm-47.1.5h.1c.2.1.3.1.4.2.1.1.2.1.3.2.3.2.4.5 1.1.9.2.1.4.2.7.3.3.1.6.2 1 .3.9.3 1.6.5 2.2.7.6.2 1.2.5 1.9 1 .2.2.5.4.8.6.3.2.6.5 1 .8.1.1.3.2.3.4v.2c0 .1-.1.1-.1.2-.1.2-.2.3-.3.4l-.1.1h-.2c-.2 0-.4-.1-.6-.1-.2-.1-.3-.1-.5-.2-.1-.1-.3-.1-.4-.2l-.3-.3c-.2-.2-.4-.4-.7-.6-.1-.1-.3-.2-.5-.3l-.6-.3c-.2-.1-.4-.1-.6-.1-.1 0-.1 0-.2.1-.2.1-.5 0-.7-.1-.2 0-.4-.1-.6-.2-1.6-.7-3.4-2.2-3.4-4zm3.2 16.7h1.2c.4 0 .9.1 1.3.1.3.1.7.1 1 .2.1 0 .2 0 .3.1.2 0 .4.1.6.2.3.1.5.1.8.2.4.1.7.3 1.1.4.3.1.6.3 1 .5l.9.6c.3.2.5.3.8.5.1.1.2.1.3.2.2.1.4.3.6.4l.1.1s.1 0 .1.1c.1 0 .1.1.2.1.2.2.5.4.7.7l.9.9.1.1c.3.3.5.6.8.9.1.2.3.4.5.6.1.2.2.3.4.5.3.4.5.8.8 1.3.1.2.2.4.2.6 0 .1 0 .1-.1.2-.2.5-.4 1-.5 1.6 0 .1-.1.2-.2.2h-.1c-.4-.3-.8-.5-1.2-.8-.4-.3-.7-.5-1-.8-.3-.3-.6-.6-1-.9-2.8-2.6-4.8-5.5-8.6-6.2-1.7-.3-3.7-.3-6.4.4-.9.1-1.9.1-2.9 0s-2-.2-3-.4c-.5-.1-1-.2-1.4-.3-.4-.1-.9-.2-1.2-.3-.8-.2-1.4-.5-1.9-.7 2 0 4.2 0 6.1-.1s3.5-.2 4.2-.4l.9-.3c.3-.1.7-.2 1-.3h.1c.3-.1.7-.1 1.1-.2h.2c.3.1.7 0 1.2 0zm42 3.3c-1.7.1-3.5.7-5.6 2.6-3.2 3.1-5.8 7-7.9 10.6-.2.4-.3.9-.2 1.3 2.3 10.7 3.3 16 3.7 18.8l1.5-1.3c-.9-2.6-1.4-5.7-1.1-9.4 1.1-2.9 1.7-6.2 2.2-9.4 1.7-3.5 1.8-5 3.4-4.9 1.4.1 2.9.1 4.3-.1.5-.1 1-.3 1.4-.6 2.3-1.4 4.2-3.2 5.9-5.3.2-.2.3-.7.2-.9-.1-.2-.2-.2-.4-.2-2.2-.1-4.5-1.4-7.4-1.2zm-.7.2c.4 0 .9.1 1.3.3.9.3 1.5 1 1.9 1.8.2.4.3.8.3 1.3 0 .4-.1.9-.2 1.3-.2.4-.4.8-.7 1.1-.9.9-2.4 1.3-3.7.8l-.6-.3c-.2-.1-.3-.3-.5-.4-1-.9-1.3-2.4-.8-3.7.1-.2.1-.3.2-.5h.1c0-.1.1-.1.1-.2l.3-.3.1-.1c.1-.1.3-.3.5-.4.1-.1.3-.2.4-.2h.1l.1-.1c.2-.1.4-.1.6-.2 0-.1.3-.2.5-.2zm-38.5.1c.4 0 .9.1 1.3.2l.6.3c.2.1.3.3.5.4.2.2.3.3.4.5.2.4.4.8.5 1.2.1.6.1 1.3-.2 2l-.3.6c-.5.8-1.3 1.3-2.1 1.5-.4.1-.9.1-1.3 0-.2 0-.5-.1-.7-.2l-.6-.3c-.4-.2-.7-.6-.9-.9-.6-.9-.8-2.1-.4-3.2l.3-.6c.1-.2.2-.3.4-.5 0 0 .1 0 .1-.1.1-.1.3-.3.5-.4.1-.1.3-.2.4-.2.1-.1.3-.1.4-.1.1 0 .3-.1.4-.1.4-.1.5-.1.7-.1zm-10.9 1.7h.4c.2 0 .3.1.5.1l.6.3c.2.1.4.3.7.4h.1c.2.2.4.3.6.5.2.2.5.3.7.6.5.4 1 .8 1.6 1.2l.9.6c.2.2.5.3.8.5.1.1.2.1.3.2.3.2.6.3.9.5.3.2.6.3 1 .4.1 0 .2.1.3.1.3.1.7.2 1.1.3.4.1.9.2 1.3.3.5.1.9.1 1.4.2.5 0 1 .1 1.5.1.1 0 .2 0 .2.1.1 0 .1.1.1.2 0 .8-.7 1.1-1.6 1.2h-1.5c-1.5 0-2.9-.2-4.3-.4-.2 0-.3-.1-.4-.1-.1-.1-.3-.1-.4-.2-.4-.3-.9-.6-1.4-1-.5-.4-.9-.8-1.4-1.2-.5-.4-.9-.8-1.2-1.1-.4-.3-.6-.6-.8-.8-.2-.2-.4-.3-.5-.5-.1-.1-.2-.3-.3-.4-.2-.2-.3-.4-.4-.5l-.2-.2c-.2-.2-.5-.4-1.2-.8-.1 0-.1-.1-.1-.1v-.1s0-.1.1-.1c.1-.1.2-.1.2-.1.1 0 .1-.1.2-.1 0-.1.1-.1.2-.1z" style="fill-rule:evenodd;clip-rule:evenodd;fill:#fdbe11"/></svg>