<svg version="1.1" id="Layer_1" xmlns="http://www.w3.org/2000/svg" x="0" y="0" viewBox="0 0 300 300" style="enable-background:new 0 0 300 300" xml:space="preserve"><style>.st0{fill:#dba111}.st1{fill:#034694}.st2{fill:#fff}.st4{fill:#ed1c24}</style><path class="st0" d="M118.7 69.8c0 57.8-46.9 104.7-104.7 104.7-57.8 0-104.7-46.9-104.7-104.7C-90.8 12-43.9-34.9 14-34.9c57.8 0 104.7 46.9 104.7 104.7" transform="translate(130 50) scale(1.43214)"/><path class="st1" d="M115.2 69.8C115.2 125.7 69.9 171 14 171c-55.9 0-101.2-45.3-101.2-101.2S-42-31.4 14-31.4c55.9 0 101.2 45.3 101.2 101.2" transform="translate(130 50) scale(1.43214)"/><path class="st0" d="M86.1 69.8c0 39.8-32.3 72.1-72.2 72.1-39.8 0-72.2-32.3-72.2-72.1C-58.2 30-25.9-2.3 14-2.3c39.8 0 72.1 32.3 72.1 72.1" transform="translate(130 50) scale(1.43214)"/><path class="st2" d="M83.9 69.8c0 38.6-31.3 70-70 70-38.6 0-70-31.3-70-70s31.3-70 70-70c38.7.1 70 31.4 70 70" transform="translate(130 50) scale(1.43214)"/><path class="st0" d="M-46 130.2c.8.7 2.7 2.6 2.7 2.6l1.8-1.9-5.4-5.2-.7.7-7.3 7.7 2.8 2.6s2.3-2.5 3.2-3.4c.7.7 2.4 2.3 2.4 2.3l1.8-1.9s-1.7-1.6-2.4-2.3c.4-.5.7-.7 1.1-1.2M-32.9 138.9c-.2-1.5-1.1-2.8-2.3-3.7-1.2-.9-2.7-1.2-4.2-1-1.6.3-3 1.2-4 2.6-1 1.4-1.4 3.1-1.1 4.6.2 1.5 1.1 2.8 2.3 3.6 1.2.9 2.7 1.2 4.2 1 1.6-.3 3-1.2 4-2.6.8-1.1 1.2-2.4 1.2-3.7 0-.1 0-.4-.1-.8m-7.8 4.1c-1.3-.9-.2-2.8.5-3.8s2.2-2.7 3.4-1.8c1.3.9.1 3-.5 3.8-.5.9-2 2.8-3.4 1.8zM-24.3 141.8c-2.9-1.5-6.3-.3-7.9 2.8-.8 1.5-.9 3.2-.4 4.8.5 1.4 1.5 2.6 2.8 3.3 1.4.7 2.9.8 4.3.3 1.5-.5 2.8-1.6 3.6-3.2 1.6-3 .5-6.5-2.4-8m-3.2 8.6c-.3.1-.7.1-1-.1-.6-.3-.8-.8-.8-1.4 0-.8.4-1.8.7-2.4.6-1.1 1.8-2.9 3.1-2.2.4.2.6.4.7.8.2.7 0 1.9-.6 3.1-.6 1.1-1.4 2-2.1 2.2zM-18.2 146.1l-.5 1.5s1.4.5 1.8.6c-.5 1.5-3 8.5-3 8.5l3.6 1.3s2.4-6.9 3-8.4c.4.1 1.8.6 1.8.6l.9-2.5-7.2-2.5-.4.9zM-3.2 149.4l-4.9-1-.2 1-2.2 10.4 5 1.1c1.6.3 2.6-.1 3.2-.4.8-.5 1.3-1.3 1.5-2.3.1-.3.1-.5.1-.8 0-.7-.2-1.3-.6-1.9.6-.4 1-1.1 1.1-1.9 0-.2.1-.4.1-.7-.1-1.3-.8-3-3.1-3.5m-1.4 8c-.1.2-.1.6-.3.7-.2.1-.5.1-.9 0 0 0-.2 0-.4-.1.2-.7.3-1.2.4-2 .2.1.5.1.5.1.6.1.8.6.8 1 0 .1-.1.2-.1.3zm-.3-5.6c.4.1.7.3.9.4.1.1.1.2.1.3v.3c-.1.3-.2.7-1 .6 0 0-.1 0-.2-.1 0-.5 0-.9.2-1.5zM5.8 151.1.5 162l3 .2s.8-1.7 1.1-2.4c.6.1 1.3.1 1.9.1.2.7.8 2.6.8 2.6l4 .3-4.5-14-1 2.3zM17.7 159.8c-.1-1.6-.4-8.8-.4-8.8l-3.8.2.5 11.6 7.7-.3-.1-2.8c0-.1-2.8.1-3.9.1M28.2 158.7c-.2-1.6-1.4-8.7-1.4-8.7l-1 .2-2.8.4 1.8 11.5 7.6-1.2-.4-2.8s-2.7.4-3.8.6M50.2 151c0 1-.6 1.9-1.5 2.2-.5.2-1 .2-1.5 0-.7-.3-1.4-1.1-1.8-2.2-.5-1.2-.6-2.3-.3-3 .2-.5.6-.9 1.3-1.2.7-.3 1.4 0 2.3.5l.9.5 1.4-2.2-.8-.6c-1.5-1-3.4-1.2-5.1-.6-1.5.6-2.7 1.8-3.3 3.2-.6 1.5-.6 3.2 0 4.8 1.2 3 4.7 4.5 7.7 3.3 2.2-.9 3.4-2.5 3.6-4.8l.1-1-2.8-.2-.2 1.3zM59.1 147.8c-.8-1.4-4.3-7.7-4.3-7.7l-.9.5-2.5 1.4 5.7 10.1 6.7-3.7-1.4-2.4c.1-.1-2.3 1.3-3.3 1.8M66.6 132.2l-.8.6-1.4 1.1 4.7 6.4c.2.3.2.5.2.6 0 .3-.4.7-.7.9-.1.1-.5.2-.8.2-.2 0-.4-.2-.6-.4l-4.6-6.3-3.1 2.3 4.6 6.3c.7.9 1.5 1.5 2.5 1.6 1.1.2 2.4-.2 3.6-1.1 2.4-1.8 2.4-4.1 1.3-5.6l-4.9-6.6zM80.7 129.9c-.7-.7-1.6-1.1-2.5-1-.1-.7-.3-1.4-.9-2-1-1-3.1-1.8-5.1.2l-3.6 3.5 8.1 8.3 3.6-3.5c1.2-1.1 1.4-2.2 1.4-2.9 0-1-.3-1.9-1-2.6m-6.1-.3c.1.1.3.3.3.5s-.1.4-.4.6l-.2.2c-.5-.5-.7-.7-1.1-1.2.8-.7 1.1-.4 1.4-.1zm1.9 2.8c.7-.6 1.3-.1 1.5.1.2.2.4.4.4.6 0 .2-.2.5-.5.8l-.3.3c-.5-.5-.9-.9-1.4-1.5l.3-.3z" transform="translate(130 50) scale(1.43214)"/><path class="st2" d="M-46 129.1c.3.3 2.7 2.6 2.7 2.6l.8-.8-4.3-4.1-.2.2-6.8 7.1 1.7 1.6s2.9-3 3.2-3.4c.3.3 2.4 2.3 2.4 2.3l.8-.8s-2.1-2-2.4-2.3c.2-.4 1.8-2.1 2.1-2.4M-35.6 135.9c-1.1-.8-2.4-1.1-3.6-.9-1.4.2-2.6 1.1-3.5 2.3-.9 1.2-1.2 2.7-1 4.1.2 1.3.9 2.4 2 3.2 1.1.8 2.4 1.1 3.6.9 1.4-.2 2.6-1 3.5-2.3.7-1 1.1-2.1 1.1-3.2 0-.3 0-.6-.1-.8-.2-1.4-.9-2.5-2-3.3m-1 5.8c-.7 1-2.6 3.3-4.5 1.9-1.9-1.3-.4-3.9.3-4.9.7-1 2.6-3.3 4.5-1.9s.4 3.9-.3 4.9zM-24.6 142.5c-2.5-1.3-5.5-.2-6.9 2.5-.7 1.4-.8 2.8-.4 4.2.4 1.2 1.3 2.2 2.5 2.8 1.2.6 2.5.7 3.7.3 1.3-.4 2.4-1.4 3.1-2.8 1.4-2.7.5-5.7-2-7m-4.3 8.5c-2.1-1-1-3.8-.4-4.9.6-1.1 2.1-3.6 4.2-2.6.5.3.9.7 1.1 1.2.4 1.2-.3 2.8-.7 3.7-.4.8-1.3 2.3-2.6 2.7-.5.2-1.1.2-1.6-.1zM-17.5 146.3l-.3.8s1.4.5 1.8.6c-.2.5-3 8.4-3 8.4l2.2.8s2.8-8 3-8.4c.4.1 1.8.6 1.8.6l.4-1.1-5.8-2-.1.3zM-3.4 150.2l-4.1-.9-.1.3-2 9.6 4.2.9c1.1.2 2 .1 2.7-.3.6-.4 1-1 1.2-1.8 0-.2.1-.4.1-.6 0-.8-.4-1.6-1.2-2.1.9-.2 1.5-.9 1.7-1.8 0-.1.1-.3.1-.5-.1-1-.6-2.4-2.6-2.8m-1.4.8c.7.1 1.2.4 1.4.8.1.2.2.5.2.8 0 .1 0 .3-.1.5-.3 1.3-1.3 1.3-1.9 1.1 0 0-.6-.1-1-.2.1-.4.6-2.7.6-3.1.4.1.8.1.8.1zm-.4 4.3c1.2.2 1.4 1.2 1.4 1.7v.4c-.1.6-.3.9-.7 1.1-.3.2-.8.3-1.5.1 0 0-.8-.2-1.2-.2.1-.4.7-3.1.7-3.5.5.2 1.3.4 1.3.4zM6.5 151.5l-4.8 9.9 1.4.1s1-2.1 1.2-2.4c.3 0 2.7.2 2.9.2.1.3.8 2.6.8 2.6l2.4.2L6.8 151l-.3.5zm-.6 3.9c.2.7.7 2.2.8 2.6-.5 0-1.6-.1-2-.2.2-.3.9-1.7 1.2-2.4zM17 160.6c0-.5-.4-8.8-.4-8.8h-.2l-2.1.1.4 10.1 6.2-.3-.1-1.3s-3.4.2-3.8.2M27.6 159.6c-.1-.5-1.4-8.7-1.4-8.7H26l-2 .3 1.6 10 6.1-1-.2-1.2c-.1 0-3.5.5-3.9.6M50.9 151c0 1.3-.8 2.4-2 2.9-.7.3-1.4.3-2.1 0-.9-.4-1.8-1.3-2.3-2.6-.6-1.4-.7-2.6-.3-3.6.3-.7.9-1.2 1.7-1.6 1.1-.4 2.1.1 3 .6l.2.1.6-1-.2-.1c-1.3-.9-3-1.1-4.4-.5-1.3.5-2.4 1.5-2.9 2.8-.6 1.3-.6 2.8 0 4.2 1.1 2.7 4.1 4 6.7 2.9 1.9-.8 2.9-2.1 3.1-4.1v-.3l-1.2-.1.1.4M58.8 148.8c-.2-.4-4.3-7.7-4.3-7.7l-.2.1-1.8 1 4.9 8.8 5.4-3-.6-1.1c0 .1-3 1.7-3.4 1.9M66.4 133.2l-.2.2-.8.6 4.3 5.8c.3.4.4.8.3 1.2-.1.7-.7 1.2-1 1.4-.3.2-.9.4-1.4.3-.4-.1-.8-.3-1.1-.7l-4.2-5.7-1.9 1.4 4.2 5.7c.6.8 1.2 1.2 2 1.3 1.2.2 2.4-.5 3-.9 2-1.5 2-3.3 1.2-4.5l-4.4-6.1zM80.1 130.4c-.8-.8-1.8-1-2.8-.6.1-.2.1-.5.1-.7 0-.6-.2-1.2-.7-1.7-.6-.7-2.3-1.5-4 .2l-3 2.9 7 7.2 3.1-3c.8-.8 1.2-1.6 1.2-2.4 0-.7-.3-1.3-.9-1.9m-4.5-.3c0 .5-.3.9-.6 1.2l-.7.7c-.3-.3-1.9-2-2.2-2.3l.5-.5c.9-.9 1.8-1 2.5-.2.4.4.5.7.5 1.1zm1.9 5.2c-.3-.3-2.2-2.3-2.5-2.6l.9-.9c1.2-1.2 2.5.1 2.5.1.4.4.6.8.6 1.2 0 .4-.2.9-.7 1.3.1.1-.5.7-.8.9z" transform="translate(130 50) scale(1.43214)"/><path class="st0" d="M-32.6.8-36.8 2l.5 1.5c.6 1.8.1 3.8-1.4 5-.8.7-1.7 1-2.7 1-1.5-.1-3.3-1.1-4.7-2.7-1.6-1.9-2.4-3.6-2.3-5.1.1-1.1.6-2.1 1.6-3 1.1-1 2.6-1 4.5-.6l1.4.3.9-4.1-1.3-.3c-3.1-.8-6.4 0-8.7 2-4.6 4-4.9 10.5-.9 15.2 3.8 4.3 10.4 4.8 14.6 1.1 3.1-2.7 4.2-6.1 3.1-10l-.4-1.5zM-21.1-20.4l-4.3 2s2.4 5.1 3.2 6.9c-1.2.6-2.4 1.1-3.7 1.7-.8-1.8-3.2-6.9-3.2-6.9l-5.7 2.7 8.7 18.4 5.7-2.7S-23.1-4-24-5.8c1.2-.6 2.4-1.1 3.7-1.7.9 1.8 3.6 7.5 3.6 7.5l5.7-2.7-8.7-18.4-1.4.7zM-1.8-9c-.3-1.4-.6-2.8-.8-4.1 1.8-.4 6.4-1.3 6.4-1.3L3-18.5s-4.7.9-6.4 1.3c-.3-1.3-.5-2.3-.7-3.6 1.8-.4 6.8-1.4 6.8-1.4l-.8-4.1-1.5.3-11.5 2.3 4 19.9L6-6.3l-.8-4.1c-.1 0-5.2 1-7 1.4M16.8-26.7l-6.3-.1v1.5l-.4 18.8 13.2.3.1-4.4s-5.1-.1-6.9-.1c0-2.6.3-16 .3-16M37.2-16.5c-1.6-1.2-2.1-1.7-1.9-2.3.1-.3.5-1.4 1.6-1.1.7.2 1.4.6 1.7 2.1l.3 1.7 4.2-1.4-.3-1.3c-.5-2.6-2.7-4.8-5.4-5.4-2-.5-3.9-.2-5.5.7-1.5.9-2.5 2.3-2.9 3.9-1 4.2 1.8 6.2 3.6 7.5 1.9 1.4 2.4 1.9 2.1 3-.1.4-.3.6-.6.8-.4.2-.9.3-1.2.2-1-.2-1.4-.7-1.9-2l-.5-1.6-4.2 1.7.4 1.3c.8 2.6 2.7 4.2 5.7 5 3.4.9 7.6-.7 8.6-4.8 1.1-4.3-1.8-6.5-3.8-8M52.3-5.6c1.6.8 5.9 3 5.9 3L60-6.4s-4.3-2.2-5.9-3c.6-1.1 1.1-2.1 1.6-3.2 1.7.8 6.2 3.1 6.2 3.1l1.9-3.7-11.8-6-.7 1.4L42.9-1l11.9 6 1.9-3.7S52.1-1 50.4-1.9c.6-1.2 1.2-2.5 1.9-3.7M75.8-3.7l-19 9.8 3.6 3.2s3.1-1.7 4.3-2.3c.8.7 2.1 1.8 2.9 2.5-.4 1.2-1.6 4.6-1.6 4.6l5 4.3 8.1-23.9-3.3 1.8z" transform="translate(130 50) scale(1.43214)"/><path class="st2" d="m-33.3 2.1-2.2.6.2.5c.7 2.2.1 4.6-1.7 6.1-1 .9-2.2 1.3-3.5 1.2-1.8-.1-3.8-1.2-5.4-3-1.8-2.1-2.7-4.1-2.6-5.9.1-1.4.8-2.6 2-3.7 1.6-1.4 3.6-1.1 5.4-.8l.5.1.5-2.1-.5-.1c-2.8-.7-5.7 0-7.8 1.8-4.1 3.6-4.5 9.5-.8 13.8 3.4 3.9 9.3 4.3 13.2 1 2.8-2.5 3.7-5.5 2.8-8.9l-.1-.6zM-20.6-19.5l-3.4 1.6s2.9 6.1 3.2 6.9c-.7.3-4.8 2.3-5.5 2.6-.4-.8-3.2-6.9-3.2-6.9l-3.9 1.8 7.8 16.6 3.9-1.8s-3.2-6.7-3.6-7.5c.7-.3 4.8-2.2 5.5-2.6.4.8 3.6 7.5 3.6 7.5l3.9-1.8-7.8-16.6-.5.2zM-2.6-7.8c-.2-.8-1.1-5.3-1.2-6.1.8-.2 6.4-1.3 6.4-1.3l-.4-2.1s-5.6 1.1-6.4 1.3c-.2-.8-1-4.8-1.1-5.5.9-.2 6.8-1.4 6.8-1.4L1-25l-11 2.2 3.6 17.9L4.8-7.1l-.5-2.1s-6 1.2-6.9 1.4M15.8-25.7l-4.3-.1v.5l-.4 17.8 11.2.2.1-2.4s-6.1-.1-6.9-.1c0-.9.3-15.9.3-15.9M37.2-20.9c1.4.3 2.1 1.2 2.5 2.9l.1.6 2.2-.8-.1-.4c-.4-2.2-2.3-4.1-4.7-4.7-1.7-.4-3.4-.2-4.8.6-1.2.7-2.1 1.9-2.5 3.3-.9 3.5 1.4 5.1 3.2 6.4 1.8 1.3 3 2.2 2.5 4.1-.2.8-.7 1.2-1.1 1.5-.6.4-1.4.5-2 .3-1.3-.3-2-1.1-2.6-2.7l-.2-.5-2.3.9.1.4c.7 2.2 2.3 3.6 5 4.3 3 .7 6.5-.6 7.4-4.1.9-3.7-1.5-5.5-3.5-6.9-1.7-1.2-2.7-2-2.3-3.4.5-1.2 1.5-2.2 3.1-1.8M55.3-13.9l6.2 3.1 1-1.9-10-5.1-.2.5-8 15.9 10.1 5.1 1-1.9S49.9-1 49.1-1.4c.4-.7 2.4-4.8 2.8-5.6.8.4 5.9 3 5.9 3l1-1.9s-5.1-2.6-5.9-3c.2-.7 2.1-4.3 2.4-5M76.3-2.8 58.7 6.3l2 1.7s3.7-2 4.3-2.3c.4.4 3.5 3.1 4 3.5-.2.6-1.6 4.6-1.6 4.6l3.3 2.9 6.8-20.1-1.2.6zM67 4.7c.8-.4 3-1.5 4.3-2.2-.5 1.4-1.3 3.7-1.6 4.5-.7-.5-2.1-1.7-2.7-2.3z" transform="translate(130 50) scale(1.43214)"/><path d="M64 67.1c-1.4-3.8-6.4-5.5-11.1-3.7-2 .7-3.6 2-4.7 3.4C51.3 57.9 64 56 64 47.8c0-13.8-19.6-10-16.8 0 0-4.5 7.2-5.3 7.2 0s-12.5 8.9-12.5 17.9c0 10 10 10.9 9 20-.2 1.6-1.9 3.6-4.3 3.6-15.3 0-9.8-18.8-15.1-24.5l.3-3.9c3.1 1.9 11.3-2.5 5.9-9.3 0 3.3-6.9 3.1-6.9-3.1 0-8.5 7.9-4.1 8.3-2.2-.4-3.1-.5-5.1 0-6.8-4.3 1.4-4.7-1.1-4.1-2.1.6-1.1 1.4-2.4 3.1-2.4.9 0 1.4.1 1.8.3.5.4.9-.5.8.3.5-.7.3.2.7-.5.4-.7 1.1-1.5 2.1-2.5V31l1.2.5 1.2-1.9c-1.3-2.7-3-1.4-4.3-4.7-1.1-.3-17.9 1.5-17.4-5.2-1.4 0-4.6.8-2.6 3.5-1.6.2-2.7-1.6-5 3.2 2.9-.6 1.4 2.7 1.4 3.7 0 6.1-8.1 6-8.1 3.1-1.9 1.9-.8 6 2.1 7.1 0 0-1.1 4.4-3.9 7.2C4 47.3-2.6 46.6-6.4 43c-1.6-1.5-2.9-2.4-4-2.8v-2c1.6-.8 3.4-2.2 5.2-4.5 1.4-1.8 2.2-4 2-6.4 0-.3-.1-.6-.1-.8 0-.1 0-.2-.1-.3 0-.2-.1-.4-.1-.6 0-.1-.1-.2-.1-.3-.3-.1-.4-.3-.4-.5 0-.1-.1-.2-.1-.2-.1-.2-.2-.5-.3-.7-.1-.1-.1-.2-.2-.3-.1-.1-.2-.3-.3-.4-.1-.1-.1-.2-.2-.3-.1-.1-.2-.2-.2-.3l-.3-.3-.2-.2c-.2-.3-.5-.5-.8-.7 0 0-.1 0-.1-.1-.2-.1-.3-.3-.5-.4l-.1-.1c-.2-.1-.3-.2-.5-.3-1.7-1.1-3.8-1.6-6-1.4-5.3.4-9.3 4.9-8.8 9.9.3 3.9 3.2 7.1 7 8.1-1.3.7-2.4 1.2-2.7 1.2 0 0 .1.1.2.1h.1c.1 0 .1.1.2.1s.2.1.3.1c.1 0 .2.1.3.1h.1c.2.1.5.2.8.3h.1c.1 0 .2.1.4.1h.1c.2 0 .3.1.5.1v1.1h-.2c-1.7.3-2.8.8-3.4 2.4-.5 1.5 0 2.1.8 3.2-.7 1.2-2.5 1.7-.1 4.4-.2 1 0 2.6 1.5 3.1.5.2.9.3 1.3.3v20.2c-1.5.8-2.2 1.8-2.6 2.7 0 0-1.2-2.6-1.1 2.6 1.3-1 .8 1.2.8 1.2-1.8 2.4.5 2.3.5 2.3 1.6-1.6 1.3.7 1.3.7 0 2.8 1.1 3.9 1.1 3.9v15.4h-1.3v4.3h2.3c-1.3.5-2.2 1.8-2.1 3.3.2 1.8 1.8 3.2 3.7 3 1.9-.2 3.3-1.7 3.2-3.6-.1-1.3-.9-2.3-2.1-2.8h2.2v-4.3h-1.3V88.9l.9.3H-9.2c-.3-1.8.7-3 .7-3 .6-.8 1.3-1.5 2.3-1.9 2.7-1.4 6.4-1 7.5 1.2 7-1.8 13-8.9 13-8.9l3.5 5.9C10.4 85-5.5 98.9 5.5 103.7c0 1.4-.2 11.8-6.8 10.9-9.6-1.2-12 2.8-10.1 7.2-.9 3.8 2 5.1 2 5.1-.4-2.2.6-4 4.6-3.9 0 4 2.5 4.7 2.5 4.7 0-3.4 2.4-4.6 4.5-4.6 0 2.8 3.2 3.9 3.2 3.9s-.8-3.2 2.8-3.9c9.3-1.6.6-11.2 14.7-13.8 0 0-7-1.1-7-4.9 0-3.5 6.4-5.9 8.6-5.9 4.5 8.6 9.4 8.7 10.7 8.7 2 2.2 1.3 9.7-1.5 9.6-10.5-.6-10.1 5.8-9 7.1-.1 2.5 1.8 3.9 1.8 3.9 0-2.7 2.5-3.4 5.8-3.2-.2 3.3 1.9 3.7 1.9 3.7.1-3.3 2.5-3.8 4.2-3.7-.1 2.3 2.1 3 2.1 3s-.2-2.9 2.8-2.9c5.8 0-2.6-12.5 8.7-24.8-10 4.6-15.3-6.9-15.3-9.1 5.1 6 21.7 7.2 21.7-3 0-9.8-10.7-13.4-5.7-17.2 2.9-2.2 8.7 2.2 5.4 6.8 4.7-1.9 7.3-6.5 5.9-10.3m-63.7.3c-3.8 2.2-6.3 5-9.7 6.2-.5.2-.9.2-1.3.2V54.7c.9.1 3.3.4 6 1.5 2.7 1.5 2.7 4.6-.7 5.3 2.2 4.2 9.7 2.1 11.3-1.3.8-.1 1.5 1.4 2.2 2.7-1 .7-3.2 1.8-7.8 4.5zm42.1-31.7c-.4.6-.8 1.1-1.2 1.6 1 1.6 2.7 2.6 4.7 2.4 2.7-.3 4.7-2.7 4.5-5.4V34c-.3 1.4-1.9 2.6-4.1 2.8-1.6.2-3.1-.3-3.9-1.1z" style="fill:#d1d3d4" transform="translate(130 50) scale(1.43214)"/><path class="st1" d="M-18.3 24.3c0-.1.1-.2.1-.3-.1.1-.1.2-.1.3m.1 80s.1 0 0 0c.1 0 0 0 0 0zm-.1-88.2zm-1.4 87.7h2.3c-.3.1-.5.3-.8.5.2-.1.5-.1.7-.1 1.2 0 2.1 1 2.1 2.1 0 1.2-1 2.1-2.1 2.1-1 0-1.8-.6-2-1.5v.2c.2 1.8 1.8 3.2 3.7 3 1.9-.1 3.3-1.7 3.2-3.6-.1-1.2-.9-2.3-2.1-2.7h2.2v-4.3h-1.3V85.9c-1.3-.7-2-2.1-1.7-3.6.8 0 1.5.2 2 .5-.7 1.6 1.1 3.4 1.1 3.4-.3-1.8.7-3 .7-3 .6-.8 1.4-1.5 2.3-1.9 2.7-1.4 6.4-1 7.5 1.2 7-1.8 13-8.9 13-8.9l3.5 5.9c8.1 0 5.3-6.1 4.7-6.6 1.9 0 4.5 1.4 4.5 4.4 0 7.5-21.7 8.5-21.7 17.6 0 3.8 3.8 5.2 3.8 5.2 0 8.2-5.7 13.2-9.5 13.2-6.2 0-10.9-1.3-10.9 5.5h2.2c-2.1 2.1-.1 5.1-.1 5.1-.4-2.2.6-4 4.6-3.9h2.5c-1.6 1.6-.7 3.9.1 4.7 0-3.4 2.4-4.6 4.5-4.6h1.8c-.5.5.3 2.7 1.4 3.9 0 0-.8-3.2 2.8-3.9 9.3-1.6.6-11.2 14.7-13.8 0 0-7-1.1-7-4.9 0-3.5 6.4-5.9 8.5-5.9 1.7-.2 3.4-.2 4.8.1.6 5.5 6.9 5.3 8.3 5.3 5.4 5.4-1.4 14.1-1.4 14.1-8.3 0-11.6 1.1-11.6 6h1.6c-.9.9-.4 3.3.2 3.9 0-2.7 2.5-3.4 5.8-3.2h1.7c-.8.8-.7 2.9.2 3.7 0-3.3 2.5-3.8 4.2-3.7h1.4c-.5.5 0 2.2.7 3 0 0-.2-2.9 2.8-2.9 5.8 0-2.6-12.5 8.7-24.8-10 4.6-15.3-6.9-15.3-9.1 5.1 6 21.7 7.2 21.7-3 0-8.3-7.7-12.1-7-15.4.2-2.5 2.3-4.5 4.9-4.5 2.7 0 4.9 2.2 4.9 4.9 0 2.1-1.3 3.8-3.1 4.5 4.7-1.7 7.3-6.3 5.9-10.1-1.5-3.8-6.4-5.5-11.1-3.7-2 .7-3.6 2-4.7 3.4 3.1-8.9 15.8-10.8 15.8-19 0-13.8-19.6-10-16.8 0v-.4c.5-5.6 10.6-6.8 10.6.6 0 6.3-12.9 9.7-12.9 18.2 0 8.7 9.5 10.8 9.5 20 0 1.1-.6 5.8-6.9 5.8-6.1 0-9-3.4-10.7-7.9-3.1-6-2-15.4-5.5-19.1l.3-3.9c3.1 1.9 11.3-2.5 5.9-9.3 0 3.3-6.9 3.1-6.9-3.1 0-8.5 7.9-4.1 8.3-2.2-.4-3.1-.5-5.1 0-6.8-4.3 1.4-4.7-1.1-4.1-2.1.6-1.1 1.5-2.4 3.1-2.4 2.4 0 2.3.9 2.1 2.1.9-1.4 1.2-2.4 3.3-4.5v-1.6l1.2.5 1.2-1.9c-1.3-2.7-3-1.4-4.3-4.7-1.1-.3-15.2-1.6-14.7-8.3-1.2 0-4.7 4.3-2.4 6.6h-2.9c-1.6.2-5.2-.9-7.6 3.9 5.8-5.8 9.5 8-1.1 8-1.6 0-2.9-.7-3-1.8-1.1 4.7 5.7 6.1 5.7 6.1 0 1.4-3.4 8.9-5 10.5 1.1 1.1 1.4 7.8-3.6 7.8 1.8-5-3.6-9.2-8.8-12-.9-.4-1.9-.8-2.7-1.3-3.2-1.5-5.8-2.3-5.8-2.3v-3.9c1.6-.8 3.4-2.2 5.2-4.5 1.4-1.8 2.2-4 2-6.4 0-.3-.1-.6-.1-.8 0-.1 0-.2-.1-.3 0-.2-.1-.4-.1-.6 0-.1-.1-.2-.1-.3-.1-.2-.1-.4-.2-.6 0-.1-.1-.2-.1-.2-.1-.2-.2-.5-.3-.7 0-.1-.1-.2-.2-.3-.1-.1-.2-.3-.3-.4-.1-.5-.2-.6-.2-.7-.1-.1-.2-.2-.2-.3l-.3-.3c-.1-.1-.2-.2-.3-.2-.2-.3-.5-.5-.8-.7l-.1-.1c-.2-.1-.3-.3-.5-.4l-.1-.1c-.2-.1-.3-.2-.5-.3-1.7-1.1-3.8-1.6-6-1.4-.5 0-.9.1-1.4.2-3.1 1.2-5.3 4.7-5.3 9 0 4 2 7.4 4.8 8.8h.1c-1.3.7-2.4 1.2-2.7 1.2 0 0 .1.1.2.1s.1.1.2.1h.1c.1 0 .2.1.3.1.1 0 .2.1.3.1h.1c.2.1.5.2.8.3h.1c.1 0 .2.1.3.1h.1c.2 0 .3.1.5.1 1 .1 2.2-.2 2.2-.2v2.3c-.2 0-1.8-.5-2.2-.9h-.2c-1.7.3-2.8.8-3.4 2.4-.5 1.5 0 2.1.8 3.2-.7 1.2-2.5 1.7-.1 4.4-.2 1 0 2.6 1.5 3.1.5.2.9.2 1.3.3.9 0 2.2.7 2.2 2.6v17.4c.8 0 1.7.2 2.5.2V51.7c.9.1 3.3.4 6 1.5 0 0 .1 0 .1.1.3 0 .5.1.8.2 1.8.6 3 2.2 2.5 3.6-.4 1.4-2.3 2.1-4.1 1.5 2.2 4.2 9.7 2.1 11.3-1.3.8-.1 1.5 1.4 2.2 2.7 0 0 1.9.7 6.6.7 0 0-18.9 12.1-24.4 12.1-2.3 0-7.5 0-7.5 1.8-1.4 0-3.5 2.4-3.5 3.8 1.3-1.1 2.4-1.1 2.4-1.1 1.1 0 1.8.3 1.8.3-.4.4-2.3 2.5-2.3 4.2 1.6-1.6 2.3-1.6 2.3-1.6s1.7-.2 2.2.4c-.4.4-1.1 1.8-1.1 3.5 0 0 1-1.9 2.2-1.9v18.2c0 .6-2.5 1.1-3.5 1.1m.9-52.6c-.5 0-.7-.6-.7-.8 0-.2.2-.8.6-.9 1.1 0 3.3.5 3.3.7 0 .2-2.1.9-3.2 1zm-.8-3c-.6 0-.9-.9-.8-1.2 0-.3.4-1.1 1-1.1 1.5.1 4.5 1.2 4.5 1.5 0 .3-3.1.9-4.7.8zm-.2-3.9c-.7-.2-.7-1.2-.7-1.5.1-.3.6-1.1 1.3-1 1.6.4 4.6 2.2 4.5 2.5 0 .4-3.5.5-5.1 0zm5-10.8c.3-.7.2-1.6 0-2.5h-.1c-2 0-3.5-1.6-3.5-3.5 0-.3 0-.7.1-1 .4-1.5 1.8-2.6 3.4-2.6 1.9 0 3.5 1.6 3.5 3.5.1 2.4-1.5 4.5-3.4 6.1z" transform="translate(130 50) scale(1.43214)"/><path class="st4" d="M38.1 34.3c.9 1.6 2.7 2.6 4.7 2.4 2.7-.3 4.7-2.7 4.5-5.4V31c-.3 1.4-2 2.6-4.1 2.8-1.6.2-3-.3-3.9-1.1-.4.6-.8 1.1-1.2 1.6" transform="translate(130 50) scale(1.43214)"/><path class="st2" d="m31.5 25.1 1.7.1-.9 1.2c.1 0-1 .4-.8-1.3m-4 0H30s-.1 2 1.7 2.2l-.4.6s-4.9-1.2-3.8-2.8z" transform="translate(130 50) scale(1.43214)"/><path d="M-14.8 42.1c.1-.3-2.9-2.1-4.5-2.5-.7-.2-1.2.6-1.3 1-.1.3 0 1.3.7 1.5 1.6.4 5.1.3 5.1 0m-.2 3c0-.3-2.9-1.4-4.5-1.5-.6 0-1 .8-1 1.1 0 .3.2 1.2.8 1.2 1.6.1 4.7-.5 4.7-.8zm-3.4-9v1.1c.4.4 2 .9 2.2.9v-2.3c0 .1-1.2.4-2.2.3zm-.6 11.1c-.5 0-.6.6-.6.9 0 .2.2.8.7.8 1.1 0 3.3-.7 3.3-1-.1-.2-2.3-.7-3.4-.7zm-2.3 30.1c-1.8 2.4-.5 4.5-.5 4.5 0-1.7 1.9-3.8 2.3-4.2 0 .1-.6-.3-1.8-.3zm5.9 5.1c-.3 1.5.4 2.9 1.7 3.6l.9.3c.1 0 .3 0 .4.1h.2s-1.9-1.7-1.1-3.4c-.6-.4-1.3-.6-2.1-.6zm-3.4-48.6c-2.8-1.4-4.8-4.8-4.8-8.8 0-4.2 2.2-7.8 5.3-9-4.6 1-7.8 5.1-7.4 9.7.4 4 3.2 7.1 6.9 8.1zm29.5-9.7c3-.6 4 2.1 4 3 0 3.6-2.8 5-5.1 5 10.7 0 6.9-13.8 1.1-8zM3.6 54.7c5.1 0 4.8-6.7 3.7-7.8 1.6-1.6 5-9.1 5-10.5 0 0-6.7-1.4-5.7-6.1h-.1c-1.8 1.9-.7 6 2.2 7 0 0-1.1 4.4-3.9 7.2-2.8-.1-6.6-.5-10-1.8 5.3 2.8 10.7 7 8.8 12zm-19.9-31.9c1.3-.1 2.5.8 2.6 2.1.1 1.3-.9 2.4-2.2 2.5-1.3.1-2.5-.8-2.6-2.1 0 1.9 1.6 3.5 3.5 3.5h.1c.2.9.2 1.8 0 2.5 1.9-1.7 3.5-3.7 3.5-6 0-2-1.6-3.5-3.5-3.5-1.6 0-3 1.1-3.4 2.6.3-.9 1.1-1.6 2-1.6zm37.6-2.6c-2.3-2.3 1.1-6.6 2.4-6.6-1.4 0-7.3 3.9-5.3 6.6h2.9zM-8.4 58.5c1.8.6 3.7-.1 4.1-1.5.4-1.4-.7-3-2.5-3.6-.3-.1-.5-.1-.8-.2 2.6 1.6 2.6 4.6-.8 5.3zm-5.3-19.4s2.6.8 5.8 2.3c-.6-.4-1.2-.8-1.8-1.4-1.6-1.5-2.9-2.4-4-2.8v1.9zm1 33.7c5.5 0 24.4-12.1 24.4-12.1-4.7 0-6.6-.7-6.6-.7-1.1.6-3.2 1.6-7.8 4.4-3.8 2.2-6.3 5-9.7 6.2-.5.2-.9.2-1.3.2-.8-.1-1.7-.2-2.5-.2V53.2c0-1.8-1.3-2.6-2.2-2.6v20.2c-1.5.8-2.2 1.8-2.6 2.7 0 0-2.8-.4-2.7 4.8 0-1.4 2.1-3.8 3.5-3.8-.1-1.7 5.1-1.7 7.5-1.7zm47.2 28c-1.4 0-7.7.3-8.3-5.3-1.4-.3-3-.4-4.8-.1 4.5 8.6 9.4 8.7 10.7 8.7 2 2.2 1.3 9.7-1.6 9.6-10.5-.6-10.1 5.8-9 7.1 0-4.8 3.3-6 11.6-6 0 0 6.8-8.6 1.4-14zm2.2 20.7h-1.4c-.1 2.3 2.2 3 2.2 3-.8-.8-1.4-2.5-.8-3zm-13.4 3.2c-.6-.6-1.1-3-.2-3.9h-1.6c-.1 2.5 1.8 3.9 1.8 3.9zm31.4-79.8c0-7.3-10.1-6.2-10.6-.6.4-4.1 7.2-4.7 7.2.4 0 5.3-12.5 8.9-12.5 17.9 0 10 10 10.9 9 20-.2 1.6-1.9 3.6-4.3 3.6-5.2 0-8.1-2.2-9.7-5.4 1.7 4.5 4.6 7.9 10.7 7.9 6.3 0 6.9-4.7 6.9-5.8 0-9.1-9.5-11.3-9.5-20-.1-8.3 12.8-11.8 12.8-18zm-74.2 35.4c0 2.8 1.1 3.9 1.1 3.9 0-1.7.7-3.1 1.1-3.5-.6-.6-2.2-.4-2.2-.4zm72.7-15.6c-2.6 0-4.6 2-4.9 4.5.1-.6.5-1.2 1.3-1.8 2.9-2.2 8.7 2.2 5.4 6.7 1.8-.7 3.1-2.5 3.1-4.5 0-2.7-2.2-4.9-4.9-4.9zm-22.4 56.8h-1.7c-.2 3.2 1.9 3.7 1.9 3.7-.8-.9-1-2.9-.2-3.7zm-48.2-17.3c-.3 0-.5.1-.7.1-.8.6-1.3 1.6-1.3 2.6.3.9 1.1 1.5 2 1.5 1.2 0 2.1-1 2.1-2.1 0-1.2-.9-2.1-2.1-2.1zm12 15.7h-2.5c0 4 2.5 4.7 2.5 4.7-.7-.7-1.6-3.1 0-4.7zm7.6-25c0-9 21.7-10.1 21.7-17.6 0-3-2.6-4.4-4.5-4.4.5.5 3.3 6.6-4.7 6.6C7.4 82-8.6 95.8 2.5 100.6c0 1.4-.2 11.8-6.8 10.9-9.6-1.2-12 2.8-10.1 7.2 0-6.8 4.7-5.5 10.9-5.5 3.9 0 9.5-4.9 9.5-13.2 0 .2-3.8-1.3-3.8-5.1zm-18.4 5.6V82.3c-1.2 0-2.2 1.9-2.2 1.9v15.5-.1h-1.3v2c1 0 3.5-.6 3.5-1.1zm3.8 23.4s-1.9-3 .1-5.1h-2.2c-.8 3.8 2.1 5.1 2.1 5.1zM.9 120H-.9c0 2.8 3.2 3.8 3.2 3.8-1.1-1.1-1.9-3.3-1.4-3.8z" style="fill:#6a7ab5" transform="translate(130 50) scale(1.43214)"/><path class="st2" d="m-59.3 89.8-.1-.4-.1-.4c-.2-1.3-.5-3.7-2.4-4.2-.5-.1-1-.1-1.6.2.2-.6.1-1.1 0-1.6-.7-1.8-3.1-1.8-4.5-1.8h-.4l-.4-.1c-1.3-.2-3.7-.7-4.7 1-.3.4-.4 1-.3 1.5-.5-.3-1-.5-1.5-.4-1.9.1-2.7 2.4-3.1 3.7l-.1.4-.2.3c-.6 1.2-1.8 3.3-.5 4.8.3.4.8.7 1.4.8-.5.4-.8.8-.9 1.3-.5 1.9 1.5 3.3 2.6 4l.3.2.3.3c.9 1 2.6 2.7 4.4 2 .5-.2.9-.6 1.2-1.1.2.6.5 1 1 1.2 1.6 1 3.6-.4 4.6-1.2l.3-.2.3-.2c1.2-.6 3.4-1.6 3.2-3.5 0-.5-.3-1-.6-1.4.6 0 1.1-.2 1.5-.5 1.5-1.1.7-3.4.3-4.7" transform="translate(130 50) scale(1.43214)"/><path class="st4" d="M-67.8 91.4c10.8 6.4 7.5-.6 7.2-1.7-.2-1-.3-8.8-7.2 1.7M-68.5 93c-2.7 12.2 2.9 6.9 3.8 6.4 1-.6 8.3-3.1-3.8-6.4M-70.2 92.8c-12.5 1.2-5.7 4.9-4.9 5.6.8.7 5.5 6.9 4.9-5.6M-70.6 91.1c-5-11.5-6.4-3.9-6.8-2.9-.4 1-4.9 7.3 6.8 2.9" transform="translate(130 50) scale(1.43214)"/><path class="st2" d="m107.6 88.1-.2-.3-.1-.4c-.4-1.3-1.1-3.6-3.1-3.7-.5 0-1 .1-1.5.4 0-.6-.1-1.1-.3-1.5-1-1.7-3.4-1.2-4.7-1l-.4.1h-.4c-1.3 0-3.8 0-4.5 1.8-.2.5-.2 1-.1 1.6-.5-.2-1.1-.3-1.6-.2-1.9.4-2.2 2.9-2.4 4.2l-.1.4-.1.4c-.4 1.2-1.2 3.6.3 4.8.4.3.9.5 1.5.5-.4.5-.6.9-.6 1.4-.2 1.9 2 3 3.2 3.5l.3.2.3.2c1.1.8 3 2.2 4.6 1.2.4-.3.8-.7 1-1.3.3.5.7.9 1.2 1.1 1.8.8 3.5-1 4.4-2l.3-.3.3-.2c1.1-.8 3.1-2.2 2.6-4-.1-.5-.4-.9-.9-1.3.6-.1 1-.4 1.4-.8 1.4-1.5.2-3.6-.4-4.8" transform="translate(130 50) scale(1.43214)"/><path class="st4" d="M98.1 90.2c-9.4-8.3-1.7-7.3-.6-7.4 1-.1 8.4-2.4.6 7.4M96.8 91.4c-10.8 6.4-7.5-.6-7.2-1.7.2-1 .3-8.8 7.2 1.7M97.4 93c2.7 12.2-2.9 6.9-3.8 6.4-.9-.6-8.2-3.1 3.8-6.4M99.2 92.8c12.5 1.2 5.7 4.9 4.9 5.6-.9.7-5.5 6.9-4.9-5.6M99.6 91.1c5-11.5 6.4-3.9 6.8-2.9.4 1 4.9 7.3-6.8 2.9" transform="translate(130 50) scale(1.43214)"/><path class="st2" d="M102 91.5c0-.1 0-.2-.1-.3 1-.7 2.1-1.5 2.1-1.5l-.1-.2s-1.3.2-2.5.4c-.6-1-1.6-1.7-2.8-1.8-.4-1.1-.8-2.3-.8-2.3h-.3s-.2 1.2-.3 2.4c-.7.2-1.4.6-1.9 1.2-.3.3-.5.7-.6 1.1h-2.5l-.1.3s1.2.6 2.3 1.1v.3c.1 1 .5 1.9 1.3 2.5-.4 1.2-.8 2.6-.8 2.6l.2.1s1-1 1.9-2c.5.2 1 .2 1.5.2s1-.2 1.4-.4c1 .8 2.2 1.6 2.2 1.6l.2-.2s-.7-1.3-1.3-2.4c.8-.8 1.1-1.7 1-2.7" transform="translate(130 50) scale(1.43214)"/><path class="st4" d="M98.1 89.6c-.6 0-1.1.3-1.5.8-.4.5-.6 1-.5 1.6.1 1.2 1.2 2.1 2.4 2 .6-.1 1.1-.3 1.5-.8.4-.5.6-1 .5-1.6-.1-1.2-1.2-2.1-2.4-2M-69.1 90.2c9.4-8.3 1.7-7.3.6-7.4-1-.1-8.4-2.4-.6 7.4" transform="translate(130 50) scale(1.43214)"/><path class="st2" d="M-65.5 91.8c1.1-.5 2.3-1.1 2.3-1.1l-.1-.3h-2.5c-.1-.4-.3-.7-.6-1.1-.5-.6-1.2-1-1.9-1.2-.2-1.2-.3-2.4-.3-2.4h-.3s-.4 1.2-.7 2.3c-1.2.1-2.2.8-2.8 1.8-1.2-.2-2.5-.4-2.5-.4l-.1.2s1.1.8 2.1 1.5c0 .1 0 .2-.1.3-.1 1 .2 1.9.8 2.7-.6 1.1-1.3 2.4-1.3 2.4l.2.2s1.2-.9 2.2-1.6c.4.2.9.4 1.4.4.5 0 1 0 1.5-.2.9.9 1.9 2 1.9 2l.2-.1s-.4-1.4-.8-2.6c.7-.6 1.2-1.5 1.3-2.5.1-.1.1-.2.1-.3" transform="translate(130 50) scale(1.43214)"/><path class="st4" d="M-67.6 90.4c-.4-.5-.9-.7-1.5-.8-1.2-.1-2.3.8-2.4 2-.1.6.1 1.2.5 1.6.4.5.9.7 1.5.8 1.2.1 2.3-.8 2.4-2 .1-.6-.1-1.2-.5-1.6" transform="translate(130 50) scale(1.43214)"/><path class="st2" d="M-67.7 38.1c-5.3-.9-10.3 2.6-11.2 7.8-.9 5.3 2.6 10.3 7.8 11.2 5.3.9 10.3-2.6 11.2-7.9 1-5.2-2.6-10.2-7.8-11.1" transform="translate(130 50) scale(1.43214)"/><path class="st4" d="M-65.5 45.4c-.1-.1-.2-.1-.4-.3-.8-.5-2.3-1.6-2.4-1.6-.2-.1-.4-.3-.6-.4-.7-.5-1.3-.9-1.9-1.2-.2-.1-.4-.2-.7-.4-.9-.5-1.8-.7-2.9-.8-.8.6-1.5 1.3-2.1 2.1 2.4.9 4.8 2.3 9.6 5.3.4-.6 1.3-2.6 1.4-2.7M-67.8 50.6c.1-.2.5-1.3.7-1.8-5-3.1-7.3-4.5-9.8-5.3-.4.7-.7 1.4-.8 2.2 1.4 1.9 5.1 3.7 9.9 4.9M-68.3 42.7c1.9-1.1 4-.8 5.7-.2-.6-.8-1.4-1.5-2.2-2-1.6-.3-3.7-.4-5.4 1 .5.3 1.2.7 1.9 1.2" transform="translate(130 50) scale(1.43214)"/><path class="st4" d="M-75.8 51.7c.3.2.5.3.8.5.6.3 1.2.6 1.8.8.3.1.5.2.8.3.9.3 3.1.9 3.3.9 0-.1.8-2.1 1.1-2.8-3.7-.9-7.8-2.6-9.8-4.7-.1 1-.1 1.9.1 2.9.4.8 1.1 1.5 1.9 2.1M-69.1 54.9l-.8-.2c-.7-.2-1.5-.4-2.3-.6.4.8 1 1.5 1.7 2 .9.1 1.7.1 2.6 0-.7-.6-1.2-1.2-1.2-1.2M-61.3 45.2c-.2-.6-.4-1.1-.7-1.7-1.5-.7-3.7-1.3-5.7-.3L-65 45c.6-.1 1.1-.1 1.6-.1h.7c.6.1 1 .2 1.4.3M-62.7 45.6c-.1 4.4-2.2 7.9-4 10 2.8-1 5.1-3.4 5.6-6.6.2-1.1.2-2.1 0-3.1-.4-.1-.9-.2-1.6-.3M-71 41c1.3-1.1 2.8-1.5 4.1-1.5-.3-.1-.7-.2-1.1-.3-2-.3-3.9 0-5.5.9.9.2 1.7.5 2.5.9" transform="translate(130 50) scale(1.43214)"/><path class="st4" d="M-64.8 45.7c-.6 1.3-1 2.2-1.3 2.9-.1.2-.2.4-.3.7-.2.4-.6 1.5-.6 1.5l-.3.7-1.2 3c.3.4.7.8 1.1 1.1 1.8-2 4-5.4 4-9.9-.4-.1-.9-.1-1.4 0M-73.1 53.8c-.6-.2-1.2-.4-1.8-.7.2.6.5 1.2.8 1.7.6.4 1.3.7 2.1 1-.4-.6-.8-1.2-1.1-2M-75.7 52.6c-.4-.2-.8-.5-1.1-.8.4.7.9 1.3 1.5 1.9-.2-.4-.3-.7-.4-1.1" transform="translate(130 50) scale(1.43214)"/><path class="st2" d="M87.8 49.3c.9 5.3 6 8.8 11.2 7.9 5.3-.9 8.8-6 7.9-11.2-.9-5.3-6-8.8-11.2-7.9-5.3.9-8.8 5.9-7.9 11.2" transform="translate(130 50) scale(1.43214)"/><path class="st4" d="M93.5 45.4c.1-.1.2-.1.4-.3.8-.5 2.3-1.6 2.4-1.6.2-.1.4-.3.6-.4.7-.5 1.3-.9 1.9-1.2.2-.1.4-.2.7-.4.9-.5 1.8-.7 2.9-.8.8.6 1.5 1.3 2.1 2.1-2.4.9-4.7 2.3-9.6 5.3-.4-.6-1.4-2.6-1.4-2.7M95.7 50.6c-.1-.2-.5-1.3-.7-1.8 5-3.1 7.3-4.5 9.7-5.3.4.7.7 1.4.8 2.2-1.3 1.9-5 3.7-9.8 4.9M96.3 42.7c-1.9-1.1-4-.8-5.7-.2.6-.8 1.4-1.5 2.2-2 1.6-.3 3.7-.4 5.4 1-.6.3-1.2.7-1.9 1.2" transform="translate(130 50) scale(1.43214)"/><path class="st4" d="M103.7 51.7c-.2.2-.5.3-.8.5-.6.3-1.1.6-1.8.8-.3.1-.5.2-.8.3-.9.3-3.1.9-3.3.9 0-.1-.8-2.1-1.1-2.8 3.7-.9 7.8-2.6 9.8-4.7.1 1 .1 1.9-.1 2.9-.4.8-1 1.5-1.9 2.1M97 54.9l.8-.2c.7-.2 1.5-.4 2.3-.6-.4.8-1 1.5-1.7 2-.9.1-1.7.1-2.6 0 .7-.6 1.2-1.2 1.2-1.2M89.2 45.2c.2-.6.4-1.1.7-1.7 1.5-.7 3.7-1.3 5.7-.3L92.9 45c-.6-.1-1.1-.1-1.6-.1h-.7c-.5.1-1 .2-1.4.3M90.6 45.6c.1 4.4 2.2 7.9 4 10-2.8-1-5.1-3.4-5.6-6.6-.2-1-.2-2 0-3 .4-.2 1-.3 1.6-.4M98.9 41a6.32 6.32 0 0 0-4.1-1.5c.3-.1.7-.2 1.1-.3 2-.3 3.9 0 5.5.9-.9.2-1.7.5-2.5.9" transform="translate(130 50) scale(1.43214)"/><path class="st4" d="M92.8 45.7c.6 1.3 1 2.2 1.3 2.9.1.2.2.4.3.7.2.4.6 1.5.6 1.5l.3.7 1.2 3c-.3.4-.7.8-1.1 1.1-1.8-2-4-5.4-4-9.9.4-.1.8-.1 1.4 0M101 53.8c.6-.2 1.2-.4 1.8-.7-.2.6-.5 1.2-.8 1.7-.6.4-1.3.7-2.1 1 .4-.6.9-1.2 1.1-2M103.6 52.6c.4-.2.8-.5 1.1-.8-.4.7-.9 1.3-1.5 1.9.2-.4.3-.7.4-1.1" transform="translate(130 50) scale(1.43214)"/></svg>