<svg version="1.1" id="Layer_1" xmlns="http://www.w3.org/2000/svg" x="0" y="0" viewBox="0 0 207.6 233.2" style="enable-background:new 0 0 207.6 233.2" xml:space="preserve"><style>.st0{fill:#211e1f}.st1{fill:none;stroke:#fff;stroke-width:1.36}.st2{fill:#fff}.st3{fill:#ed1a3b}.st4{fill:#00aeef}.st5{fill:none;stroke:#211e1f;stroke-width:.83}.st10{fill:#ffc20e}.st11{fill:none;stroke:#211e1f;stroke-width:2.71}</style><path class="st0" d="M177.4 167.3c-17.4 20.7-43.5 33.8-72.6 33.8-28.9 0-54.7-12.9-72.1-33.2L12 192.7c23.2 24.9 56.2 40.4 92.9 40.4 36.9 0 70.1-15.7 93.2-40.9l-20.7-24.9z"/><path class="st1" d="M177.4 167.3c-17.4 20.7-43.5 33.8-72.6 33.8-28.9 0-54.7-12.9-72.1-33.2L12 192.7c23.2 24.9 56.2 40.4 92.9 40.4 36.9 0 70.1-15.7 93.2-40.9l-20.7-24.9z"/><path class="st0" d="M161 72.3v110.1c0 3.2-2 5.9-4.8 7l-51.1 19.8-51.2-19.8c-2.8-1.1-4.8-3.8-4.8-7V72.3H161z"/><path class="st1" d="M161 72.3v110.1c0 3.2-2 5.9-4.8 7l-51.1 19.8-51.2-19.8c-2.8-1.1-4.8-3.8-4.8-7V72.3H161z"/><path class="st2" d="M51.7 157.3V89.4h106.6v67.9H51.7z"/><path class="st3" d="M158.4 150.9c-.9 1.5-3.2 2.6-5.9 2.6s-5-1.1-5.9-2.6c-.9 1.5-3.2 2.6-5.9 2.6s-5-1.1-5.9-2.6c-.9 1.5-3.2 2.6-5.9 2.6s-5-1.1-5.9-2.6c-.9 1.5-3.2 2.6-5.9 2.6s-5-1.1-5.9-2.6c-1 1.5-3.3 2.6-5.9 2.6-2.7 0-5-1.1-5.9-2.6-1 1.5-3.2 2.6-5.9 2.6s-5-1.1-5.9-2.6c-.9 1.5-3.2 2.6-5.9 2.6s-5-1.1-5.9-2.6c-.9 1.5-3.2 2.6-5.9 2.6s-5-1.1-5.9-2.6c-.9 1.5-3.2 2.5-5.9 2.5s-5-1.1-5.9-2.6v-.1 30c0 3 1.9 5.6 4.6 6.6l48.7 18.9 48.7-18.9c2.7-1 4.6-3.6 4.6-6.6v-30 .2z"/><path class="st4" d="M158.4 147.8c-.9 1.5-3.2 2.6-5.9 2.6s-5-1.1-5.9-2.6c-.9 1.5-3.2 2.6-5.9 2.6s-5-1.1-5.9-2.6c-.9 1.5-3.2 2.6-5.9 2.6s-5-1.1-5.9-2.6c-.9 1.5-3.2 2.6-5.9 2.6s-5-1.1-5.9-2.6c-1 1.5-3.3 2.6-5.9 2.6-2.7 0-5-1.1-5.9-2.6-1 1.5-3.2 2.6-5.9 2.6s-5-1.1-5.9-2.6c-.9 1.5-3.2 2.6-5.9 2.6s-5-1.1-5.9-2.6c-.9 1.5-3.2 2.6-5.9 2.6s-5-1.1-5.9-2.6c-.9 1.5-3.2 2.5-5.9 2.5s-5-1.1-5.9-2.6V144c.9 1.5 3.2 2.6 5.9 2.6s5-1.1 5.9-2.6c1 1.5 3.2 2.6 5.9 2.6s5-1.1 5.9-2.6c.9 1.5 3.2 2.6 5.9 2.6s5-1.1 5.9-2.6c.9 1.5 3.2 2.6 5.9 2.6s5-1.1 5.9-2.6c.9 1.5 3.2 2.6 5.9 2.6s5-1.1 5.9-2.6c.9 1.5 3.2 2.6 5.9 2.6s5-1.1 5.9-2.6c.9 1.5 3.2 2.6 5.9 2.6s5-1.1 5.9-2.6c.9 1.5 3.2 2.6 5.9 2.6s5-1.1 5.9-2.6c.9 1.5 3.2 2.6 5.9 2.6s5-1.1 5.9-2.6v3.8zM158.4 141.1c-.9 1.5-3.2 2.5-5.9 2.5s-5-1.1-5.9-2.5c-.9 1.5-3.2 2.5-5.9 2.5s-5-1-5.9-2.5c-.9 1.5-3.2 2.5-5.9 2.5s-5-1.1-5.9-2.5c-.9 1.5-3.2 2.5-5.9 2.5s-5-1-5.9-2.5c-1 1.5-3.3 2.5-5.9 2.5-2.7 0-5-1.1-5.9-2.5-1 1.5-3.2 2.5-5.9 2.5s-5-1-5.9-2.5c-.9 1.5-3.2 2.5-5.9 2.5s-5-1.1-5.9-2.5c-.9 1.5-3.2 2.5-5.9 2.5s-5-1-5.9-2.5c-.9 1.5-3.2 2.5-5.9 2.5s-5-1.1-5.9-2.5v-3.7c.9 1.5 3.2 2.6 5.9 2.6s5-1 5.9-2.6c1 1.5 3.2 2.6 5.9 2.6s5-1.1 5.9-2.6c.9 1.5 3.2 2.6 5.9 2.6s5-1 5.9-2.6c.9 1.5 3.2 2.6 5.9 2.6s5-1.1 5.9-2.6c.9 1.5 3.2 2.6 5.9 2.6s5-1 5.9-2.6c.9 1.5 3.2 2.6 5.9 2.6s5-1.1 5.9-2.6c.9 1.5 3.2 2.6 5.9 2.6s5-1 5.9-2.6c.9 1.5 3.2 2.6 5.9 2.6s5-1.1 5.9-2.6c.9 1.5 3.2 2.6 5.9 2.6s5-1 5.9-2.6v3.7z"/><path class="st0" d="M112.9 185.1s5.2 8.2 2.5 5.9c-2-1.7-4.8-5.7-6.7-9L98 186.2s-6.2 7.5-4.8 4.2c1-2.4 4-6.3 6.5-9.2l-7.3-8.9s-9-3.5-5.5-3.3c2.3.2 7.2 1.9 10.8 3.4l6.1-9.7s.6-9.7 1.4-6.2c.6 2.4.4 7.6.1 11.4l11.2 2.7s9.4-2.5 6.3-.6c-2.1 1.3-6.8 2.7-10.6 3.6l.7 11.5z"/><path class="st5" d="M112.9 185.1s5.2 8.2 2.5 5.9c-2-1.7-4.8-5.7-6.7-9L98 186.2s-6.2 7.5-4.8 4.2c1-2.4 4-6.3 6.5-9.2l-7.3-8.9s-9-3.5-5.5-3.3c2.3.2 7.2 1.9 10.8 3.4l6.1-9.7s.6-9.7 1.4-6.2c.6 2.4.4 7.6.1 11.4l11.2 2.7s9.4-2.5 6.3-.6c-2.1 1.3-6.8 2.7-10.6 3.6l.7 11.5z"/><path class="st2" d="M104.3 183c.1.2.2.3.3.3.1 0 .2-.1.3-.3.1-.3.2-.9.2-2.3 0 0 .1-4.6 3.5.3 9.6 13.8-4.1 13.9-4.1 13.9h.1s-13.6-.1-4.1-13.9c3.4-4.9 3.5-.3 3.5-.3.1 1.3.2 2 .3 2.3"/><path class="st5" d="m104.3 183 .3.3.3-.3c.1-.3.2-.9.2-2.3 0 0 .1-4.6 3.5.3 9.6 13.8-4.1 13.9-4.1 13.9h.1s-13.6-.1-4.1-13.9c3.4-4.9 3.5-.3 3.5-.3.1 1.3.2 2 .3 2.3z"/><path class="st2" d="M97.3 177.4c-.1.1-.2.2-.1.4 0 .1.2.2.3.2.3 0 .9 0 2.2-.5 0 0 4.4-1.3.8 3.4-10.2 13.4-14.4.5-14.4.5v.1s-4.1-13 12-8.1c5.7 1.7 1.4 3.2 1.4 3.2-1.4.3-2 .6-2.2.8"/><path class="st5" d="M97.3 177.4c-.1.1-.1.4-.1.4l.3.2s.9 0 2.2-.5c0 0 4.4-1.3.8 3.4-10.2 13.4-14.4.5-14.4.5v.1s-4.1-13 12-8.1c5.7 1.7 1.4 3.2 1.4 3.2-1.4.3-2 .6-2.2.8z"/><path class="st2" d="M100.4 169c-.1-.1-.3-.1-.4 0-.1.1-.1.2-.1.4.1.3.3.9 1.2 2 0 0 2.6 3.7-3 1.8-15.9-5.5-4.9-13.6-4.9-13.6h-.1s11.1-7.9 11.4 8.9c.1 6-2.6 2.3-2.6 2.3-.8-1.2-1.3-1.6-1.5-1.8"/><path class="st5" d="M100.4 169h-.4l-.1.4s.3.9 1.2 2c0 0 2.6 3.7-3 1.8-15.9-5.5-4.9-13.6-4.9-13.6h-.1s11.1-7.9 11.4 8.9c.1 6-2.6 2.3-2.6 2.3-.8-1.2-1.3-1.6-1.5-1.8z"/><path class="st2" d="M109.4 169.3c0-.1 0-.3-.1-.4-.1-.1-.3 0-.4 0-.3.1-.7.6-1.5 1.7 0 0-2.7 3.7-2.6-2.3.4-16.8 11.4-8.9 11.4-8.9l-.1-.1s11 8.1-4.9 13.6c-5.6 2-3-1.8-3-1.8.8-.9 1.1-1.4 1.2-1.8"/><path class="st5" d="m109.4 169.3-.1-.4h-.4c-.3.1-.7.6-1.5 1.7 0 0-2.7 3.7-2.6-2.3.4-16.8 11.4-8.9 11.4-8.9l-.1-.1s11 8.1-4.9 13.6c-5.6 2-3-1.8-3-1.8.8-.9 1.2-1.8 1.2-1.8z"/><path class="st2" d="M111.8 178c.2 0 .3-.1.3-.2.1-.1 0-.2-.1-.4-.2-.2-.8-.5-2.1-.9 0 0-4.3-1.5 1.4-3.2 16.1-4.9 12 8.1 12 8.1v-.1s-4.3 12.9-14.5-.5c-3.6-4.7.7-3.4.7-3.4 1.3.6 2 .6 2.3.6"/><path class="st5" d="m111.8 178 .3-.2s0-.2-.1-.4c-.2-.2-.8-.5-2.1-.9 0 0-4.3-1.5 1.4-3.2 16.1-4.9 12 8.1 12 8.1v-.1s-4.3 12.9-14.5-.5c-3.6-4.7.7-3.4.7-3.4 1.3.6 2.3.6 2.3.6z"/><path class="st0" d="M95.3 162.5s-1 .7-1.9 1c-.9.3-1.3.9-1.4 1.1 0 0-.5 1.2-.8.7-.3-.5.3-1.3.3-1.3.1-.2.5-.8 1.4-1.1.9-.3 1.9-1 1.9-1s1-.8 1.5-1.5c.5-.8 1.3-.9 1.5-1 0 0 1-.4 1.4.1.3.5-.9.6-.9.6-.2.1-1 .2-1.5 1-.5.7-1.5 1.4-1.5 1.4M113.9 162.5s-1-.8-1.5-1.5-1.3-.9-1.5-1c0 0-1.3-.1-.9-.6s1.4-.1 1.4-.1c.2 0 1 .2 1.5 1 .5.7 1.5 1.5 1.5 1.5s1 .7 1.9.9c.9.3 1.3.9 1.4 1.1 0 0 .7.9.4 1.4-.3.5-.8-.7-.8-.7-.1-.2-.5-.8-1.4-1.1-.9-.2-2-.9-2-.9M119.7 180.2s.4-1.2 1-1.9.5-1.5.5-1.7c0 0-.3-1.2.3-1 .5.2.5 1.3.5 1.3 0 .2.1 1-.5 1.7s-1 1.9-1 1.9-.3 1.2-.3 2.1c0 .9-.5 1.5-.6 1.7 0 0-.7.9-1.2.8-.6-.2.4-1 .4-1 .1-.2.6-.8.6-1.6 0-1 .3-2.3.3-2.3M104.6 191.2s1.3 0 2.1.3c.9.3 1.6 0 1.8-.1 0 0 1.1-.7 1.1-.1 0 .5-1.1.9-1.1.9-.2.1-.9.4-1.8.1-.9-.3-2.1-.4-2.1-.4s-1.3.1-2.1.4c-.9.3-1.6 0-1.8-.1 0 0-1.1-.4-1.1-.9 0-.6 1.1.1 1.1.1.2.1.9.4 1.8.1.9-.3 2.1-.3 2.1-.3M89.6 180.2s.4 1.2.3 2.1c0 .9.5 1.5.6 1.6 0 0 1 .8.4 1-.5.2-1.2-.8-1.2-.8-.1-.2-.6-.7-.6-1.7 0-.9-.3-2.1-.3-2.1s-.4-1.2-1-1.9c-.5-.7-.5-1.5-.5-1.7 0 0 0-1.1.5-1.3.5-.2.2 1 .2 1 0 .2-.1 1 .5 1.7.6 1 1.1 2.1 1.1 2.1"/><path d="M104.5 172.2c-1.7 0-3.1 1.4-3.1 3.1 0 1.7 1.4 3.1 3.1 3.1 1.7 0 3.1-1.3 3.1-3.1 0-1.7-1.3-3.1-3.1-3.1" style="fill:#ffc40d"/><path d="M104.5 172.2c-1.7 0-3.1 1.4-3.1 3.1 0 1.7 1.4 3.1 3.1 3.1 1.7 0 3.1-1.3 3.1-3.1 0-1.7-1.3-3.1-3.1-3.1z" style="fill:none;stroke:#ffc40d;stroke-width:.33"/><path class="st0" d="m110.4 116.5.4 8.3 7-4.6 2.2 3.6-8.3 4.8v1.7s9.6 5.4-2.1 5.2v.1c-4.1 3.4-8 0-8 0-11.7.2-2.1-5.2-2.1-5.2v-1.7l-7.3-5.7 1.7-3.8 6.5 5.6.4-8.3h9.6z"/><path d="M119.1 123.6c6.8 7.8 11.8-.4 11.8-.4 8.6-2.1 3.5-8.2 3.5-8.2 9-5.9-1.6-10.5-1.6-10.5-.1-7.8-6.7-7.2-6.7-7.2-6.9-6.1-13.6.7-13.6.7-10.4-8.7-18.3 1.3-18.3 1.3s-6.6-4.6-9.6 2.6c0 0-10.6-.3-6.6 10.4 0 0-8.2 8.2 2.5 12.2 0 0 5.7 10.5 13.5.5 0 0 4.8.3 4-6.5 0 0 6.1 2.5 11.8-.3 0 0 1.8 4.1 5.8 1.8 0 0-.6 2.7 3.2 3.2l.3.4z" style="fill:#22b24c"/><path d="M119.1 123.6c6.8 7.8 11.8-.4 11.8-.4 8.6-2.1 3.5-8.2 3.5-8.2 9-5.9-1.6-10.5-1.6-10.5 0-7.8-6.7-7.2-6.7-7.2-6.9-6.1-13.6.7-13.6.7-10.4-8.7-18.3 1.3-18.3 1.3s-6.6-4.6-9.6 2.6c0 0-10.6-.3-6.6 10.4 0 0-8.2 8.2 2.5 12.2 0 0 5.7 10.5 13.5.5 0 0 4.8.3 4-6.5 0 0 6.1 2.5 11.8-.3 0 0 1.8 4.1 5.8 1.8 0 0-.6 2.7 3.2 3.2l.3.4z" style="fill:none;stroke:#211e1f;stroke-width:3.4"/><path class="st10" d="m28.1 190.6.5.4c-1.7 3.2-2 5.4-.8 6.4.9.8 2 .5 3.1-.7.5-.5.8-1.1.8-1.6 0-.7-.5-1.4-1-2.5-1-2.1-1-3.9.9-6s4.3-2.8 5.9-1.5c.7.6 1 1.4 1.1 2.5l1.2-.4.4.4-3.7 4.5-.4-.4c1.5-3 1.8-4.8.7-5.8-.8-.8-1.9-.5-2.9.6-1.2 1.4-.5 2.2.4 3.9.5 1 .9 1.7.7 2.8-.2 1-.8 2.2-1.8 3.3-2 2.3-4.3 3-6 1.6-.8-.7-1.2-1.6-1.1-2.9l-1.5.5-.4-.4 3.9-4.7zM42.1 192.2c1.7-.8 3.1-.8 4.4.1 1.3.9 1.8 2.2 1.6 4.1-.1 1.7-1 3.7-2.3 5.6-1.4 1.9-2.7 3.2-4.3 4-1.8.8-3.3.9-4.5 0-1.2-.8-1.7-2.2-1.6-4.2.2-1.9.9-3.6 2.2-5.5 1.3-2 2.9-3.4 4.5-4.1M37.6 205c1.3.9 3.3-.6 6-4.5s3.5-6.3 2.1-7.2c-1.3-.9-3.3.6-6 4.5s-3.5 6.3-2.1 7.2zM55.8 199.8l-.6-.3c-.5-.3-.7-.1-1.1.7l-3.8 7.1c-1.4 2.6-1.4 4.1 0 4.8.7.3 1.4.3 2 0 1-.5 1.6-1.7 2.6-3.4l2.7-5.1c.8-1.5.9-2.3-.1-2.9h-.1l.5-1 3.2 1.7-.5 1c-1-.4-1.5.2-2.3 1.6l-2.8 5.3c-.8 1.5-1.5 2.7-2.4 3.5-1.4 1.2-2.8 1.3-4.3.5-2.3-1.2-2.6-3.4-1-6.6l4.1-7.7c.4-.8.4-1.1 0-1.4l-.6-.3.5-1 4.5 2.4-.5 1.1zM68.2 205.4c-.5-.2-.7 0-1 .8L63 216.8c-.3.8-.3 1.1.2 1.3l.6.3-.4 1.1-4.7-1.9.4-1.1.6.3c.5.2.7 0 1-.8l4.2-10.6c.3-.8.3-1.1-.1-1.3-1-.4-2.4.9-3.8 3.8l-.6-.2 2.4-5.5 8.1 3.2-2 5.7-.6-.2c1-3.2.8-5.2-.1-5.5M75.2 222c.5.2.7-.1.9-.9l1.4-5-3.4-.9-1.3 5c-.2.9-.2 1.1.3 1.3l.7.2-.3 1.1-4.9-1.3.3-1.1.7.1c.6.2.7-.1.9-.9l2.9-10.9c.2-.9.2-1.2-.3-1.3l-.6-.2.3-1.1 4.9 1.3-.3 1.1-.6-.2c-.5-.2-.7.1-1 1l-1.2 4.5 3.4.9 1.2-4.5c.2-.8.2-1.2-.3-1.3l-.6-.2.3-1.1 4.9 1.3-.3 1.1-.7-.2c-.5-.1-.7.1-.9 1l-2.9 10.9c-.2.9-.2 1.1.3 1.3l.6.2-.3 1.1-4.9-1.3.3-1.1.5.1zM88 224.6h.7c.3 0 .4-.1.4-.5v-.6l-.2-2.6-3.4-.5-.5 1.1c-.1.4-.3.8-.3 1.1-.2 1 .2 1.4 1.2 1.6l-.2 1.1-3.7-.5.2-1.1c.8-.1 1.4-1 2.1-2.7l4.8-11.5 1 .1 1.6 14.5c.1.7.2 1 .7 1l-.2 1.2-4.4-.7.2-1zm-1.9-5.4 2.7.4-.5-5.5-2.2 5.1zM97.8 222.8c-.1 2 .2 2.8 1.4 2.9v1.2l-3.8-.1v-1.2c1.2 0 1.4-.8 1.5-2.8l.2-9.6c0-.9-.1-1.2-.6-1.2h-.7v-1.2l4.3.1 1.9 9.6 2.2-9.5 4.2.1v1.2h-.7c-.6 0-.7.3-.7 1.2l-.3 11.3c0 .9.1 1.2.6 1.2h.7v1.2l-4.9-.1v-1.2h.6c.6 0 .7-.3.7-1.1l.3-11.9-3.3 14.2h-.6l-2.7-14.3-.3 10zM115.8 225.2l.8-.1.1 1.1-5.2.5-.1-1.2.7-.1c.6-.1.6-.3.6-1.2l-1.1-11.2c-.1-.9-.2-1.2-.8-1.1l-.7.1-.1-1.2 5.8-.6c2.4-.2 3.8 1.2 4.1 4.2.3 3.1-1 4.7-3.9 5-.4.1-.8.1-1.3.1l.5 4.5c-.1 1 .1 1.2.6 1.2m-1.3-6.8h.7c1.8-.2 2.4-1 2.2-3.6-.2-2.6-.9-3.3-2.5-3.2-.9.1-1 .3-.9 1.5l.5 5.3zM127.6 209.5c-.5.1-.5.4-.3 1.2l2.3 11.3c.2.9.3 1.1.9 1l.6-.1.2 1.1-4.9 1-.2-1.1.7-.1c.6-.1.6-.4.4-1.3l-2.3-11.2c-.2-.8-.3-1.1-.8-1-1 .2-1.5 2.1-1.1 5.3l-.6.1-1-5.9 8.5-1.8 1.4 5.9-.6.1c-1-3.1-2.2-4.7-3.2-4.5M133.8 208.9c.4-1.8 1.3-2.9 2.7-3.4 1.5-.5 2.8-.1 4.3 1.2 1.3 1.2 2.3 3 3.1 5.2.8 2.3.9 4.1.6 5.9-.4 1.9-1.3 3.2-2.7 3.6-1.4.5-2.8.1-4.3-1.3-1.4-1.3-2.3-2.8-3.1-5.1-.8-2.2-.9-4.3-.6-6.1m7.5 11.4c1.5-.5 1.5-3 0-7.5-1.5-4.6-2.9-6.6-4.5-6.1-1.5.5-1.5 3 0 7.5 1.6 4.6 3 6.6 4.5 6.1zM149.3 217.1c1-.7.9-1.4.1-3.2l-4-8.7-.4-.2c-.4-.3-.7-.5-1.2-.3l-.1.1-.5-1 3-1.4 8.8 6.9-2.5-5.4c-.9-1.9-1.4-2.4-2.6-1.9l-.5-1.1 3.5-1.6.5 1c-1 .6-.9 1.3 0 3.1l5.1 11-.8.4-10.8-8.5 3.4 7.4c.8 1.8 1.4 2.4 2.6 1.9l.5 1-3.5 1.6-.6-1.1zM169.3 195.5l-.5.4c-2.3-2.5-3.7-3-5.4-1.8-.6.4-.8.6-.1 1.6l2.6 3.9c.1 0 .1-.1.2-.1 1-.7.9-1.7-.2-3.6l.5-.4 4.1 6-.6.4c-1.4-1.7-2.3-2.1-3.3-1.5-.1 0-.1.1-.1.1l3 4.4c.5.7.7.9 1.2.6l.8-.5.7 1-4.4 3-.7-1 .5-.4c.5-.3.4-.6-.1-1.3l-6.4-9.3c-.5-.7-.7-.9-1.2-.6l-.6.4-.6-.9 7.1-4.9 3.5 4.5zM182.2 198.7c-.9.7-2 1-3.3.7-2-.4-4-1.8-5.9-4-1.5-1.7-2.4-3.5-2.8-5.2-.4-1.9 0-3.3 1.1-4.4.7-.6 1.6-.9 2.7-.7l-.2-1.3.4-.4 4.3 4.7-.5.5c-2.8-2.4-4.8-3.1-5.9-2.2-1.3 1.2-.4 3.3 2.7 7 3.2 3.7 5.1 4.9 6.6 3.6 1.1-1 .9-2.9-.8-5.6l.8-.2c2.3 3.5 2.5 6.1.8 7.5"/><path class="st2" d="m12 64.6 2.5 5.2-7.1 1.9 2.2 4.4 7.1-1.9 2.2 4.4-7.1 1.9 2.2 4.4 7.1-1.9 2.2 4.4-7.2 1.9 2.2 4.4 7.2-1.9 3.2 6.1c1.3-.4 2.7-.8 3.9-1.4L16.1 63.4c-1.2.5-2.6.9-4.1 1.2M31.5 66.4c-.5-2.4 4.9-5.2 9.2-8.6L35 46.4c-2.2 1.2-4.7 3.2-7.2 6-.7.7-1.3 1.4-1.8 2.1l5.5 11.9z"/><path class="st3" d="M44.2 46.2c-1.4-1.9-4.9-2.1-9.3.2l5.7 11.4c4-3.2 7-7 3.6-11.6M16.1 63.4l16.6 33.2c4.7-1.9 8.5-4.7 9.8-6.7l-7.2-15.2-3.6-7.6c-.2-.2-.3-.5-.3-.7l-5.6-11.9c-2.7 3.5-5.1 6.9-9.7 8.9M12 64.6c-2.2.4-4.8.5-8 .2l3.5 6.9 7.1-1.9-2.6-5.2zM16.7 74.2l-7.1 1.9 2.2 4.4 7.1-1.9-2.2-4.4zM21.2 83 14 84.9l2.2 4.4 7.2-1.9-2.2-4.4zM18.5 93.7 21 99c2.5.1 5.2-.3 7.7-1l-3.2-6.1-7 1.8z"/><path class="st2" d="m40.5 57.9 3.2 6.3c2.2-1.9 4.6-4.1 7.2-6.3L45 47.3c2.1 4.1-.8 7.6-4.5 10.6"/><path class="st3" d="m31.8 67.1.7.7c3.2 2.2 6.9 0 11.2-3.6l-3.2-6.3c-4.7 3.8-10.6 6.7-8.7 9.2"/><path class="st11" d="M31.8 67.1c-3.6-4.6 19.9-10.9 12.4-21-2.1-2.9-9.2-2-16.5 6.2-5.7 6.3-8.2 13.8-23.8 12.5L21 99c8.6.5 19.2-5.5 21.5-9.1L31.8 67.1z"/><path class="st11" d="M50.9 57.9c-7.3 6.2-13.5 13.3-18.4 9.9-.3-.2-.6-.4-.7-.7-3.4-4.4 18-10.4 13.2-19.8l5.9 10.6z"/><path class="st2" d="m195.9 64.6-2.5 5.2 7.1 1.9-2.2 4.4-7.1-1.9-2.2 4.4 7.1 1.9-2.2 4.4-7.1-1.9-2.2 4.4 7.1 1.9-2.2 4.4-7.2-1.9-3.2 6.1c-1.3-.4-2.7-.8-3.9-1.4l16.6-33.2c1.2.6 2.5 1 4.1 1.3M176.4 66.4c.5-2.4-4.9-5.2-9.2-8.6l5.7-11.4c2.2 1.2 4.7 3.2 7.3 6l1.8 2.1-5.6 11.9z"/><path class="st3" d="M163.6 46.2c1.4-1.9 4.9-2.1 9.3.2l-5.7 11.4c-3.9-3.2-7-7-3.6-11.6M191.8 63.4l-16.6 33.2c-4.6-1.9-8.5-4.7-9.8-6.7L176 67.1c.2-.2.3-.5.3-.7l5.6-11.9c2.9 3.5 5.3 6.9 9.9 8.9M195.9 64.6c2.2.4 4.9.5 8 .2l-3.5 6.9-7.1-1.9 2.6-5.2zM191.1 74.2l7.1 1.9-2.2 4.4-7.1-1.9 2.2-4.4zM186.7 83l7.1 1.9-2.2 4.4-7.1-1.9 2.2-4.4zM189.4 93.7l-2.6 5.2c-2.5.1-5.2-.3-7.7-1l3.2-6.1 7.1 1.9z"/><path class="st2" d="m167.3 57.9-3.2 6.3c-2.2-1.9-4.7-4.1-7.2-6.3l5.9-10.6c-2.1 4.1.8 7.6 4.5 10.6"/><path class="st3" d="m176 67.1-.7.7c-3.2 2.2-6.9 0-11.2-3.6l3.2-6.3c4.7 3.8 10.7 6.7 8.7 9.2"/><path class="st11" d="M176 67.1c3.6-4.6-19.8-10.9-12.4-21 2.1-2.9 9.2-2 16.6 6.2 5.7 6.3 8.2 13.8 23.8 12.4L186.8 99c-8.6.5-19.2-5.5-21.5-9.1L176 67.1z"/><path class="st11" d="M157 57.9c7.3 6.2 13.5 13.3 18.3 9.9.3-.2.5-.4.7-.7 3.4-4.4-18-10.4-13.2-19.8L157 57.9z"/><path class="st2" d="M125.3 56.8c-1.5 1.2-4.2 3-7.2 4.8v23.6c3.3-2 6.7-4.2 10-5.9V54.8c-1.1.7-2.1 1.4-2.8 2M141.3 50.3h-.4l-3.4 25.5h.4c2.8 0 5.3.9 7.8 2.3l7.6-23.2c-3.8-2.6-7.8-4.6-12-4.6M175.3 67.8c-3.2 2.2-6.9 0-11.1-3.5l-9.8 20.6c4 3.5 7.6 6.3 10.9 5.1L176 67.1c-.1.2-.4.5-.7.7M32.5 67.8c-.3-.2-.6-.4-.7-.7l10.7 22.8c3.4 1.3 6.9-1.6 10.9-5.1l-9.9-20.6c-4.1 3.6-7.8 5.8-11 3.6M103.9 67.7c-1 0-2.3-.3-3.8-.9v23.8c1.4.5 2.6.8 3.8.8 1.1 0 2.4-.3 3.8-.8V66.8c-1.5.6-2.8.9-3.8.9M66.6 50.3c-4.2 0-8.2 2-11.9 4.6l7.6 23.2c2.4-1.4 5-2.3 7.7-2.3h.4L67 50.4c-.1 0-.3-.1-.4-.1M82.5 56.8c-.7-.6-1.7-1.2-2.8-2v24.5c3.2 1.7 6.6 3.9 9.9 5.9V61.6c-2.9-1.8-5.6-3.6-7.1-4.8"/><path class="st3" d="M89.7 61.6v23.6c3.7 2.3 7.4 4.4 10.5 5.4V66.8c-3.2-1.1-7.1-3.1-10.5-5.2M67 50.4l3.4 25.5c2.6.1 5.9 1.5 9.4 3.4V54.8c-3.3-2.1-7.9-4.3-12.8-4.4M43.6 64.3l9.9 20.6c2.7-2.3 5.6-4.9 8.8-6.6L54.7 55c-4.1 2.8-7.7 6.4-11.1 9.3M107.7 66.8v23.8c3.1-1.1 6.7-3.1 10.5-5.4V61.6c-3.5 2.1-7.4 4.1-10.5 5.2M128.1 54.8v24.5c3.5-1.9 6.7-3.2 9.4-3.4l3.4-25.5c-5 .1-9.6 2.3-12.8 4.4M153.2 55l-7.6 23.2c3.2 1.8 6.1 4.3 8.8 6.6l9.8-20.6c-3.3-2.8-7-6.4-11-9.2"/><path class="st11" d="M103.9 91.4c8.6 0 25-15.5 34-15.5 12 0 20.1 16.8 27.4 14L176 67.1c-.2.2-.4.5-.7.7-8 5.7-19.5-17.4-34.1-17.4-6.8 0-13.1 4.2-15.9 6.4-4.2 3.4-16.6 11-21.4 11-4.8 0-17.2-7.6-21.4-11-2.8-2.2-9.2-6.4-15.9-6.4-14.5 0-26 23.1-34 17.4-.3-.2-.6-.4-.7-.7l10.7 22.8c7.3 2.7 15.5-14 27.4-14 9 0 25.4 15.5 33.9 15.5z"/><path class="st0" d="M104.3 44.5c22.1 0 40-9.7 40-21.7s-17.9-21.7-40-21.7-40 9.7-40 21.7 17.9 21.7 40 21.7"/><path class="st1" d="M104.3 44.5c22.1 0 40-9.7 40-21.7s-17.9-21.7-40-21.7-40 9.7-40 21.7 17.9 21.7 40 21.7z"/><path class="st10" d="M104.3 40.9c19.6 0 35.6-8.1 35.6-18.2 0-10-16-18.2-35.6-18.2-19.7 0-35.6 8.1-35.6 18.2.1 10.1 16 18.2 35.6 18.2"/><path d="M104.3 40.9c19.6 0 35.6-8.1 35.6-18.2 0-10-16-18.2-35.6-18.2-19.7 0-35.6 8.1-35.6 18.2.1 10.1 16 18.2 35.6 18.2z" style="fill:none"/><path class="st2" d="M104.4 36.6c16 0 29-5.2 29-11.6 0-6.4-13-11.6-29-11.6s-29 5.2-29 11.6c0 6.4 13 11.6 29 11.6"/><path d="M104.4 36.6c16 0 29-5.2 29-11.6 0-6.4-13-11.6-29-11.6s-29 5.2-29 11.6c0 6.4 13 11.6 29 11.6z" style="fill:none;stroke:#211e1f;stroke-width:5.43"/><path class="st2" d="M104.3 16.8c-15.4 0-27.9 12.5-27.9 27.9 0 15.4 12.5 27.9 27.9 27.9h-.3c15.4 0 27.9-12.5 27.9-27.9 0-15.4-12.5-27.9-27.9-27.9h.3z"/><path class="st11" d="M104.3 16.8c-15.4 0-27.9 12.5-27.9 27.9 0 15.4 12.5 27.9 27.9 27.9h-.3c15.4 0 27.9-12.5 27.9-27.9 0-15.4-12.5-27.9-27.9-27.9h.3z"/><path class="st0" d="M99.6 67.7 93.9 58l-10.5-1.7-2.6 3.3c.1.2.2.3.3.5l.5.7c3.5 5 8.6 8.7 14.5 10.6l1.1.2 2.4-3.9zM92.5 40.8 97 54.7h14.3l4.5-13.9-11.7-8.4-11.6 8.4zM104.1 26.7l8.7-5.7v-2.8c-2.7-.9-5.6-1.4-8.7-1.5-3 0-5.9.5-8.7 1.5V21l8.7 5.7zM88 36.4l.3-11.1-2.2-1.7c-1.2 1-2.3 2.1-3.3 3.3l-.1.1c-3.2 3.9-5.3 8.6-6 13.8l2.5 1.1 8.8-5.5zM114.3 58l-5.7 9.7 2.5 3.8 1-.2c6-1.9 11.2-5.7 14.8-10.8l.2-.3c.1-.2.2-.4.4-.6l-2.7-3.3-10.5 1.7zM120.2 36.4l8.8 5.5 2.5-1.1c-.7-5.2-2.9-10-6.1-13.9-1-1.2-2.1-2.3-3.3-3.4l-2.3 1.7.4 11.2z"/></svg>