<svg version="1.1" id="Layer_1" xmlns="http://www.w3.org/2000/svg" x="0" y="0" viewBox="0 0 304.8 304.8" style="enable-background:new 0 0 304.8 304.8" xml:space="preserve"><style>.st2{fill:#140e0c}</style><path d="M302.5 152.2c0-82.7-67.3-150-150-150s-150 67.3-150 150 67.3 150 150 150c82.8 0 150-67.3 150-150" style="fill:#fff;stroke:#000;stroke-width:3.89"/><path d="m251.2 227.3-1.8 1.9 3.2 3 1.7-1.8c1-1.1 1.3-2.6.2-3.6-1-.9-2.3-.5-3.3.5m-187.7 9.2c-2.5 2.4-2.4 5.6-.4 7.8 2 2.1 5.3 2.2 7.8-.1 2.5-2.4 2.5-5.7.4-7.8-2-2.2-5.3-2.3-7.8.1M249 222.6c-1-.9-2.1-.4-2.8.3l-1.7 1.8 2.8 2.6 1.6-1.7c.9-1 .9-2.2.1-3m36.5-70.4c.5-.9 1-1.9 1-3 0-2.9-2.3-5.2-5.4-5.2s-5.4 2.3-5.4 5.2c0 3.1 2.5 5.2 5.2 5.2.2 0 .5 0 .7-.1l-3.4 5.8h2.8l4.5-7.9zm-13.6 2.9c0-1.9-.9-3.4-2.4-4.2.7-.7 1.2-1.7 1.2-2.8 0-2.3-1.8-4.2-4.2-4.2-2.4 0-4.2 1.9-4.2 4.2 0 1.2.4 2.1 1.2 2.8-1.5.9-2.4 2.4-2.4 4.3 0 2.9 2.4 5.2 5.4 5.2 3-.1 5.4-2.3 5.4-5.3m-15 69.3c-1.6-1.5-3.5-1.3-5.1-.3.7-1.6.3-3.3-.9-4.5-1.6-1.5-4.2-1.5-6.5 1.1l-4.2 4.5 12.4 11.6 4.3-4.6c2.4-2.9 1.8-6.1 0-7.8m-14.6 15.2-7.2-8.2-2.6 2.2 6.9 7.9c1.7 1.9 1.2 3.7-.2 5-1.4 1.2-3.3 1.4-4.9-.5l-6.9-7.9-2.6 2.2 7.2 8.2c2.8 3.2 6.8 2.6 9.3.3 2.6-2.1 3.8-5.9 1-9.2m-12.3 18-1.6-2.4-5.6 3.8-7.8-11.6-2.8 1.9 9.4 14.1 8.4-5.8zm-17.7 5.4-3.1-.2c.1 2.5-1.1 4.4-3.1 5.3-2.6 1.2-5.5.1-7-3.2-1.5-3.5-.1-6.1 2.6-7.3 1.4-.6 3.2-.8 4.9.3l1.3-3.1c-2.6-1.3-5.3-1.1-7.4-.2-4 1.8-6.8 6.4-4.4 11.8 2.2 5 7.1 6.4 11.2 4.6 3-1.3 5-4.2 5-8m-28.1 16.3-.6-2.9-6.6 1.3-2.7-13.7-3.3.7 3.3 16.6 9.9-2zm-17.7 3.3-.2-2.9-6.7.4-.8-14-3.4.2 1 16.9 10.1-.6zm83.9-130.4c0-5.9-.5-11.5-1.5-17.2-.3-1.6-.9-3.5-.9-3.5l5.6-19.4c1.2-4.2 1.7-5.3 1-6.4-.3-.4-.7-1.1-2.7-1.6l-16.8-4.2-.5-.9c-17.5-26.9-47.8-44.8-82.2-44.8-34.6 0-65 18-82.4 45.1l-.3.6-16.8 4.2c-1.9.5-2.4 1.2-2.7 1.6-.7 1.1-.2 2.2 1 6.4l5.6 19.4s-.5 1.7-.8 3.4c-.9 5.1-1.5 11.4-1.5 17.3 0 54 43.9 98 98 98 53.9 0 97.9-43.9 97.9-98M148.6 283.4l-4.8-17.5-3.2-.3-8.3 16.2 3.7.4 1.8-3.7 6.2.6 1 4 3.6.3zm-23.7-20.3-5.9-1.6-4.5 16.3 6.1 1.7c3.6 1 6.2-1.1 6.9-3.5.6-2.1-.4-3.8-2.1-4.7 1.7-.1 3.1-1.2 3.6-2.9.5-2.1-.7-4.4-4.1-5.3m-12.2-3.6-12.7-5.8-1.2 2.6 4.8 2.2-5.8 12.7 3.1 1.4 5.8-12.7 4.8 2.2 1.2-2.6zm-23.4-12.8c-4.1-2.6-9.4-1.5-12.1 2.8-2.7 4.3-1.5 9.5 2.6 12.1 4.1 2.6 9.4 1.5 12.1-2.8 2.8-4.3 1.6-9.5-2.6-12.1m-16-.1c3.7-3.5 3.7-8.9.3-12.4-3.4-3.5-8.8-3.6-12.4-.1-3.6 3.5-3.7 8.9-.3 12.4 3.4 3.5 8.7 3.6 12.4.1m-18.4-22.8 3.3-2.4 4.1 5.5 2.3-1.7-6.1-8.3L45 227l2 2.7 5.6-4.1 3.2 4.4 2.3-1.7-3.2-4.5zm-14.3-68.6c0-1.9-1-3.4-2.4-4.2.7-.7 1.2-1.7 1.2-2.8 0-2.3-1.8-4.2-4.2-4.2-2.4 0-4.2 1.9-4.2 4.2 0 1.2.4 2.1 1.2 2.8-1.5.9-2.4 2.4-2.4 4.3 0 2.9 2.4 5.2 5.5 5.2 3-.1 5.3-2.4 5.3-5.3m-16.2-11.3-2.5 1.6v14.7h2.5v-16.3zm22.3-69.8L64 88.5l5.4-6.4c3.2-3.8 2.1-8.1-.4-10.2-2.2-1.8-4.8-1.5-6.8 0 .8-2.1.2-4.5-1.5-5.9-2.3-1.9-5.7-1.6-8.6 1.9l-5.4 6.2zM66 53.5 80.1 71l3.5-2.8-5.6-7 1.6-1.3 9.4 3.8 4.2-3.4-10.7-4.1c1.5-2.7.9-5.5-.6-7.3-2.3-2.8-6.1-3.4-9.6-.6L66 53.5zm24-16.8L99.7 57l12.5-6-1.7-3.5-8.5 4.1-2.3-4.9 6.6-3.1-1.7-3.5-6.6 3.1-2.4-4.9 8.2-3.9-1.7-3.5L90 36.7zm24.9-10.3 5 21.9 4.4-1-3.2-13.8L134.6 45l4.2-1-5-21.9-4.4 1 3.2 13.9L119 25.5l-4.1.9zm28.5-1.5h7l-.1 18.6h4.5l.1-18.6h7V21h-18.5v3.9zm24.7 19.6 4.4.9 1.8-9.1 7.1 1.4.7-3.8-7.1-1.4 1-5.4 9 1.7.7-3.8-13.4-2.6-4.2 22.1zm27 8.7c6 2.5 12.6-.2 15.2-6.4 2.6-6.2-.1-12.8-6.1-15.3s-12.6.2-15.2 6.4c-2.6 6.2.1 12.8 6.1 15.3m29.2-10.6-13.5 17.9 3.6 2.7 5.4-7.1 1.7 1.3-1.4 10 4.4 3.3 1.4-11.3c3 .8 5.6-.5 7-2.3 2.2-2.9 1.8-6.7-1.8-9.5l-6.8-5zM246 60.5l-16 15.8 5.2 5.3c5.6 5.7 12.6 4.3 16.5.4 3.9-3.9 5.1-10.5-.1-15.8l-5.6-5.7zm51.1 91.7c0 79.7-64.8 144.5-144.5 144.5S8 231.9 8 152.2 72.9 7.7 152.6 7.7c79.7 0 144.5 64.8 144.5 144.5M196.7 49.3c3.6 1.5 7.6 0 9.4-4.2 1.8-4.2 0-8.2-3.6-9.7s-7.6 0-9.4 4.3c-1.7 4.2 0 8.1 3.6 9.6m32.2 5.2c1-1.3.8-3-.8-4.2l-2.6-2L222 53l2.5 1.9c1.5 1.2 3.4 1 4.4-.4m52.2 91.7c-1.8 0-2.9 1.3-2.9 2.9 0 1.6 1.1 2.9 2.9 2.9 1.7 0 2.9-1.4 2.9-2.9 0-1.6-1.2-2.9-2.9-2.9m-14.7 6c-1.7 0-2.9 1.3-2.9 2.9 0 1.6 1.2 2.9 2.9 2.9 1.8 0 3-1.3 3-2.9 0-1.6-1.2-2.9-3-2.9m0-2.2c1.1 0 1.9-.8 1.9-1.9 0-1.1-.7-1.9-1.9-1.9-1.1 0-1.8.8-1.8 1.9 0 1 .7 1.9 1.8 1.9m-18.1-71.1c2.8-2.8 3.6-6.8.5-10l-2.4-2.5-10.5 10.4 2.3 2.4c3.3 3.2 7.3 2.5 10.1-.3m-169.6-27c-1-1.2-2.7-1.5-4.2-.3l-2.6 2.1 3.7 4.6 2.4-2c1.5-1.3 1.7-3.1.7-4.4M35.1 152.3c-1.7 0-2.9 1.3-2.9 2.9 0 1.6 1.2 2.9 2.9 2.9 1.8 0 3-1.3 3-2.9 0-1.6-1.2-2.9-3-2.9m87.2 120-2.5-.7-1.2 4.3 2.4.7c1.5.4 2.9-.1 3.3-1.5.3-1.5-.7-2.4-2-2.8m-34.6-23c-2.5-1.6-5.7-1-7.5 2-1.8 2.9-1.1 6.1 1.4 7.6 2.5 1.6 5.7 1 7.5-2 1.8-2.9 1-6-1.4-7.6M35.1 150c1.1 0 1.9-.8 1.9-1.9 0-1.1-.7-1.9-1.9-1.9-1.1 0-1.8.8-1.8 1.9 0 1.1.8 1.9 1.8 1.9m19.6-79.3-2.1 2.5 3.9 3.3 2-2.4c1.1-1.3 1-2.9-.2-3.9-1.4-1.3-2.8-.5-3.6.5m69.2 195.1-2.4-.7-1 3.7 2.3.6c1.2.3 2.3-.2 2.6-1.4.4-1.2-.6-1.9-1.5-2.2m15.3 9.6 3.9.4-1.4-5.4-2.5 5zM66 80.1l-2.1 2.5-4.5-3.8 2.2-2.7c1.2-1.5 2.9-2.1 4.4-.9 1.5 1.4 1.3 3.4 0 4.9" style="fill:#e30613"/><path class="st2" d="M77.5 101.4c16.3-24 43.9-39.8 75-39.8 31.4 0 59.1 16 75.4 40.3l3.4-1.4C214.4 75 185.3 58 152.6 58s-61.5 16.7-78.4 42l3.3 1.4zm-17.7 33.8c-1 5.5-1.5 11.2-1.5 17 0 52 42.3 94.3 94.3 94.3s94.3-42.3 94.3-94.3c0-5.8-.5-11.6-1.5-17.1h-3.6c1 5.5 1.6 11.3 1.6 17.1 0 50-40.7 90.6-90.6 90.6-50 0-90.6-40.7-90.6-90.6 0-5.8.5-11.5 1.6-17h-4z"/><path d="M85.2 156.8v47.9l1.7-.3v-47.5l-1.7-.1zm1.5-51.4v-11L85 95.9v8.9l1.7.6zm51.9-17.9v11.9l1.7-.9V90l-1.7-2.5zm0 126.9v24.8l1.7.3v-23.7l-1.7-1.4zM140.3 80V65.1l-1.7.4v13.6l1.7.9zm-26.7 75.4v-3.5l-1.7 1.1v5.8l1.7-3.4zm0-39.1v-7.2l-1.7-2v8.4l1.7.8zm-1.7 71.3v42.1l1.7.9V185l-1.7 2.6zm1.7-91.3V72.9l-1.7.9v20.9l1.7 1.6zm105.5 60.6v47.5l1.7.3v-47.9l-1.7.1zm1.8-52.2v-8.9l-1.7-1.5v11l1.7-.6zM165.7 90v8.5l1.7.9V87.5l-1.7 2.5zm0 125.8v23.7l1.7-.3v-24.8l-1.7 1.4zm1.6-136.7V65.5l-1.7-.4V80l1.7-.9zm26.7 79.6v-5.8l-1.7-1.1v3.5l1.7 3.4zm0-43.1v-8.4l-1.7 2v7.2l1.7-.8zm-1.6 69.4v45.7l1.7-.9v-42.1l-1.7-2.7zm0-88.7V72.9l1.7.9v20.9l-1.7 1.6z" style="fill:#e8e4d9"/><path class="st2" d="m178.9 124.5 54.4-22-9.4 15.1L179 128l-.1-3.5zm.1 5.9v2.4h65.6l-21.2-11.6-44.4 9.2zM54.6 111.2l5.2 18.1 18.5-9.8s-9.8-16.1-9.8-16l-11.3 2.9c-2.2.6-2.8.9-3.1 1.4-.4.5-.1 1 .5 3.4m27.1 10-21.2 11.5h65.6v-2.4l-44.4-9.1zm-8.9 18.6c0 .6.5 1.1 1.4 2L86.4 154l9.9-9.5-18.6-7.8-3.6 1.8c-1 .5-1.3.9-1.3 1.3m53.5-15.3-54.4-22 9.4 15.1 44.9 10.4.1-3.5zM82 135.3l17 6.8 27.3-4.5-.1-2.3H82zm18.6 9.7c.3-.1-10.9 10.1-10.9 10.1l8.1.5s2.5.2 4-.2c1-.2 4.1-2 4.1-2s20.6-11 20.6-11.1v-2.4c-.2 0-26.2 5.2-25.9 5.1m78.3-5.1v2.4c0 .1 20.6 11.1 20.6 11.1s3.1 1.7 4.1 2c1.6.4 4 .2 4 .2l8.1-.5s-11.2-10.2-10.9-10.1c.2.1-25.9-5.1-25.9-5.1m52.2-1.4-3.6-1.8-18.6 7.8 9.9 9.5 12.2-12.2c.9-.9 1.4-1.4 1.4-2 0-.4-.3-.8-1.3-1.3m-30.4 44.8c-.3-.5-9.8-25.5-9.8-25.5-1.6-4-3-4.7-5.8-6.3l-6.5-4.1-.3.4 7.5 10.2v14.8l24.3 30.8c3.3 4.1 3.4 5.5 8.2 5.5l3-1.4-5.6-.9c-.1-.2-14.7-23.1-15-23.5m-96 0c-.3.5-14.9 23.4-14.9 23.4l-5.6.9 3 1.4c4.8 0 4.9-1.4 8.2-5.5l24.2-30.8.1-14.8 7.5-10.2-.3-.4-6.5 4.1c-2.9 1.6-4.2 2.3-5.8 6.3-.1 0-9.6 25.1-9.9 25.6m146.2-75.6c-.3-.5-1-.8-3.1-1.4l-11.3-2.9c0-.1-9.8 16-9.8 16l18.5 9.8 5.2-18.1c.6-2.3.8-2.8.5-3.4m-72 27.5-.1 2.3 27.3 4.5 17-6.8h-44.2zm-.7-14.5 17.4-18.8 11.2-13.6.6-3.7-1.1-1-1.4 4.2-29.1 26.5c0 .2 2.4 6.4 2.4 6.4m-68.5-18.8 17.4 18.8s2.4-6.2 2.5-6.4l-29.1-26.5-1.5-4.2-1.1 1 .6 3.7 11.2 13.6zm18-25.2 2.6 3.1 8.1 4.5 8.2 11.8-2.3 3.2s-4.7 1.6-5.6 2.8c-1.2 1.5-1.5 7.5-1.5 7.5l-3.6 2.1-4.3 12.7v20.1l3.1 2-9.1 12.7v30.7l10.1 17.2 13.9 10.5 5.3 6.7 5.3-6.7 13.9-10.5 10.1-17.2v-30.7l-8.9-12.8 2.9-1.9v-20.1l-4.3-12.7-3.6-2.1s-.2-5.9-1.5-7.5c-1-1.2-5.6-2.8-5.6-2.8l-2.2-3 8.3-12 8.1-4.5 2.6-3.1-4 1.3-8.6 4.8-8.3 11.7-4.1-1.1-4.3 1-8.3-11.7-8.6-4.8-3.8-1.2zm16.6 23.7 1.2 5.7-5.6 2.2 4.4-7.9zm16.6 0 4.4 7.9-5.5-2.2 1.1-5.7zm-8.3 22.7 16.8 7.3-5.6 12.6v-9.9l-11.2-5.7-15.9 1.8-.1-.5 16-5.6zm-20.2 57.1 10.8 3.9H162l10.8-3.9.1.3-9.8 7.5h-21l-9.8-7.5.1-.3z"/><path d="m175.9 194.4-13.7 4.8h-19.1l-13.5-4.8 4.8 8.3 11.3 4.1-7.9-.2 10.8 8.2h8.4l10.8-8.2-7.9.2 11.3-4.1 4.7-8.3zM132.3 124l11.5-6.1h17.8L173 124l-1.3-3.6-8.3-6.9 7.3 2.5-.8-2.5s-7.9-3.9-8-4.2h-18.7c-.1.3-8 4.2-8 4.2l-.8 2.5 7.3-2.5-8.3 6.9-1.1 3.6zm46.3 36.1-16.2 1.9 12.3-6.8-4.8-6.8-7 4.6h-20.5l-6.8-4.5-4.8 6.6 12.1 6.8-16.1-2v8.6l10.4 3.9h31.1l10.4-3.9-.1-8.4z" style="fill:#fbb800"/></svg>